%TF.GenerationSoftware,KiCad,Pcbnew,6.0.9-8da3e8f707~117~ubuntu22.04.1*%
%TF.CreationDate,2022-12-15T23:13:04+01:00*%
%TF.ProjectId,kosmo-sidechain,6b6f736d-6f2d-4736-9964-65636861696e,v1.0.0*%
%TF.SameCoordinates,Original*%
%TF.FileFunction,Soldermask,Bot*%
%TF.FilePolarity,Negative*%
%FSLAX46Y46*%
G04 Gerber Fmt 4.6, Leading zero omitted, Abs format (unit mm)*
G04 Created by KiCad (PCBNEW 6.0.9-8da3e8f707~117~ubuntu22.04.1) date 2022-12-15 23:13:04*
%MOMM*%
%LPD*%
G01*
G04 APERTURE LIST*
G04 Aperture macros list*
%AMRoundRect*
0 Rectangle with rounded corners*
0 $1 Rounding radius*
0 $2 $3 $4 $5 $6 $7 $8 $9 X,Y pos of 4 corners*
0 Add a 4 corners polygon primitive as box body*
4,1,4,$2,$3,$4,$5,$6,$7,$8,$9,$2,$3,0*
0 Add four circle primitives for the rounded corners*
1,1,$1+$1,$2,$3*
1,1,$1+$1,$4,$5*
1,1,$1+$1,$6,$7*
1,1,$1+$1,$8,$9*
0 Add four rect primitives between the rounded corners*
20,1,$1+$1,$2,$3,$4,$5,0*
20,1,$1+$1,$4,$5,$6,$7,0*
20,1,$1+$1,$6,$7,$8,$9,0*
20,1,$1+$1,$8,$9,$2,$3,0*%
G04 Aperture macros list end*
%ADD10R,1.600000X1.600000*%
%ADD11C,1.600000*%
%ADD12O,1.600000X1.600000*%
%ADD13C,1.750000*%
%ADD14R,1.600000X2.400000*%
%ADD15O,1.600000X2.400000*%
%ADD16RoundRect,0.287500X0.287500X-0.287500X0.287500X0.287500X-0.287500X0.287500X-0.287500X-0.287500X0*%
%ADD17C,1.150000*%
%ADD18O,6.800000X4.000000*%
%ADD19O,1.000000X2.000000*%
%ADD20C,11.000000*%
%ADD21C,2.340000*%
%ADD22RoundRect,0.250000X0.600000X0.600000X-0.600000X0.600000X-0.600000X-0.600000X0.600000X-0.600000X0*%
%ADD23C,1.700000*%
G04 APERTURE END LIST*
D10*
%TO.C,C1*%
X53000000Y-164000000D03*
D11*
X53000000Y-166000000D03*
%TD*%
D10*
%TO.C,D1*%
X49190000Y-130000000D03*
D12*
X56810000Y-130000000D03*
%TD*%
D10*
%TO.C,D2*%
X49190000Y-136000000D03*
D12*
X56810000Y-136000000D03*
%TD*%
D10*
%TO.C,D3*%
X49190000Y-142000000D03*
D12*
X56810000Y-142000000D03*
%TD*%
D10*
%TO.C,D4*%
X49190000Y-148000000D03*
D12*
X56810000Y-148000000D03*
%TD*%
D13*
%TO.C,J1*%
X54290000Y-183205000D03*
X56830000Y-183205000D03*
X49210000Y-183205000D03*
X51750000Y-183205000D03*
%TD*%
%TO.C,J2*%
X71290000Y-183205000D03*
X73830000Y-183205000D03*
X66210000Y-183205000D03*
X68750000Y-183205000D03*
%TD*%
%TO.C,J3*%
X88290000Y-183205000D03*
X90830000Y-183205000D03*
X83210000Y-183205000D03*
X85750000Y-183205000D03*
%TD*%
D11*
%TO.C,R1*%
X61080000Y-175000000D03*
D12*
X50920000Y-175000000D03*
%TD*%
D11*
%TO.C,R2*%
X64920000Y-175000000D03*
D12*
X75080000Y-175000000D03*
%TD*%
D11*
%TO.C,R3*%
X51000000Y-180000000D03*
D12*
X61160000Y-180000000D03*
%TD*%
D11*
%TO.C,R4*%
X78000000Y-156000000D03*
D12*
X67840000Y-156000000D03*
%TD*%
D11*
%TO.C,R5*%
X87000000Y-143000000D03*
D12*
X87000000Y-132840000D03*
%TD*%
D11*
%TO.C,R6*%
X65000000Y-156000000D03*
D12*
X54840000Y-156000000D03*
%TD*%
D11*
%TO.C,R7*%
X89080000Y-175000000D03*
D12*
X78920000Y-175000000D03*
%TD*%
D11*
%TO.C,R8*%
X64920000Y-180000000D03*
D12*
X75080000Y-180000000D03*
%TD*%
D11*
%TO.C,R9*%
X78920000Y-180000000D03*
D12*
X89080000Y-180000000D03*
%TD*%
D14*
%TO.C,U1*%
X62375000Y-168800000D03*
D15*
X64915000Y-168800000D03*
X67455000Y-168800000D03*
X69995000Y-168800000D03*
X72535000Y-168800000D03*
X75075000Y-168800000D03*
X77615000Y-168800000D03*
X77615000Y-161180000D03*
X75075000Y-161180000D03*
X72535000Y-161180000D03*
X69995000Y-161180000D03*
X67455000Y-161180000D03*
X64915000Y-161180000D03*
X62375000Y-161180000D03*
%TD*%
D16*
%TO.C,U2*%
X85100000Y-162500000D03*
D17*
X88900000Y-162500000D03*
X84460000Y-147500000D03*
X89540000Y-147500000D03*
%TD*%
D10*
%TO.C,C2*%
X53000000Y-51000000D03*
D11*
X51000000Y-51000000D03*
%TD*%
D10*
%TO.C,C3*%
X57000000Y-46000000D03*
D11*
X59000000Y-46000000D03*
%TD*%
%TO.C,C4*%
X86000000Y-169000000D03*
X86000000Y-166500000D03*
%TD*%
%TO.C,R10*%
X65000000Y-55000000D03*
D12*
X75160000Y-55000000D03*
%TD*%
D11*
%TO.C,R11*%
X64920000Y-48000000D03*
D12*
X75080000Y-48000000D03*
%TD*%
D18*
%TO.C,REF\u002A\u002A*%
X90000000Y-28000000D03*
X90000000Y-222000000D03*
%TD*%
%TO.C,REF\u002A\u002A*%
X49900000Y-222000000D03*
X49900000Y-28000000D03*
%TD*%
D19*
%TO.C,RV1*%
X77500000Y-104100000D03*
D20*
X70000000Y-104000000D03*
D21*
X65000000Y-116000000D03*
X70000000Y-116000000D03*
X75000000Y-116000000D03*
%TD*%
D19*
%TO.C,RV2*%
X77500000Y-74100000D03*
D20*
X70000000Y-74000000D03*
D21*
X65000000Y-86000000D03*
X70000000Y-86000000D03*
X75000000Y-86000000D03*
%TD*%
D19*
%TO.C,RV3*%
X77500000Y-134100000D03*
D20*
X70000000Y-134000000D03*
D21*
X65000000Y-146000000D03*
X70000000Y-146000000D03*
X75000000Y-146000000D03*
%TD*%
D22*
%TO.C,J4*%
X86752500Y-50000000D03*
D23*
X84212500Y-50000000D03*
X86752500Y-52540000D03*
X84212500Y-52540000D03*
X86752500Y-55080000D03*
X84212500Y-55080000D03*
X86752500Y-57620000D03*
X84212500Y-57620000D03*
X86752500Y-60160000D03*
X84212500Y-60160000D03*
%TD*%
M02*
