M48
; DRILL file {KiCad 6.0.9-8da3e8f707~117~ubuntu22.04.1} date Do 15 Dez 2022 23:13:00 CET
; FORMAT={-:-/ absolute / inch / decimal}
; #@! TF.CreationDate,2022-12-15T23:13:00+01:00
; #@! TF.GenerationSoftware,Kicad,Pcbnew,6.0.9-8da3e8f707~117~ubuntu22.04.1
; #@! TF.FileFunction,Plated,1,2,PTH
FMAT,2
INCH
; #@! TA.AperFunction,Plated,PTH,ViaDrill
T1C0.0157
; #@! TA.AperFunction,Plated,PTH,ComponentDrill
T2C0.0217
; #@! TA.AperFunction,Plated,PTH,ComponentDrill
T3C0.0300
; #@! TA.AperFunction,Plated,PTH,ComponentDrill
T4C0.0315
; #@! TA.AperFunction,Plated,PTH,ComponentDrill
T5C0.0394
; #@! TA.AperFunction,Plated,PTH,ComponentDrill
T6C0.0512
; #@! TA.AperFunction,Plated,PTH,ComponentDrill
T7C0.1260
; #@! TA.AperFunction,Plated,PTH,ComponentDrill
T8C0.2756
; #@! TA.AperFunction,Plated,PTH,ComponentDrill
T9C0.3937
%
G90
G05
T1
X2.3031Y-6.2402
T2
X3.3252Y-5.8071
X3.3504Y-6.3976
X3.5Y-6.3976
X3.5252Y-5.8071
T3
X1.9374Y-7.2128
X2.0374Y-7.2128
X2.1374Y-7.2128
X2.2374Y-7.2128
X2.6067Y-7.2128
X2.7067Y-7.2128
X2.8067Y-7.2128
X2.9067Y-7.2128
X3.276Y-7.2128
X3.376Y-7.2128
X3.476Y-7.2128
X3.576Y-7.2128
T4
X1.9366Y-5.1181
X1.9366Y-5.3543
X1.9366Y-5.5906
X1.9366Y-5.8268
X2.0047Y-6.8898
X2.0079Y-2.0079
X2.0079Y-7.0866
X2.0866Y-2.0079
X2.0866Y-6.4567
X2.0866Y-6.5354
X2.1591Y-6.1417
X2.2366Y-5.1181
X2.2366Y-5.3543
X2.2366Y-5.5906
X2.2366Y-5.8268
X2.2441Y-1.811
X2.3228Y-1.811
X2.4047Y-6.8898
X2.4079Y-7.0866
X2.4557Y-6.3457
X2.4557Y-6.6457
X2.5557Y-6.3457
X2.5557Y-6.6457
X2.5559Y-1.8898
X2.5559Y-6.8898
X2.5559Y-7.0866
X2.5591Y-2.1654
X2.5591Y-6.1417
X2.6557Y-6.3457
X2.6557Y-6.6457
X2.6709Y-6.1417
X2.7557Y-6.3457
X2.7557Y-6.6457
X2.8557Y-6.3457
X2.8557Y-6.6457
X2.9557Y-6.3457
X2.9557Y-6.6457
X2.9559Y-1.8898
X2.9559Y-6.8898
X2.9559Y-7.0866
X2.9591Y-2.1654
X3.0557Y-6.3457
X3.0557Y-6.6457
X3.0709Y-6.1417
X3.1071Y-6.8898
X3.1071Y-7.0866
X3.3858Y-6.5551
X3.3858Y-6.6535
X3.4252Y-5.2299
X3.4252Y-5.6299
X3.5071Y-6.8898
X3.5071Y-7.0866
T5
X3.3155Y-1.9685
X3.3155Y-2.0685
X3.3155Y-2.1685
X3.3155Y-2.2685
X3.3155Y-2.3685
X3.4155Y-1.9685
X3.4155Y-2.0685
X3.4155Y-2.1685
X3.4155Y-2.2685
X3.4155Y-2.3685
T6
X2.5591Y-3.3858
X2.5591Y-4.5669
X2.5591Y-5.748
X2.7559Y-3.3858
X2.7559Y-4.5669
X2.7559Y-5.748
X2.9528Y-3.3858
X2.9528Y-4.5669
X2.9528Y-5.748
T8
X2.7559Y-2.9134
X2.7559Y-4.0945
X2.7559Y-5.2756
T9
X2.0866Y-7.5984
X2.7559Y-7.5984
X3.4252Y-7.5984
T7
G00X1.9094Y-1.1024
M15
G01X2.0197Y-1.1024
M16
G05
G00X1.9094Y-8.7402
M15
G01X2.0197Y-8.7402
M16
G05
G00X3.4882Y-1.1024
M15
G01X3.5984Y-1.1024
M16
G05
G00X3.4882Y-8.7402
M15
G01X3.5984Y-8.7402
M16
G05
T0
M30
