%TF.GenerationSoftware,KiCad,Pcbnew,6.0.9-8da3e8f707~117~ubuntu22.04.1*%
%TF.CreationDate,2022-12-15T23:13:04+01:00*%
%TF.ProjectId,kosmo-sidechain,6b6f736d-6f2d-4736-9964-65636861696e,v1.0.0*%
%TF.SameCoordinates,Original*%
%TF.FileFunction,Soldermask,Top*%
%TF.FilePolarity,Negative*%
%FSLAX46Y46*%
G04 Gerber Fmt 4.6, Leading zero omitted, Abs format (unit mm)*
G04 Created by KiCad (PCBNEW 6.0.9-8da3e8f707~117~ubuntu22.04.1) date 2022-12-15 23:13:04*
%MOMM*%
%LPD*%
G01*
G04 APERTURE LIST*
G04 Aperture macros list*
%AMRoundRect*
0 Rectangle with rounded corners*
0 $1 Rounding radius*
0 $2 $3 $4 $5 $6 $7 $8 $9 X,Y pos of 4 corners*
0 Add a 4 corners polygon primitive as box body*
4,1,4,$2,$3,$4,$5,$6,$7,$8,$9,$2,$3,0*
0 Add four circle primitives for the rounded corners*
1,1,$1+$1,$2,$3*
1,1,$1+$1,$4,$5*
1,1,$1+$1,$6,$7*
1,1,$1+$1,$8,$9*
0 Add four rect primitives between the rounded corners*
20,1,$1+$1,$2,$3,$4,$5,0*
20,1,$1+$1,$4,$5,$6,$7,0*
20,1,$1+$1,$6,$7,$8,$9,0*
20,1,$1+$1,$8,$9,$2,$3,0*%
G04 Aperture macros list end*
%ADD10C,0.500000*%
%ADD11C,0.250000*%
%ADD12C,0.350000*%
%ADD13C,0.010000*%
%ADD14R,1.600000X1.600000*%
%ADD15C,1.600000*%
%ADD16O,1.600000X1.600000*%
%ADD17C,14.000000*%
%ADD18R,1.600000X2.400000*%
%ADD19O,1.600000X2.400000*%
%ADD20RoundRect,0.287500X0.287500X-0.287500X0.287500X0.287500X-0.287500X0.287500X-0.287500X-0.287500X0*%
%ADD21C,1.150000*%
%ADD22O,6.800000X4.000000*%
%ADD23O,1.000000X2.000000*%
%ADD24C,2.340000*%
%ADD25RoundRect,0.250000X0.600000X0.600000X-0.600000X0.600000X-0.600000X-0.600000X0.600000X-0.600000X0*%
%ADD26C,1.700000*%
G04 APERTURE END LIST*
D10*
X51500000Y-114000000D02*
X58000000Y-113000000D01*
X90500000Y-100000000D02*
X76000000Y-105000000D01*
X60000000Y-120500000D02*
X51500000Y-114000000D01*
X76000000Y-76500000D02*
X86500000Y-82500000D01*
X64500000Y-130000000D02*
X56000000Y-124000000D01*
X86500000Y-82500000D02*
X80000000Y-90000000D01*
X87000000Y-91500000D02*
X82500000Y-95000000D01*
D11*
X70000000Y-31000000D02*
X70000000Y-27000000D01*
D10*
X52500000Y-105500000D02*
X63000000Y-102500000D01*
X82500000Y-95000000D02*
X90500000Y-100000000D01*
D11*
X62500000Y-30000000D02*
X59000000Y-27000000D01*
X77000000Y-30000000D02*
X80500000Y-27000000D01*
D10*
X80000000Y-90000000D02*
X87000000Y-91500000D01*
X58000000Y-113000000D02*
X52500000Y-105500000D01*
X56000000Y-124000000D02*
X60000000Y-120500000D01*
D12*
X64476190Y-90333333D02*
X65428571Y-90333333D01*
X64285714Y-90904761D02*
X64952380Y-88904761D01*
X65619047Y-90904761D01*
X66285714Y-90904761D02*
X66285714Y-88904761D01*
X66952380Y-90333333D01*
X67619047Y-88904761D01*
X67619047Y-90904761D01*
X68952380Y-88904761D02*
X69333333Y-88904761D01*
X69523809Y-89000000D01*
X69714285Y-89190476D01*
X69809523Y-89571428D01*
X69809523Y-90238095D01*
X69714285Y-90619047D01*
X69523809Y-90809523D01*
X69333333Y-90904761D01*
X68952380Y-90904761D01*
X68761904Y-90809523D01*
X68571428Y-90619047D01*
X68476190Y-90238095D01*
X68476190Y-89571428D01*
X68571428Y-89190476D01*
X68761904Y-89000000D01*
X68952380Y-88904761D01*
X70666666Y-88904761D02*
X70666666Y-90523809D01*
X70761904Y-90714285D01*
X70857142Y-90809523D01*
X71047619Y-90904761D01*
X71428571Y-90904761D01*
X71619047Y-90809523D01*
X71714285Y-90714285D01*
X71809523Y-90523809D01*
X71809523Y-88904761D01*
X72761904Y-90904761D02*
X72761904Y-88904761D01*
X73904761Y-90904761D01*
X73904761Y-88904761D01*
X74571428Y-88904761D02*
X75714285Y-88904761D01*
X75142857Y-90904761D02*
X75142857Y-88904761D01*
X67904761Y-120904761D02*
X67904761Y-118904761D01*
X68571428Y-120333333D01*
X69238095Y-118904761D01*
X69238095Y-120904761D01*
X70190476Y-120904761D02*
X70190476Y-118904761D01*
X70952380Y-118904761D02*
X72285714Y-120904761D01*
X72285714Y-118904761D02*
X70952380Y-120904761D01*
X68952380Y-203904761D02*
X68952380Y-201904761D01*
X69904761Y-203904761D02*
X69904761Y-201904761D01*
X71047619Y-203904761D01*
X71047619Y-201904761D01*
X50000000Y-203904761D02*
X50000000Y-201904761D01*
X51142857Y-203904761D02*
X50285714Y-202761904D01*
X51142857Y-201904761D02*
X50000000Y-203047619D01*
X52000000Y-203904761D02*
X52000000Y-201904761D01*
X54095238Y-203714285D02*
X54000000Y-203809523D01*
X53714285Y-203904761D01*
X53523809Y-203904761D01*
X53238095Y-203809523D01*
X53047619Y-203619047D01*
X52952380Y-203428571D01*
X52857142Y-203047619D01*
X52857142Y-202761904D01*
X52952380Y-202380952D01*
X53047619Y-202190476D01*
X53238095Y-202000000D01*
X53523809Y-201904761D01*
X53714285Y-201904761D01*
X54000000Y-202000000D01*
X54095238Y-202095238D01*
X54952380Y-203904761D02*
X54952380Y-201904761D01*
X56095238Y-203904761D02*
X55238095Y-202761904D01*
X56095238Y-201904761D02*
X54952380Y-203047619D01*
X65857142Y-150904761D02*
X65857142Y-148904761D01*
X66333333Y-148904761D01*
X66619047Y-149000000D01*
X66809523Y-149190476D01*
X66904761Y-149380952D01*
X67000000Y-149761904D01*
X67000000Y-150047619D01*
X66904761Y-150428571D01*
X66809523Y-150619047D01*
X66619047Y-150809523D01*
X66333333Y-150904761D01*
X65857142Y-150904761D01*
X67857142Y-149857142D02*
X68523809Y-149857142D01*
X68809523Y-150904761D02*
X67857142Y-150904761D01*
X67857142Y-148904761D01*
X68809523Y-148904761D01*
X70809523Y-150714285D02*
X70714285Y-150809523D01*
X70428571Y-150904761D01*
X70238095Y-150904761D01*
X69952380Y-150809523D01*
X69761904Y-150619047D01*
X69666666Y-150428571D01*
X69571428Y-150047619D01*
X69571428Y-149761904D01*
X69666666Y-149380952D01*
X69761904Y-149190476D01*
X69952380Y-149000000D01*
X70238095Y-148904761D01*
X70428571Y-148904761D01*
X70714285Y-149000000D01*
X70809523Y-149095238D01*
X71571428Y-150333333D02*
X72523809Y-150333333D01*
X71380952Y-150904761D02*
X72047619Y-148904761D01*
X72714285Y-150904761D01*
X73761904Y-149952380D02*
X73761904Y-150904761D01*
X73095238Y-148904761D02*
X73761904Y-149952380D01*
X74428571Y-148904761D01*
X85000000Y-201904761D02*
X85380952Y-201904761D01*
X85571428Y-202000000D01*
X85761904Y-202190476D01*
X85857142Y-202571428D01*
X85857142Y-203238095D01*
X85761904Y-203619047D01*
X85571428Y-203809523D01*
X85380952Y-203904761D01*
X85000000Y-203904761D01*
X84809523Y-203809523D01*
X84619047Y-203619047D01*
X84523809Y-203238095D01*
X84523809Y-202571428D01*
X84619047Y-202190476D01*
X84809523Y-202000000D01*
X85000000Y-201904761D01*
X86714285Y-201904761D02*
X86714285Y-203523809D01*
X86809523Y-203714285D01*
X86904761Y-203809523D01*
X87095238Y-203904761D01*
X87476190Y-203904761D01*
X87666666Y-203809523D01*
X87761904Y-203714285D01*
X87857142Y-203523809D01*
X87857142Y-201904761D01*
X88523809Y-201904761D02*
X89666666Y-201904761D01*
X89095238Y-203904761D02*
X89095238Y-201904761D01*
%TO.C,G\u002A\u002A\u002A*%
G36*
X54107630Y-34014641D02*
G01*
X54984253Y-34009158D01*
X55204374Y-34007982D01*
X55385882Y-34007524D01*
X55532176Y-34007872D01*
X55646658Y-34009113D01*
X55732726Y-34011335D01*
X55793782Y-34014629D01*
X55833226Y-34019080D01*
X55854457Y-34024779D01*
X55860876Y-34031812D01*
X55860877Y-34031911D01*
X55873443Y-34055471D01*
X55908811Y-34107086D01*
X55963488Y-34182042D01*
X56033979Y-34275623D01*
X56116791Y-34383113D01*
X56194593Y-34482316D01*
X56528309Y-34904485D01*
X56456235Y-35247404D01*
X56441180Y-35318892D01*
X56418182Y-35427911D01*
X56387995Y-35570884D01*
X56351377Y-35744235D01*
X56309082Y-35944387D01*
X56261868Y-36167763D01*
X56210489Y-36410787D01*
X56155703Y-36669882D01*
X56098264Y-36941471D01*
X56038930Y-37221977D01*
X55979655Y-37502151D01*
X55575150Y-39413979D01*
X53854266Y-39424941D01*
X53543283Y-39028192D01*
X53453699Y-38914254D01*
X53370587Y-38809209D01*
X53298145Y-38718312D01*
X53240574Y-38646817D01*
X53202071Y-38599980D01*
X53189706Y-38585724D01*
X53147113Y-38540005D01*
X53180008Y-38385025D01*
X53360794Y-38385025D01*
X53380988Y-38387389D01*
X53438316Y-38389243D01*
X53527897Y-38390551D01*
X53644849Y-38391277D01*
X53784290Y-38391388D01*
X53941340Y-38390846D01*
X54058179Y-38390069D01*
X54755565Y-38384533D01*
X55199629Y-36294128D01*
X55643692Y-34203723D01*
X54950725Y-34198183D01*
X54784568Y-34197018D01*
X54632384Y-34196264D01*
X54499120Y-34195921D01*
X54389725Y-34195989D01*
X54309146Y-34196469D01*
X54262333Y-34197360D01*
X54252326Y-34198183D01*
X54247428Y-34218855D01*
X54234528Y-34277301D01*
X54214336Y-34370188D01*
X54187562Y-34494183D01*
X54154915Y-34645956D01*
X54117105Y-34822173D01*
X54074842Y-35019503D01*
X54028835Y-35234614D01*
X53979793Y-35464172D01*
X53928426Y-35704848D01*
X53875443Y-35953307D01*
X53821555Y-36206218D01*
X53767470Y-36460249D01*
X53713899Y-36712068D01*
X53661550Y-36958343D01*
X53611133Y-37195741D01*
X53563358Y-37420931D01*
X53518934Y-37630580D01*
X53478571Y-37821356D01*
X53442978Y-37989927D01*
X53412865Y-38132962D01*
X53388941Y-38247127D01*
X53371917Y-38329090D01*
X53362500Y-38375520D01*
X53360794Y-38385025D01*
X53180008Y-38385025D01*
X53627372Y-36277323D01*
X54107630Y-34014641D01*
G37*
G36*
X61704796Y-38199225D02*
G01*
X61733535Y-38053659D01*
X61768843Y-37879013D01*
X61811097Y-37673388D01*
X61860673Y-37434885D01*
X61917948Y-37161605D01*
X61983298Y-36851648D01*
X62057101Y-36503115D01*
X62081388Y-36388669D01*
X62144469Y-36091525D01*
X62205422Y-35804367D01*
X62263640Y-35530061D01*
X62318513Y-35271475D01*
X62369435Y-35031473D01*
X62415797Y-34812924D01*
X62456990Y-34618693D01*
X62492408Y-34451647D01*
X62521441Y-34314652D01*
X62543483Y-34210575D01*
X62557924Y-34142283D01*
X62563785Y-34114434D01*
X62586767Y-34004136D01*
X64864765Y-34004136D01*
X65234717Y-34004219D01*
X65564678Y-34004485D01*
X65856674Y-34004957D01*
X66112734Y-34005660D01*
X66334884Y-34006616D01*
X66525151Y-34007851D01*
X66685561Y-34009387D01*
X66818142Y-34011248D01*
X66924921Y-34013459D01*
X67007925Y-34016044D01*
X67069180Y-34019025D01*
X67110714Y-34022427D01*
X67134553Y-34026274D01*
X67142725Y-34030590D01*
X67142763Y-34030932D01*
X67155292Y-34054095D01*
X67190568Y-34105408D01*
X67245118Y-34180185D01*
X67315473Y-34273741D01*
X67398162Y-34381388D01*
X67477922Y-34483479D01*
X67568113Y-34599411D01*
X67648442Y-34705292D01*
X67715545Y-34796469D01*
X67766055Y-34868289D01*
X67796606Y-34916099D01*
X67804301Y-34934640D01*
X67798099Y-34960387D01*
X67784303Y-35022512D01*
X67763932Y-35116268D01*
X67738007Y-35236906D01*
X67707549Y-35379681D01*
X67673577Y-35539843D01*
X67637111Y-35712645D01*
X67636492Y-35715584D01*
X67599581Y-35888177D01*
X67564325Y-36047784D01*
X67531844Y-36189726D01*
X67503258Y-36309322D01*
X67479686Y-36401892D01*
X67462247Y-36462756D01*
X67452060Y-36487234D01*
X67451925Y-36487329D01*
X67429022Y-36500693D01*
X67373255Y-36532729D01*
X67288289Y-36581344D01*
X67177790Y-36644447D01*
X67045423Y-36719945D01*
X66894854Y-36805748D01*
X66729747Y-36899763D01*
X66553769Y-36999899D01*
X66548590Y-37002845D01*
X65670794Y-37502151D01*
X66040057Y-37507892D01*
X66158448Y-37510636D01*
X66259931Y-37514723D01*
X66338044Y-37519747D01*
X66386326Y-37525304D01*
X66398987Y-37530351D01*
X66408622Y-37550712D01*
X66441092Y-37599416D01*
X66493080Y-37671920D01*
X66561268Y-37763681D01*
X66642337Y-37870156D01*
X66723690Y-37974963D01*
X66814198Y-38091831D01*
X66895357Y-38199077D01*
X66963715Y-38291937D01*
X67015820Y-38365650D01*
X67048220Y-38415454D01*
X67057691Y-38435713D01*
X67053168Y-38465006D01*
X67041054Y-38529101D01*
X67022610Y-38621723D01*
X66999097Y-38736596D01*
X66971774Y-38867447D01*
X66956149Y-38941274D01*
X66855641Y-39413979D01*
X64595651Y-39419325D01*
X62335660Y-39424671D01*
X62006071Y-39004344D01*
X61915141Y-38889105D01*
X61831669Y-38784692D01*
X61759450Y-38695742D01*
X61702280Y-38626893D01*
X61663953Y-38582782D01*
X61649227Y-38568311D01*
X61646459Y-38557338D01*
X61648000Y-38528680D01*
X61654228Y-38480440D01*
X61665519Y-38410716D01*
X61673037Y-38368878D01*
X61848705Y-38368878D01*
X61856204Y-38373328D01*
X61880167Y-38377234D01*
X61922669Y-38380615D01*
X61985783Y-38383494D01*
X62071582Y-38385889D01*
X62182141Y-38387823D01*
X62319532Y-38389317D01*
X62485830Y-38390390D01*
X62683108Y-38391063D01*
X62913440Y-38391359D01*
X63178899Y-38391296D01*
X63481559Y-38390897D01*
X63823494Y-38390182D01*
X63942513Y-38389887D01*
X66036557Y-38384533D01*
X66105324Y-38058892D01*
X66128911Y-37945927D01*
X66149156Y-37846556D01*
X66164536Y-37768448D01*
X66173528Y-37719273D01*
X66175217Y-37706990D01*
X66167454Y-37701594D01*
X66142010Y-37696941D01*
X66096392Y-37692983D01*
X66028111Y-37689674D01*
X65934675Y-37686967D01*
X65813593Y-37684814D01*
X65662375Y-37683170D01*
X65478530Y-37681986D01*
X65259568Y-37681218D01*
X65002996Y-37680816D01*
X64778287Y-37680728D01*
X63380230Y-37680728D01*
X63394473Y-37604806D01*
X63408892Y-37535237D01*
X63427461Y-37454439D01*
X63433093Y-37431481D01*
X63457471Y-37334078D01*
X65052489Y-36420182D01*
X66647508Y-35506287D01*
X66923894Y-34203723D01*
X64834478Y-34198368D01*
X64541857Y-34197709D01*
X64261235Y-34197252D01*
X63995449Y-34196992D01*
X63747337Y-34196925D01*
X63519734Y-34197046D01*
X63315479Y-34197348D01*
X63137407Y-34197828D01*
X62988356Y-34198480D01*
X62871162Y-34199299D01*
X62788663Y-34200280D01*
X62743696Y-34201417D01*
X62735927Y-34202149D01*
X62730431Y-34223427D01*
X62716975Y-34282472D01*
X62696272Y-34375936D01*
X62669036Y-34500472D01*
X62635978Y-34652734D01*
X62597811Y-34829374D01*
X62555249Y-35027045D01*
X62509004Y-35242401D01*
X62459788Y-35472093D01*
X62408314Y-35712776D01*
X62355295Y-35961101D01*
X62301443Y-36213722D01*
X62247472Y-36467292D01*
X62194094Y-36718464D01*
X62142021Y-36963891D01*
X62091967Y-37200225D01*
X62044643Y-37424119D01*
X62000764Y-37632227D01*
X61961040Y-37821202D01*
X61926186Y-37987696D01*
X61896914Y-38128362D01*
X61873936Y-38239854D01*
X61857965Y-38318823D01*
X61849714Y-38361924D01*
X61848705Y-38368878D01*
X61673037Y-38368878D01*
X61682249Y-38317611D01*
X61704796Y-38199225D01*
G37*
G36*
X64841396Y-34886891D02*
G01*
X64994402Y-34887948D01*
X65128351Y-34889602D01*
X65238384Y-34891761D01*
X65319642Y-34894336D01*
X65367265Y-34897239D01*
X65377998Y-34899496D01*
X65373886Y-34924818D01*
X65362763Y-34982481D01*
X65346446Y-35063746D01*
X65326756Y-35159873D01*
X65305509Y-35262125D01*
X65284526Y-35361761D01*
X65265624Y-35450043D01*
X65250623Y-35518231D01*
X65241340Y-35557588D01*
X65240194Y-35561681D01*
X65221132Y-35576802D01*
X65170048Y-35610205D01*
X65091374Y-35659276D01*
X64989544Y-35721404D01*
X64868990Y-35793978D01*
X64734147Y-35874386D01*
X64589448Y-35960017D01*
X64439325Y-36048257D01*
X64288213Y-36136497D01*
X64140543Y-36222125D01*
X64000750Y-36302527D01*
X63873267Y-36375094D01*
X63762527Y-36437213D01*
X63672964Y-36486273D01*
X63649158Y-36498968D01*
X63640550Y-36488876D01*
X63643841Y-36458709D01*
X63651707Y-36422693D01*
X63666515Y-36353187D01*
X63687120Y-36255673D01*
X63712377Y-36135637D01*
X63741140Y-35998563D01*
X63772265Y-35849935D01*
X63804606Y-35695240D01*
X63837019Y-35539960D01*
X63868357Y-35389580D01*
X63897475Y-35249585D01*
X63923230Y-35125460D01*
X63944475Y-35022690D01*
X63960065Y-34946757D01*
X63968855Y-34903149D01*
X63970389Y-34894772D01*
X63990588Y-34892811D01*
X64047945Y-34891017D01*
X64137602Y-34889446D01*
X64254697Y-34888156D01*
X64394372Y-34887203D01*
X64551768Y-34886644D01*
X64674193Y-34886518D01*
X64841396Y-34886891D01*
G37*
G36*
X81694357Y-36114160D02*
G01*
X81684449Y-36171351D01*
X81668028Y-36258717D01*
X81646214Y-36370800D01*
X81620128Y-36502138D01*
X81590891Y-36647272D01*
X81559624Y-36800742D01*
X81527446Y-36957087D01*
X81495479Y-37110849D01*
X81464843Y-37256566D01*
X81436659Y-37388778D01*
X81412048Y-37502026D01*
X81392130Y-37590849D01*
X81378026Y-37649788D01*
X81373913Y-37664971D01*
X81368428Y-37675038D01*
X81355694Y-37683089D01*
X81331453Y-37689346D01*
X81291444Y-37694033D01*
X81231407Y-37697374D01*
X81147082Y-37699591D01*
X81034208Y-37700908D01*
X80888527Y-37701548D01*
X80705776Y-37701735D01*
X80672446Y-37701737D01*
X80506387Y-37701275D01*
X80354141Y-37699965D01*
X80220700Y-37697917D01*
X80111051Y-37695246D01*
X80030186Y-37692062D01*
X79983093Y-37688479D01*
X79972952Y-37685981D01*
X79973276Y-37658834D01*
X79982205Y-37599431D01*
X79997838Y-37516203D01*
X80018278Y-37417576D01*
X80041624Y-37311981D01*
X80065978Y-37207847D01*
X80089441Y-37113601D01*
X80110114Y-37037674D01*
X80126096Y-36988493D01*
X80133203Y-36974732D01*
X80159185Y-36956920D01*
X80216121Y-36922071D01*
X80299427Y-36872773D01*
X80404515Y-36811614D01*
X80526802Y-36741181D01*
X80661701Y-36664060D01*
X80804626Y-36582841D01*
X80950992Y-36500109D01*
X81096214Y-36418452D01*
X81235706Y-36340457D01*
X81364882Y-36268713D01*
X81479157Y-36205805D01*
X81573944Y-36154321D01*
X81644660Y-36116850D01*
X81686717Y-36095977D01*
X81696631Y-36092606D01*
X81694357Y-36114160D01*
G37*
G36*
X57769145Y-37368704D02*
G01*
X57799121Y-37224513D01*
X57833307Y-37060976D01*
X57870804Y-36882446D01*
X57890954Y-36786827D01*
X58072889Y-35924440D01*
X58871363Y-35468162D01*
X59038200Y-35373006D01*
X59193419Y-35284823D01*
X59333308Y-35205699D01*
X59454152Y-35137717D01*
X59552239Y-35082962D01*
X59623854Y-35043517D01*
X59665286Y-35021468D01*
X59674330Y-35017481D01*
X59670915Y-35038476D01*
X59659456Y-35096772D01*
X59640741Y-35188592D01*
X59615559Y-35310157D01*
X59584698Y-35457689D01*
X59548947Y-35627411D01*
X59509094Y-35815544D01*
X59465929Y-36018311D01*
X59442911Y-36126055D01*
X59396379Y-36343674D01*
X59351070Y-36555692D01*
X59308019Y-36757259D01*
X59268260Y-36943527D01*
X59232828Y-37109645D01*
X59202758Y-37250763D01*
X59179084Y-37362034D01*
X59162842Y-37438606D01*
X59159405Y-37454881D01*
X59111810Y-37680728D01*
X58410744Y-37680728D01*
X58243861Y-37680274D01*
X58091170Y-37678985D01*
X57957541Y-37676971D01*
X57847846Y-37674340D01*
X57766959Y-37671203D01*
X57719750Y-37667668D01*
X57709349Y-37664971D01*
X57713482Y-37641683D01*
X57725426Y-37581641D01*
X57743812Y-37491492D01*
X58781141Y-37491492D01*
X58799919Y-37504113D01*
X58847428Y-37511684D01*
X58875682Y-37512656D01*
X58932077Y-37509522D01*
X58965895Y-37501593D01*
X58970223Y-37496885D01*
X58974419Y-37472043D01*
X58986036Y-37413258D01*
X59003614Y-37327655D01*
X59025696Y-37222360D01*
X59043974Y-37136448D01*
X59067944Y-37022014D01*
X59087754Y-36922742D01*
X59102108Y-36845533D01*
X59109709Y-36797284D01*
X59110196Y-36784253D01*
X59089843Y-36789434D01*
X59046842Y-36809531D01*
X58994307Y-36837400D01*
X58945352Y-36865898D01*
X58913091Y-36887879D01*
X58907196Y-36894838D01*
X58902880Y-36917454D01*
X58891038Y-36973378D01*
X58873331Y-37054915D01*
X58851418Y-37154371D01*
X58844169Y-37187015D01*
X58821206Y-37291697D01*
X58801986Y-37382101D01*
X58788193Y-37450095D01*
X58781510Y-37487549D01*
X58781141Y-37491492D01*
X57743812Y-37491492D01*
X57744280Y-37489197D01*
X57769145Y-37368704D01*
G37*
G36*
X84393460Y-36089650D02*
G01*
X84454409Y-35802633D01*
X84512619Y-35528468D01*
X84567482Y-35270025D01*
X84618389Y-35030171D01*
X84664733Y-34811773D01*
X84705903Y-34617701D01*
X84741293Y-34450821D01*
X84770293Y-34314003D01*
X84792295Y-34210112D01*
X84806690Y-34142019D01*
X84812489Y-34114434D01*
X84835402Y-34004136D01*
X85717535Y-34004136D01*
X85956294Y-34004618D01*
X86158234Y-34006051D01*
X86322442Y-34008411D01*
X86448005Y-34011679D01*
X86534011Y-34015831D01*
X86579548Y-34020847D01*
X86586901Y-34024792D01*
X86595837Y-34046330D01*
X86627772Y-34095758D01*
X86679262Y-34168312D01*
X86746862Y-34259228D01*
X86827128Y-34363741D01*
X86886851Y-34439722D01*
X86976085Y-34552594D01*
X87057632Y-34656436D01*
X87127489Y-34746094D01*
X87181655Y-34816418D01*
X87216128Y-34862254D01*
X87225888Y-34876168D01*
X87229073Y-34887721D01*
X87229460Y-34909601D01*
X87226620Y-34943989D01*
X87220126Y-34993069D01*
X87209550Y-35059021D01*
X87194463Y-35144028D01*
X87174439Y-35250272D01*
X87149049Y-35379935D01*
X87117865Y-35535199D01*
X87080460Y-35718245D01*
X87036405Y-35931256D01*
X86985273Y-36176414D01*
X86926635Y-36455901D01*
X86860065Y-36771899D01*
X86785133Y-37126589D01*
X86777635Y-37162042D01*
X86714162Y-37462217D01*
X86653180Y-37750771D01*
X86595248Y-38025057D01*
X86540924Y-38282427D01*
X86490765Y-38520231D01*
X86445329Y-38735822D01*
X86405174Y-38926551D01*
X86370858Y-39089769D01*
X86342938Y-39222830D01*
X86321973Y-39323083D01*
X86308521Y-39387881D01*
X86303138Y-39414575D01*
X86303060Y-39415114D01*
X86282784Y-39417135D01*
X86224887Y-39419006D01*
X86133765Y-39420680D01*
X86013815Y-39422108D01*
X85869435Y-39423243D01*
X85705021Y-39424037D01*
X85524969Y-39424441D01*
X85443300Y-39424483D01*
X84583540Y-39424483D01*
X84274566Y-39030563D01*
X84185023Y-38917066D01*
X84101613Y-38812590D01*
X84028615Y-38722396D01*
X83970311Y-38651746D01*
X83930978Y-38605902D01*
X83918389Y-38592608D01*
X83871187Y-38548574D01*
X83911607Y-38358272D01*
X84097333Y-38358272D01*
X84099614Y-38368309D01*
X84109382Y-38376340D01*
X84130822Y-38382587D01*
X84168120Y-38387272D01*
X84225459Y-38390617D01*
X84307023Y-38392843D01*
X84416998Y-38394173D01*
X84559567Y-38394828D01*
X84738915Y-38395032D01*
X84790405Y-38395038D01*
X84956308Y-38394742D01*
X85107978Y-38393902D01*
X85240518Y-38392590D01*
X85349031Y-38390877D01*
X85428623Y-38388836D01*
X85474395Y-38386537D01*
X85483705Y-38384878D01*
X85487980Y-38363341D01*
X85500409Y-38303491D01*
X85520406Y-38208112D01*
X85547381Y-38079987D01*
X85580744Y-37921902D01*
X85619908Y-37736640D01*
X85664284Y-37526987D01*
X85713282Y-37295726D01*
X85766314Y-37045642D01*
X85822791Y-36779520D01*
X85882124Y-36500143D01*
X85915783Y-36341743D01*
X85976711Y-36055041D01*
X86035317Y-35779222D01*
X86090989Y-35517158D01*
X86143119Y-35271722D01*
X86191096Y-35045785D01*
X86234311Y-34842221D01*
X86272154Y-34663901D01*
X86304016Y-34513698D01*
X86329286Y-34394485D01*
X86347355Y-34309133D01*
X86357613Y-34260515D01*
X86359657Y-34250706D01*
X86371454Y-34192645D01*
X85672215Y-34198184D01*
X84972975Y-34203723D01*
X84535268Y-36262614D01*
X84474121Y-36550591D01*
X84415506Y-36827322D01*
X84360011Y-37089995D01*
X84308225Y-37335795D01*
X84260736Y-37561908D01*
X84218130Y-37765522D01*
X84180998Y-37943822D01*
X84149926Y-38093994D01*
X84125502Y-38213225D01*
X84108314Y-38298701D01*
X84098951Y-38347608D01*
X84097333Y-38358272D01*
X83911607Y-38358272D01*
X84330381Y-36386653D01*
X84393460Y-36089650D01*
G37*
G36*
X72712920Y-38136878D02*
G01*
X72751439Y-37943916D01*
X72798077Y-37714149D01*
X72852960Y-37446960D01*
X72916212Y-37141735D01*
X72987958Y-36797858D01*
X73068323Y-36414715D01*
X73157432Y-35991689D01*
X73244616Y-35579161D01*
X73875817Y-32596527D01*
X74753128Y-32596527D01*
X74990174Y-32596917D01*
X75186984Y-32598120D01*
X75345331Y-32600182D01*
X75466989Y-32603149D01*
X75553732Y-32607068D01*
X75607335Y-32611986D01*
X75629572Y-32617949D01*
X75630438Y-32619562D01*
X75642948Y-32641695D01*
X75678165Y-32692053D01*
X75732624Y-32765990D01*
X75802858Y-32858861D01*
X75885399Y-32966021D01*
X75964777Y-33067579D01*
X76299115Y-33492559D01*
X76178147Y-34065588D01*
X76057179Y-34638616D01*
X76154973Y-34715297D01*
X76192339Y-34744097D01*
X76259253Y-34795141D01*
X76351704Y-34865388D01*
X76465680Y-34951798D01*
X76597168Y-35051330D01*
X76742156Y-35160945D01*
X76896634Y-35277604D01*
X76990886Y-35348718D01*
X77144931Y-35465471D01*
X77288133Y-35575091D01*
X77417082Y-35674887D01*
X77528367Y-35762169D01*
X77618576Y-35834247D01*
X77684299Y-35888431D01*
X77722125Y-35922029D01*
X77730177Y-35931816D01*
X77743070Y-35954826D01*
X77778760Y-36005940D01*
X77833753Y-36080486D01*
X77904555Y-36173792D01*
X77987669Y-36281187D01*
X78067854Y-36383178D01*
X78158375Y-36498670D01*
X78239078Y-36603876D01*
X78306580Y-36694204D01*
X78357502Y-36765060D01*
X78388461Y-36811853D01*
X78396490Y-36829526D01*
X78390885Y-36853333D01*
X78377406Y-36914704D01*
X78356811Y-37010084D01*
X78329858Y-37135914D01*
X78297304Y-37288638D01*
X78259908Y-37464700D01*
X78218428Y-37660541D01*
X78173621Y-37872605D01*
X78126245Y-38097336D01*
X78117760Y-38137639D01*
X77846898Y-39424409D01*
X76985525Y-39423714D01*
X76124152Y-39423020D01*
X75819520Y-39032567D01*
X75730620Y-38919018D01*
X75647835Y-38814018D01*
X75575478Y-38722982D01*
X75517863Y-38651324D01*
X75479306Y-38604456D01*
X75467745Y-38591163D01*
X75420602Y-38540211D01*
X75651575Y-37447129D01*
X75695596Y-37238121D01*
X75736855Y-37040914D01*
X75774548Y-36859443D01*
X75807870Y-36697644D01*
X75836018Y-36559453D01*
X75858186Y-36448804D01*
X75873570Y-36369635D01*
X75881366Y-36325881D01*
X75882184Y-36318835D01*
X75867544Y-36288039D01*
X75832567Y-36251927D01*
X75789897Y-36220203D01*
X75752180Y-36202573D01*
X75734056Y-36205153D01*
X75727681Y-36227699D01*
X75713388Y-36288175D01*
X75691872Y-36383382D01*
X75663827Y-36510124D01*
X75629949Y-36665204D01*
X75590931Y-36845424D01*
X75547469Y-37047587D01*
X75500258Y-37268496D01*
X75449991Y-37504954D01*
X75397364Y-37753764D01*
X75390612Y-37785774D01*
X75337700Y-38036532D01*
X75287137Y-38275822D01*
X75239613Y-38500389D01*
X75195823Y-38706980D01*
X75156457Y-38892341D01*
X75122207Y-39053217D01*
X75093765Y-39186354D01*
X75071824Y-39288499D01*
X75057075Y-39356397D01*
X75050210Y-39386794D01*
X75049964Y-39387718D01*
X75045021Y-39396856D01*
X75033428Y-39404348D01*
X75011362Y-39410355D01*
X74975002Y-39415040D01*
X74920528Y-39418566D01*
X74844117Y-39421093D01*
X74741948Y-39422786D01*
X74610200Y-39423807D01*
X74445052Y-39424316D01*
X74242682Y-39424478D01*
X74184642Y-39424483D01*
X73329933Y-39424483D01*
X72996013Y-39002479D01*
X72904472Y-38887597D01*
X72820613Y-38783887D01*
X72748187Y-38695865D01*
X72690946Y-38628050D01*
X72652642Y-38584958D01*
X72637754Y-38571135D01*
X72637546Y-38552973D01*
X72644834Y-38501082D01*
X72659742Y-38414846D01*
X72665623Y-38383386D01*
X72836228Y-38383386D01*
X72856420Y-38386177D01*
X72913729Y-38388728D01*
X73003253Y-38390957D01*
X73120091Y-38392781D01*
X73259342Y-38394117D01*
X73416105Y-38394884D01*
X73528113Y-38395038D01*
X73717439Y-38394904D01*
X73869003Y-38394354D01*
X73987058Y-38393166D01*
X74075861Y-38391116D01*
X74139665Y-38387983D01*
X74182726Y-38383542D01*
X74209299Y-38377573D01*
X74223637Y-38369851D01*
X74229998Y-38360154D01*
X74230598Y-38358272D01*
X74236521Y-38332402D01*
X74250470Y-38268590D01*
X74271768Y-38169997D01*
X74299740Y-38039790D01*
X74333709Y-37881130D01*
X74372999Y-37697184D01*
X74416933Y-37491113D01*
X74464836Y-37266082D01*
X74516032Y-37025255D01*
X74569843Y-36771796D01*
X74590950Y-36672292D01*
X74645399Y-36415767D01*
X74697370Y-36171344D01*
X74746203Y-35942108D01*
X74791236Y-35731143D01*
X74831808Y-35541533D01*
X74867258Y-35376363D01*
X74896924Y-35238717D01*
X74920144Y-35131679D01*
X74936258Y-35058335D01*
X74944605Y-35021767D01*
X74945623Y-35018125D01*
X74962860Y-35029229D01*
X75009713Y-35063016D01*
X75082403Y-35116668D01*
X75177150Y-35187364D01*
X75290178Y-35272288D01*
X75417706Y-35368619D01*
X75547853Y-35467376D01*
X75710238Y-35591316D01*
X75841635Y-35692772D01*
X75944905Y-35774154D01*
X76022907Y-35837874D01*
X76078503Y-35886343D01*
X76114552Y-35921974D01*
X76133915Y-35947177D01*
X76139451Y-35964364D01*
X76139317Y-35966042D01*
X76134119Y-35993424D01*
X76121154Y-36057369D01*
X76101380Y-36153334D01*
X76075753Y-36276778D01*
X76045228Y-36423161D01*
X76010763Y-36587941D01*
X75973313Y-36766578D01*
X75933835Y-36954529D01*
X75893285Y-37147254D01*
X75852618Y-37340212D01*
X75812792Y-37528862D01*
X75774762Y-37708662D01*
X75739485Y-37875071D01*
X75707917Y-38023548D01*
X75681013Y-38149552D01*
X75659731Y-38248542D01*
X75645027Y-38315977D01*
X75638115Y-38346301D01*
X75625883Y-38395038D01*
X76322120Y-38395038D01*
X76521526Y-38394684D01*
X76682318Y-38393537D01*
X76807898Y-38391472D01*
X76901665Y-38388361D01*
X76967018Y-38384079D01*
X77007359Y-38378498D01*
X77026087Y-38371492D01*
X77028130Y-38368776D01*
X77035274Y-38340807D01*
X77049865Y-38276597D01*
X77070954Y-38180684D01*
X77097587Y-38057606D01*
X77128815Y-37911899D01*
X77163686Y-37748101D01*
X77201249Y-37570748D01*
X77240552Y-37384379D01*
X77280643Y-37193531D01*
X77320573Y-37002739D01*
X77359389Y-36816543D01*
X77396141Y-36639479D01*
X77429876Y-36476083D01*
X77459644Y-36330895D01*
X77484494Y-36208449D01*
X77503473Y-36113285D01*
X77515632Y-36049939D01*
X77520018Y-36022948D01*
X77520018Y-36022664D01*
X77503403Y-36004692D01*
X77455689Y-35963558D01*
X77379431Y-35901258D01*
X77277183Y-35819790D01*
X77151501Y-35721150D01*
X77004938Y-35607335D01*
X76840050Y-35480341D01*
X76659390Y-35342167D01*
X76465515Y-35194807D01*
X76322499Y-35086651D01*
X76125335Y-34937534D01*
X75938305Y-34795470D01*
X75764076Y-34662523D01*
X75605314Y-34540756D01*
X75464686Y-34432233D01*
X75344858Y-34339018D01*
X75248496Y-34263174D01*
X75178267Y-34206765D01*
X75136837Y-34171854D01*
X75126220Y-34160778D01*
X75130424Y-34135232D01*
X75142335Y-34073732D01*
X75160905Y-33981422D01*
X75185083Y-33863444D01*
X75213820Y-33724940D01*
X75246065Y-33571052D01*
X75262779Y-33491821D01*
X75296395Y-33331886D01*
X75327007Y-33184456D01*
X75353561Y-33054746D01*
X75375004Y-32947973D01*
X75390282Y-32869351D01*
X75398343Y-32824096D01*
X75399338Y-32815750D01*
X75394106Y-32807384D01*
X75375764Y-32800678D01*
X75340349Y-32795460D01*
X75283893Y-32791557D01*
X75202433Y-32788795D01*
X75092002Y-32787001D01*
X74948634Y-32786002D01*
X74768365Y-32785626D01*
X74708664Y-32785608D01*
X74017990Y-32785608D01*
X74006405Y-32843383D01*
X74000709Y-32870656D01*
X73986823Y-32936582D01*
X73965267Y-33038709D01*
X73936560Y-33174583D01*
X73901221Y-33341751D01*
X73859768Y-33537761D01*
X73812721Y-33760160D01*
X73760599Y-34006495D01*
X73703920Y-34274313D01*
X73643203Y-34561161D01*
X73578967Y-34864586D01*
X73511732Y-35182137D01*
X73442016Y-35511358D01*
X73415525Y-35636446D01*
X73345234Y-35968427D01*
X73277385Y-36289041D01*
X73212485Y-36595891D01*
X73151038Y-36886576D01*
X73093551Y-37158699D01*
X73040530Y-37409861D01*
X72992481Y-37637662D01*
X72949908Y-37839706D01*
X72913319Y-38013591D01*
X72883219Y-38156921D01*
X72860114Y-38267297D01*
X72844510Y-38342319D01*
X72836912Y-38379589D01*
X72836228Y-38383386D01*
X72665623Y-38383386D01*
X72682396Y-38293650D01*
X72712920Y-38136878D01*
G37*
G36*
X87701801Y-34014641D02*
G01*
X88522887Y-34009147D01*
X89343974Y-34003653D01*
X90595366Y-34954556D01*
X90797158Y-35108217D01*
X90989102Y-35255010D01*
X91168578Y-35392890D01*
X91332962Y-35519813D01*
X91479633Y-35633736D01*
X91605969Y-35732614D01*
X91709348Y-35814404D01*
X91787148Y-35877060D01*
X91836746Y-35918541D01*
X91855521Y-35936800D01*
X91855583Y-35936973D01*
X91870588Y-35961556D01*
X91908167Y-36014170D01*
X91964692Y-36089997D01*
X92036533Y-36184221D01*
X92120063Y-36292024D01*
X92193080Y-36385078D01*
X92282571Y-36498745D01*
X92362789Y-36601089D01*
X92430257Y-36687638D01*
X92481498Y-36753917D01*
X92513034Y-36795453D01*
X92521753Y-36807937D01*
X92517524Y-36829040D01*
X92505336Y-36887694D01*
X92485936Y-36980342D01*
X92460075Y-37103428D01*
X92428501Y-37253397D01*
X92391962Y-37426693D01*
X92351206Y-37619761D01*
X92306984Y-37829043D01*
X92260043Y-38050985D01*
X92257803Y-38061569D01*
X92210350Y-38285853D01*
X92165251Y-38499076D01*
X92123298Y-38697487D01*
X92085285Y-38877330D01*
X92052004Y-39034852D01*
X92024249Y-39166299D01*
X92002813Y-39267919D01*
X91988489Y-39335956D01*
X91982069Y-39366658D01*
X91982059Y-39366708D01*
X91970265Y-39424483D01*
X90255997Y-39424483D01*
X89944798Y-39030563D01*
X89854815Y-38917129D01*
X89771150Y-38812539D01*
X89698070Y-38722057D01*
X89639844Y-38650948D01*
X89600737Y-38604478D01*
X89588248Y-38590635D01*
X89542898Y-38544628D01*
X89771022Y-37466648D01*
X89815054Y-37258717D01*
X89856699Y-37062316D01*
X89895104Y-36881456D01*
X89929414Y-36720146D01*
X89958775Y-36582397D01*
X89982333Y-36472220D01*
X89999233Y-36393626D01*
X90008622Y-36350624D01*
X90010034Y-36344487D01*
X90007364Y-36307847D01*
X89975741Y-36270074D01*
X89943638Y-36245318D01*
X89895814Y-36214184D01*
X89863901Y-36198797D01*
X89857862Y-36198825D01*
X89852267Y-36220224D01*
X89838669Y-36279597D01*
X89817746Y-36373805D01*
X89790177Y-36499710D01*
X89756641Y-36654174D01*
X89717816Y-36834059D01*
X89674381Y-37036226D01*
X89627015Y-37257538D01*
X89576395Y-37494857D01*
X89523202Y-37745045D01*
X89509281Y-37810649D01*
X89169194Y-39413979D01*
X88308625Y-39418429D01*
X87448056Y-39422878D01*
X87145513Y-39034667D01*
X87056706Y-38921146D01*
X86973773Y-38815943D01*
X86901099Y-38724555D01*
X86843067Y-38652481D01*
X86804062Y-38605219D01*
X86792614Y-38592121D01*
X86742259Y-38537786D01*
X86778052Y-38369062D01*
X86958865Y-38369062D01*
X86964104Y-38376454D01*
X86987880Y-38382251D01*
X87033694Y-38386561D01*
X87105048Y-38389490D01*
X87205445Y-38391143D01*
X87338387Y-38391629D01*
X87507374Y-38391054D01*
X87649559Y-38390072D01*
X88349491Y-38384533D01*
X88542006Y-37481142D01*
X88590846Y-37251895D01*
X88644249Y-37001119D01*
X88699971Y-36739367D01*
X88755763Y-36477191D01*
X88809383Y-36225146D01*
X88858582Y-35993783D01*
X88898564Y-35805666D01*
X88935908Y-35632017D01*
X88971184Y-35472007D01*
X89003336Y-35330130D01*
X89031307Y-35210882D01*
X89054039Y-35118759D01*
X89070475Y-35058256D01*
X89079560Y-35033868D01*
X89080098Y-35033582D01*
X89101134Y-35045796D01*
X89150543Y-35080096D01*
X89223696Y-35132969D01*
X89315961Y-35200900D01*
X89422707Y-35280377D01*
X89539303Y-35367886D01*
X89661118Y-35459913D01*
X89783522Y-35552945D01*
X89901882Y-35643467D01*
X90011569Y-35727968D01*
X90107951Y-35802932D01*
X90186397Y-35864847D01*
X90242276Y-35910199D01*
X90270957Y-35935474D01*
X90273780Y-35939230D01*
X90269542Y-35962216D01*
X90257342Y-36022622D01*
X90237948Y-36116765D01*
X90212131Y-36240966D01*
X90180658Y-36391541D01*
X90144299Y-36564810D01*
X90103824Y-36757091D01*
X90060001Y-36964703D01*
X90021671Y-37145867D01*
X89975603Y-37363871D01*
X89932252Y-37569978D01*
X89892389Y-37760454D01*
X89856788Y-37931566D01*
X89826218Y-38079577D01*
X89801454Y-38200754D01*
X89783266Y-38291362D01*
X89772426Y-38347666D01*
X89769562Y-38365613D01*
X89775286Y-38373793D01*
X89795059Y-38380356D01*
X89832780Y-38385467D01*
X89892352Y-38389291D01*
X89977672Y-38391994D01*
X90092643Y-38393741D01*
X90241164Y-38394698D01*
X90427136Y-38395031D01*
X90462862Y-38395038D01*
X90628765Y-38394624D01*
X90780434Y-38393451D01*
X90912974Y-38391618D01*
X91021487Y-38389226D01*
X91101078Y-38386375D01*
X91146851Y-38383164D01*
X91156162Y-38380846D01*
X91160392Y-38358217D01*
X91172561Y-38298229D01*
X91191886Y-38204628D01*
X91217585Y-38081158D01*
X91248874Y-37931564D01*
X91284971Y-37759591D01*
X91325093Y-37568983D01*
X91368458Y-37363485D01*
X91398776Y-37220094D01*
X91444028Y-37005986D01*
X91486686Y-36803662D01*
X91525950Y-36616955D01*
X91561017Y-36449698D01*
X91591087Y-36305724D01*
X91615359Y-36188865D01*
X91633032Y-36102954D01*
X91643304Y-36051824D01*
X91645633Y-36039061D01*
X91630241Y-36019026D01*
X91581960Y-35975153D01*
X91500644Y-35907326D01*
X91386147Y-35815429D01*
X91238323Y-35699346D01*
X91057024Y-35558963D01*
X90842105Y-35394164D01*
X90593419Y-35204833D01*
X90453687Y-35098903D01*
X89257499Y-34193218D01*
X87847202Y-34193218D01*
X87407653Y-36267866D01*
X87346411Y-36556756D01*
X87287523Y-36834226D01*
X87231581Y-37097490D01*
X87179183Y-37343762D01*
X87130921Y-37570256D01*
X87087393Y-37774187D01*
X87049193Y-37952767D01*
X87016915Y-38103211D01*
X86991155Y-38222734D01*
X86972508Y-38308548D01*
X86961569Y-38357869D01*
X86958865Y-38369062D01*
X86778052Y-38369062D01*
X87222030Y-36276214D01*
X87701801Y-34014641D01*
G37*
G36*
X47642307Y-37921702D02*
G01*
X47668618Y-37796918D01*
X47691213Y-37690898D01*
X47708732Y-37609999D01*
X47719816Y-37560579D01*
X47722588Y-37549421D01*
X47728182Y-37539036D01*
X47741249Y-37530802D01*
X47766201Y-37524470D01*
X47807448Y-37519793D01*
X47869401Y-37516521D01*
X47956471Y-37514406D01*
X48073068Y-37513201D01*
X48223605Y-37512657D01*
X48377801Y-37512529D01*
X49022415Y-37512402D01*
X49505336Y-37239411D01*
X49988257Y-36966419D01*
X48745534Y-36966419D01*
X48422808Y-36554978D01*
X48332324Y-36440381D01*
X48248837Y-36336081D01*
X48176301Y-36246902D01*
X48118668Y-36177669D01*
X48079891Y-36133205D01*
X48065595Y-36119039D01*
X48057422Y-36109902D01*
X48052643Y-36093625D01*
X48051896Y-36066333D01*
X48055823Y-36024150D01*
X48065064Y-35963200D01*
X48080259Y-35879609D01*
X48102049Y-35769500D01*
X48131072Y-35628999D01*
X48167971Y-35454228D01*
X48201121Y-35298692D01*
X48371133Y-34502843D01*
X51690571Y-32596543D01*
X52511676Y-32596535D01*
X52727523Y-32596801D01*
X52904575Y-32597675D01*
X53046049Y-32599259D01*
X53155167Y-32601658D01*
X53235148Y-32604975D01*
X53289211Y-32609314D01*
X53320574Y-32614778D01*
X53332459Y-32621471D01*
X53332782Y-32622982D01*
X53345277Y-32646201D01*
X53380405Y-32697499D01*
X53434631Y-32772077D01*
X53504420Y-32865140D01*
X53586237Y-32971890D01*
X53654050Y-33058920D01*
X53743041Y-33172815D01*
X53823308Y-33276435D01*
X53891206Y-33365007D01*
X53943094Y-33433752D01*
X53975327Y-33477896D01*
X53984420Y-33492008D01*
X53982376Y-33516827D01*
X53972978Y-33575677D01*
X53957632Y-33661495D01*
X53937745Y-33767217D01*
X53914722Y-33885781D01*
X53889971Y-34010121D01*
X53864898Y-34133176D01*
X53840908Y-34247880D01*
X53819407Y-34347172D01*
X53801803Y-34423987D01*
X53789501Y-34471261D01*
X53789401Y-34471589D01*
X53783636Y-34481933D01*
X53770446Y-34490142D01*
X53745437Y-34496461D01*
X53704213Y-34501133D01*
X53642378Y-34504404D01*
X53555538Y-34506517D01*
X53439295Y-34507717D01*
X53289256Y-34508247D01*
X53127766Y-34508354D01*
X52477388Y-34508354D01*
X51527656Y-35044086D01*
X52171107Y-35049642D01*
X52356295Y-35051513D01*
X52503493Y-35053723D01*
X52616728Y-35056490D01*
X52700026Y-35060036D01*
X52757416Y-35064580D01*
X52792924Y-35070342D01*
X52810578Y-35077540D01*
X52814557Y-35084747D01*
X52827099Y-35108773D01*
X52862370Y-35160801D01*
X52916842Y-35236030D01*
X52986984Y-35329659D01*
X53069267Y-35436888D01*
X53140198Y-35527631D01*
X53229496Y-35641889D01*
X53309475Y-35745973D01*
X53376611Y-35835154D01*
X53427379Y-35904698D01*
X53458252Y-35949875D01*
X53466258Y-35965232D01*
X53462177Y-35990661D01*
X53450373Y-36052512D01*
X53431796Y-36146093D01*
X53407394Y-36266712D01*
X53378118Y-36409679D01*
X53344918Y-36570300D01*
X53308742Y-36743886D01*
X53305726Y-36758296D01*
X53144776Y-37527096D01*
X51488378Y-38475790D01*
X49831980Y-39424483D01*
X49028025Y-39424058D01*
X48224069Y-39423632D01*
X47869680Y-38977615D01*
X47515291Y-38531597D01*
X47545912Y-38384421D01*
X47730356Y-38384421D01*
X47750547Y-38386965D01*
X47807853Y-38389291D01*
X47897368Y-38391323D01*
X48014188Y-38392985D01*
X48153409Y-38394202D01*
X48310128Y-38394899D01*
X48421419Y-38395038D01*
X49112483Y-38395038D01*
X50695654Y-37488764D01*
X50932900Y-37352900D01*
X51159726Y-37222899D01*
X51373475Y-37100289D01*
X51571492Y-36986598D01*
X51751124Y-36883352D01*
X51909714Y-36792081D01*
X52044607Y-36714312D01*
X52153149Y-36651573D01*
X52232685Y-36605391D01*
X52280558Y-36577295D01*
X52294312Y-36568836D01*
X52301330Y-36546753D01*
X52315747Y-36489591D01*
X52336233Y-36403372D01*
X52361458Y-36294120D01*
X52390093Y-36167856D01*
X52420810Y-36030604D01*
X52452277Y-35888387D01*
X52483167Y-35747226D01*
X52512150Y-35613145D01*
X52537895Y-35492166D01*
X52559075Y-35390313D01*
X52574359Y-35313606D01*
X52582419Y-35268071D01*
X52583334Y-35259430D01*
X52562924Y-35256734D01*
X52503959Y-35254184D01*
X52409903Y-35251818D01*
X52284218Y-35249677D01*
X52130369Y-35247800D01*
X51951818Y-35246226D01*
X51752030Y-35244995D01*
X51534467Y-35244146D01*
X51302592Y-35243718D01*
X51198097Y-35243673D01*
X50960733Y-35243430D01*
X50735910Y-35242729D01*
X50527127Y-35241610D01*
X50337881Y-35240116D01*
X50171670Y-35238287D01*
X50031991Y-35236164D01*
X49922341Y-35233789D01*
X49846220Y-35231203D01*
X49807124Y-35228447D01*
X49802572Y-35227227D01*
X49802520Y-35200138D01*
X49811188Y-35140815D01*
X49826671Y-35057675D01*
X49847065Y-34959139D01*
X49870464Y-34853623D01*
X49894966Y-34749547D01*
X49918664Y-34655330D01*
X49939655Y-34579389D01*
X49956034Y-34530144D01*
X49963397Y-34516350D01*
X49986241Y-34501480D01*
X50041936Y-34467909D01*
X50126838Y-34417760D01*
X50237304Y-34353156D01*
X50369689Y-34276220D01*
X50520351Y-34189076D01*
X50685645Y-34093847D01*
X50861928Y-33992656D01*
X50873772Y-33985870D01*
X51758710Y-33478909D01*
X52358750Y-33478909D01*
X52533832Y-33478744D01*
X52671474Y-33478066D01*
X52776252Y-33476599D01*
X52852743Y-33474068D01*
X52905525Y-33470198D01*
X52939173Y-33464713D01*
X52958266Y-33457337D01*
X52967380Y-33447795D01*
X52969620Y-33442143D01*
X52977879Y-33408250D01*
X52992565Y-33342416D01*
X53011664Y-33253861D01*
X53033160Y-33151805D01*
X53035041Y-33142763D01*
X53056817Y-33038737D01*
X53076467Y-32946195D01*
X53091917Y-32874810D01*
X53101097Y-32834256D01*
X53101436Y-32832879D01*
X53113240Y-32785608D01*
X51700828Y-32785608D01*
X50130522Y-33681648D01*
X49894181Y-33816556D01*
X49668289Y-33945598D01*
X49455512Y-34067241D01*
X49258519Y-34179958D01*
X49079978Y-34282218D01*
X48922558Y-34372491D01*
X48788926Y-34449247D01*
X48681752Y-34510956D01*
X48603702Y-34556089D01*
X48557446Y-34583116D01*
X48545183Y-34590617D01*
X48538112Y-34612741D01*
X48523726Y-34669999D01*
X48503333Y-34756402D01*
X48478240Y-34865960D01*
X48449757Y-34992682D01*
X48419190Y-35130579D01*
X48387849Y-35273662D01*
X48357041Y-35415941D01*
X48328074Y-35551426D01*
X48302257Y-35674127D01*
X48280898Y-35778054D01*
X48265304Y-35857219D01*
X48256784Y-35905631D01*
X48255583Y-35916677D01*
X48276367Y-35920957D01*
X48337824Y-35924775D01*
X48438612Y-35928111D01*
X48577388Y-35930945D01*
X48752808Y-35933259D01*
X48963531Y-35935032D01*
X49208213Y-35936245D01*
X49485513Y-35936879D01*
X49654104Y-35936973D01*
X49930908Y-35937020D01*
X50168628Y-35937213D01*
X50370196Y-35937629D01*
X50538545Y-35938346D01*
X50676608Y-35939441D01*
X50787320Y-35940993D01*
X50873612Y-35943079D01*
X50938418Y-35945777D01*
X50984672Y-35949165D01*
X51015306Y-35953319D01*
X51033254Y-35958319D01*
X51041448Y-35964241D01*
X51042823Y-35971163D01*
X51042263Y-35973739D01*
X51034454Y-36006441D01*
X51019824Y-36072115D01*
X51000155Y-36162602D01*
X50977228Y-36269748D01*
X50965236Y-36326372D01*
X50898570Y-36642239D01*
X49983459Y-37161484D01*
X49068347Y-37680728D01*
X47878220Y-37680728D01*
X47867046Y-37727999D01*
X47857212Y-37771926D01*
X47841877Y-37843098D01*
X47822825Y-37932948D01*
X47801840Y-38032908D01*
X47780705Y-38134410D01*
X47761206Y-38228887D01*
X47745125Y-38307772D01*
X47734248Y-38362497D01*
X47730356Y-38384421D01*
X47545912Y-38384421D01*
X47613640Y-38058892D01*
X47642307Y-37921702D01*
G37*
G36*
X56008845Y-38259731D02*
G01*
X56032256Y-38141901D01*
X56061986Y-37996657D01*
X56098575Y-37820956D01*
X56142559Y-37611754D01*
X56194476Y-37366008D01*
X56223374Y-37229448D01*
X56501982Y-35913144D01*
X58098342Y-34995013D01*
X59694702Y-34076881D01*
X59750007Y-33814661D01*
X59771335Y-33713472D01*
X59799045Y-33581909D01*
X59830875Y-33430716D01*
X59864563Y-33270637D01*
X59897848Y-33112418D01*
X59905826Y-33074483D01*
X60006341Y-32596527D01*
X60880135Y-32596690D01*
X61753929Y-32596854D01*
X61775906Y-32644323D01*
X61794819Y-32673865D01*
X61835963Y-32731005D01*
X61895378Y-32810482D01*
X61969105Y-32907038D01*
X62053181Y-33015414D01*
X62106799Y-33083737D01*
X62193922Y-33195957D01*
X62271530Y-33299142D01*
X62335972Y-33388171D01*
X62383598Y-33457926D01*
X62410757Y-33503287D01*
X62415715Y-33516939D01*
X62411461Y-33540541D01*
X62399088Y-33602474D01*
X62379179Y-33699960D01*
X62352319Y-33830224D01*
X62319092Y-33990487D01*
X62280081Y-34177974D01*
X62235872Y-34389909D01*
X62187047Y-34623513D01*
X62134190Y-34876011D01*
X62077886Y-35144626D01*
X62018719Y-35426581D01*
X61957273Y-35719099D01*
X61894131Y-36019405D01*
X61829878Y-36324720D01*
X61765097Y-36632269D01*
X61700373Y-36939275D01*
X61636289Y-37242961D01*
X61573430Y-37540551D01*
X61512380Y-37829268D01*
X61453722Y-38106334D01*
X61398040Y-38368974D01*
X61345919Y-38614411D01*
X61297942Y-38839868D01*
X61254694Y-39042568D01*
X61216758Y-39219735D01*
X61196454Y-39314186D01*
X61172697Y-39424483D01*
X56660008Y-39424483D01*
X56497865Y-39219645D01*
X56414209Y-39113690D01*
X56319977Y-38993920D01*
X56229134Y-38878101D01*
X56179975Y-38815220D01*
X56115429Y-38733803D01*
X56056702Y-38662074D01*
X56010506Y-38608082D01*
X55984496Y-38580692D01*
X55976720Y-38572607D01*
X55970959Y-38561455D01*
X55967751Y-38544195D01*
X55967635Y-38517782D01*
X55971148Y-38479172D01*
X55978829Y-38425323D01*
X55989309Y-38364288D01*
X56163307Y-38364288D01*
X56168151Y-38369612D01*
X56180471Y-38374285D01*
X56202668Y-38378350D01*
X56237142Y-38381848D01*
X56286293Y-38384822D01*
X56352521Y-38387314D01*
X56438225Y-38389367D01*
X56545806Y-38391023D01*
X56677664Y-38392323D01*
X56836198Y-38393311D01*
X57023810Y-38394028D01*
X57242897Y-38394516D01*
X57495862Y-38394819D01*
X57785103Y-38394977D01*
X58113021Y-38395034D01*
X58252757Y-38395038D01*
X60353342Y-38395038D01*
X60377093Y-38284740D01*
X60399679Y-38179455D01*
X60428900Y-38042597D01*
X60464145Y-37877059D01*
X60504805Y-37685733D01*
X60550267Y-37471513D01*
X60599923Y-37237290D01*
X60653161Y-36985958D01*
X60709371Y-36720409D01*
X60767942Y-36443536D01*
X60828263Y-36158233D01*
X60889725Y-35867390D01*
X60951716Y-35573903D01*
X61013626Y-35280662D01*
X61074844Y-34990562D01*
X61134760Y-34706494D01*
X61192763Y-34431351D01*
X61248243Y-34168027D01*
X61300589Y-33919413D01*
X61349190Y-33688404D01*
X61393436Y-33477890D01*
X61432717Y-33290766D01*
X61466421Y-33129924D01*
X61493939Y-32998256D01*
X61514659Y-32898656D01*
X61527972Y-32834016D01*
X61533266Y-32807229D01*
X61533333Y-32806687D01*
X61512514Y-32800273D01*
X61450790Y-32794976D01*
X61349260Y-32790828D01*
X61209023Y-32787863D01*
X61031178Y-32786114D01*
X60841523Y-32785608D01*
X60149712Y-32785608D01*
X60124659Y-32906411D01*
X60086563Y-33089294D01*
X60048145Y-33272249D01*
X60010407Y-33450630D01*
X59974350Y-33619790D01*
X59940978Y-33775083D01*
X59911293Y-33911864D01*
X59886297Y-34025487D01*
X59866993Y-34111304D01*
X59854382Y-34164671D01*
X59849638Y-34181086D01*
X59830694Y-34192249D01*
X59777912Y-34222767D01*
X59693929Y-34271129D01*
X59581377Y-34335822D01*
X59442892Y-34415335D01*
X59281107Y-34508158D01*
X59098657Y-34612778D01*
X58898176Y-34727684D01*
X58682299Y-34851364D01*
X58453659Y-34982307D01*
X58255914Y-35095520D01*
X58018793Y-35231274D01*
X57792327Y-35360961D01*
X57579141Y-35483077D01*
X57381860Y-35596116D01*
X57203109Y-35698573D01*
X57045513Y-35788944D01*
X56911697Y-35865722D01*
X56804287Y-35927402D01*
X56725906Y-35972480D01*
X56679180Y-35999450D01*
X56666317Y-36007007D01*
X56661472Y-36027613D01*
X56648752Y-36085650D01*
X56628945Y-36177430D01*
X56602837Y-36299268D01*
X56571216Y-36447478D01*
X56534868Y-36618374D01*
X56494580Y-36808270D01*
X56451139Y-37013480D01*
X56418908Y-37166005D01*
X56373430Y-37381080D01*
X56330307Y-37584441D01*
X56290360Y-37772260D01*
X56254409Y-37940708D01*
X56223275Y-38085956D01*
X56197776Y-38204177D01*
X56178733Y-38291540D01*
X56166967Y-38344218D01*
X56163541Y-38358272D01*
X56163307Y-38364288D01*
X55989309Y-38364288D01*
X55991215Y-38353190D01*
X56008845Y-38259731D01*
G37*
G36*
X78540198Y-36967955D02*
G01*
X79447551Y-36447212D01*
X80354903Y-35926469D01*
X80004292Y-35919682D01*
X79653681Y-35912896D01*
X79328040Y-35492404D01*
X79237977Y-35376882D01*
X79155269Y-35272258D01*
X79083698Y-35183200D01*
X79027048Y-35114377D01*
X78989103Y-35070459D01*
X78974675Y-35056346D01*
X78967484Y-35043607D01*
X78966182Y-35013736D01*
X78971417Y-34962547D01*
X78983841Y-34885851D01*
X79004102Y-34779462D01*
X79032852Y-34639193D01*
X79057552Y-34522458D01*
X79168153Y-34004136D01*
X81443547Y-34004136D01*
X81834102Y-34004274D01*
X82183905Y-34004698D01*
X82494221Y-34005420D01*
X82766314Y-34006453D01*
X83001451Y-34007810D01*
X83200896Y-34009503D01*
X83365914Y-34011545D01*
X83497770Y-34013950D01*
X83597731Y-34016730D01*
X83667059Y-34019897D01*
X83707022Y-34023465D01*
X83718941Y-34027172D01*
X83731452Y-34049292D01*
X83766677Y-34099650D01*
X83821160Y-34173612D01*
X83891440Y-34266545D01*
X83974061Y-34373816D01*
X84054826Y-34477154D01*
X84390711Y-34904100D01*
X83913015Y-37164268D01*
X83435318Y-39424436D01*
X81176704Y-39424460D01*
X78918090Y-39424483D01*
X78676621Y-39115363D01*
X78590570Y-39005771D01*
X78504306Y-38896908D01*
X78424723Y-38797406D01*
X78358719Y-38715899D01*
X78321752Y-38671147D01*
X78208350Y-38536050D01*
X78238192Y-38395038D01*
X78420093Y-38395038D01*
X80513435Y-38395038D01*
X80869736Y-38394938D01*
X81186074Y-38394624D01*
X81464505Y-38394068D01*
X81707084Y-38393245D01*
X81915866Y-38392129D01*
X82092907Y-38390695D01*
X82240262Y-38388918D01*
X82359986Y-38386770D01*
X82454134Y-38384228D01*
X82524762Y-38381264D01*
X82573924Y-38377855D01*
X82603677Y-38373972D01*
X82616076Y-38369592D01*
X82616613Y-38368776D01*
X82622274Y-38344932D01*
X82636036Y-38282801D01*
X82657297Y-38185200D01*
X82685451Y-38054949D01*
X82719895Y-37894866D01*
X82760024Y-37707770D01*
X82805234Y-37496479D01*
X82854922Y-37263812D01*
X82908482Y-37012588D01*
X82965312Y-36745625D01*
X83024806Y-36465742D01*
X83056785Y-36315137D01*
X83117514Y-36029094D01*
X83175915Y-35754127D01*
X83231380Y-35493093D01*
X83283301Y-35248847D01*
X83331071Y-35024249D01*
X83374081Y-34822154D01*
X83411722Y-34645420D01*
X83443387Y-34496903D01*
X83468467Y-34379462D01*
X83486355Y-34295952D01*
X83496442Y-34249231D01*
X83498387Y-34240488D01*
X83509651Y-34193218D01*
X79312775Y-34193218D01*
X79243865Y-34513607D01*
X79219509Y-34625676D01*
X79197639Y-34724123D01*
X79180014Y-34801197D01*
X79168393Y-34849148D01*
X79165213Y-34860257D01*
X79170996Y-34865636D01*
X79194280Y-34870276D01*
X79237556Y-34874223D01*
X79303312Y-34877524D01*
X79394039Y-34880228D01*
X79512225Y-34882379D01*
X79660361Y-34884027D01*
X79840936Y-34885217D01*
X80056440Y-34885997D01*
X80309362Y-34886414D01*
X80554824Y-34886518D01*
X80833391Y-34886595D01*
X81072837Y-34886872D01*
X81276061Y-34887416D01*
X81445962Y-34888294D01*
X81585436Y-34889574D01*
X81697382Y-34891323D01*
X81784697Y-34893610D01*
X81850281Y-34896502D01*
X81897030Y-34900066D01*
X81927843Y-34904369D01*
X81945617Y-34909480D01*
X81953251Y-34915466D01*
X81954177Y-34919137D01*
X81949706Y-34955302D01*
X81937993Y-35018529D01*
X81921871Y-35093795D01*
X81889565Y-35235834D01*
X80296130Y-36148180D01*
X78702696Y-37060527D01*
X78572271Y-37680512D01*
X78539059Y-37838245D01*
X78508240Y-37984338D01*
X78480988Y-38113254D01*
X78458473Y-38219459D01*
X78441869Y-38297417D01*
X78432347Y-38341594D01*
X78430970Y-38347767D01*
X78420093Y-38395038D01*
X78238192Y-38395038D01*
X78374274Y-37752002D01*
X78540198Y-36967955D01*
G37*
G36*
X67398090Y-38095288D02*
G01*
X67435895Y-37907628D01*
X67479370Y-37694419D01*
X67527988Y-37458249D01*
X67581225Y-37201708D01*
X67638554Y-36927383D01*
X67699452Y-36637863D01*
X67763391Y-36335738D01*
X67774299Y-36284379D01*
X67838398Y-35982647D01*
X67899999Y-35692573D01*
X67958545Y-35416784D01*
X68013478Y-35157909D01*
X68064242Y-34918576D01*
X68110279Y-34701412D01*
X68151033Y-34509046D01*
X68185947Y-34344105D01*
X68214465Y-34209217D01*
X68236028Y-34107011D01*
X68250080Y-34040115D01*
X68256065Y-34011155D01*
X68256245Y-34010144D01*
X68276784Y-34009306D01*
X68336526Y-34008506D01*
X68432654Y-34007752D01*
X68562350Y-34007051D01*
X68722800Y-34006412D01*
X68911188Y-34005842D01*
X69124695Y-34005350D01*
X69360508Y-34004942D01*
X69615808Y-34004627D01*
X69887781Y-34004413D01*
X70173609Y-34004308D01*
X70351902Y-34004300D01*
X72447560Y-34004464D01*
X72469619Y-34051570D01*
X72488525Y-34080769D01*
X72529831Y-34137589D01*
X72589629Y-34216890D01*
X72664011Y-34313531D01*
X72749069Y-34422371D01*
X72811424Y-34501243D01*
X73131168Y-34903810D01*
X73025717Y-35403472D01*
X72996465Y-35542329D01*
X72970329Y-35666878D01*
X72948493Y-35771440D01*
X72932139Y-35850339D01*
X72922450Y-35897899D01*
X72920265Y-35909550D01*
X72899869Y-35910714D01*
X72841136Y-35911810D01*
X72747746Y-35912819D01*
X72623379Y-35913722D01*
X72471717Y-35914498D01*
X72296439Y-35915130D01*
X72101227Y-35915597D01*
X71889761Y-35915881D01*
X71693328Y-35915964D01*
X70466391Y-35915964D01*
X70443455Y-36015757D01*
X70433333Y-36061233D01*
X70416496Y-36138529D01*
X70394139Y-36242032D01*
X70367458Y-36366128D01*
X70337651Y-36505206D01*
X70305913Y-36653653D01*
X70273441Y-36805856D01*
X70241430Y-36956202D01*
X70211078Y-37099079D01*
X70183579Y-37228874D01*
X70160132Y-37339974D01*
X70141931Y-37426767D01*
X70130173Y-37483640D01*
X70126055Y-37504959D01*
X70146303Y-37506680D01*
X70204007Y-37508266D01*
X70294603Y-37509675D01*
X70413529Y-37510862D01*
X70556222Y-37511783D01*
X70718119Y-37512393D01*
X70894657Y-37512650D01*
X70924400Y-37512656D01*
X71134804Y-37512900D01*
X71306650Y-37513714D01*
X71443397Y-37515217D01*
X71548504Y-37517529D01*
X71625430Y-37520769D01*
X71677633Y-37525057D01*
X71708571Y-37530513D01*
X71721704Y-37537257D01*
X71722746Y-37540293D01*
X71735284Y-37563710D01*
X71770574Y-37615228D01*
X71825125Y-37690130D01*
X71895451Y-37783697D01*
X71978062Y-37891213D01*
X72055360Y-37990077D01*
X72387974Y-38412224D01*
X72281777Y-38918354D01*
X72175579Y-39424483D01*
X68007325Y-39424483D01*
X67669978Y-38995679D01*
X67578360Y-38879907D01*
X67494652Y-38775434D01*
X67422511Y-38686718D01*
X67365593Y-38618219D01*
X67327556Y-38574396D01*
X67312491Y-38559740D01*
X67314069Y-38538658D01*
X67323944Y-38479083D01*
X67341589Y-38383604D01*
X67344902Y-38366462D01*
X67520926Y-38366462D01*
X67526449Y-38371437D01*
X67544576Y-38375822D01*
X67577649Y-38379650D01*
X67628009Y-38382956D01*
X67697996Y-38385777D01*
X67789951Y-38388146D01*
X67906215Y-38390098D01*
X68049129Y-38391668D01*
X68221034Y-38392891D01*
X68424269Y-38393802D01*
X68661177Y-38394436D01*
X68934098Y-38394828D01*
X69245372Y-38395012D01*
X69439231Y-38395038D01*
X71357536Y-38395038D01*
X71424769Y-38064144D01*
X71447594Y-37950189D01*
X71467075Y-37849831D01*
X71481784Y-37770684D01*
X71490291Y-37720361D01*
X71491824Y-37706990D01*
X71483637Y-37701233D01*
X71457388Y-37696324D01*
X71410422Y-37692207D01*
X71340081Y-37688824D01*
X71243711Y-37686117D01*
X71118654Y-37684029D01*
X70962254Y-37682504D01*
X70771856Y-37681483D01*
X70544802Y-37680911D01*
X70278437Y-37680728D01*
X70273118Y-37680728D01*
X70051187Y-37680576D01*
X69842286Y-37680139D01*
X69650109Y-37679443D01*
X69478350Y-37678517D01*
X69330700Y-37677388D01*
X69210855Y-37676083D01*
X69122506Y-37674630D01*
X69069348Y-37673057D01*
X69054590Y-37671648D01*
X69058824Y-37650097D01*
X69070938Y-37591587D01*
X69090055Y-37500252D01*
X69115299Y-37380228D01*
X69145790Y-37235651D01*
X69180651Y-37070656D01*
X69219005Y-36889379D01*
X69259973Y-36695954D01*
X69302679Y-36494517D01*
X69346243Y-36289204D01*
X69389789Y-36084151D01*
X69432439Y-35883491D01*
X69473316Y-35691362D01*
X69511540Y-35511898D01*
X69546235Y-35349235D01*
X69576523Y-35207508D01*
X69601526Y-35090853D01*
X69620367Y-35003405D01*
X69632167Y-34949300D01*
X69635691Y-34933789D01*
X69647400Y-34886518D01*
X70874155Y-34886518D01*
X71096854Y-34886341D01*
X71306535Y-34885831D01*
X71499517Y-34885019D01*
X71672119Y-34883939D01*
X71820660Y-34882621D01*
X71941459Y-34881098D01*
X72030836Y-34879402D01*
X72085110Y-34877565D01*
X72100910Y-34875859D01*
X72105121Y-34853483D01*
X72116547Y-34798461D01*
X72133377Y-34719186D01*
X72153801Y-34624049D01*
X72176008Y-34521441D01*
X72198187Y-34419756D01*
X72218528Y-34327385D01*
X72235220Y-34252719D01*
X72237998Y-34240488D01*
X72248774Y-34193218D01*
X70327457Y-34193218D01*
X69999354Y-34193252D01*
X69710732Y-34193386D01*
X69459054Y-34193668D01*
X69241782Y-34194147D01*
X69056380Y-34194871D01*
X68900311Y-34195888D01*
X68771036Y-34197247D01*
X68666020Y-34198995D01*
X68582724Y-34201182D01*
X68518612Y-34203854D01*
X68471147Y-34207062D01*
X68437791Y-34210852D01*
X68416007Y-34215273D01*
X68403258Y-34220374D01*
X68397007Y-34226202D01*
X68395345Y-34229984D01*
X68388574Y-34258683D01*
X68373985Y-34324649D01*
X68352294Y-34424502D01*
X68324214Y-34554864D01*
X68290460Y-34712355D01*
X68251746Y-34893596D01*
X68208787Y-35095209D01*
X68162297Y-35313813D01*
X68112989Y-35546031D01*
X68061579Y-35788482D01*
X68008781Y-36037788D01*
X67955309Y-36290569D01*
X67901877Y-36543448D01*
X67849200Y-36793043D01*
X67797992Y-37035977D01*
X67748967Y-37268870D01*
X67702839Y-37488343D01*
X67660324Y-37691018D01*
X67622135Y-37873514D01*
X67588987Y-38032453D01*
X67561593Y-38164455D01*
X67540669Y-38266143D01*
X67526928Y-38334135D01*
X67521085Y-38365055D01*
X67520926Y-38366462D01*
X67344902Y-38366462D01*
X67366479Y-38254809D01*
X67398090Y-38095288D01*
G37*
G36*
X48604351Y-71717622D02*
G01*
X48676271Y-71503379D01*
X48759311Y-71256484D01*
X48852070Y-70981099D01*
X48953150Y-70681387D01*
X49061151Y-70361508D01*
X49174675Y-70025623D01*
X49239831Y-69833000D01*
X49366950Y-69457141D01*
X49497493Y-69070871D01*
X49629064Y-68681295D01*
X49759267Y-68295519D01*
X49885705Y-67920648D01*
X50005984Y-67563788D01*
X50117708Y-67232043D01*
X50218480Y-66932521D01*
X50305906Y-66672326D01*
X50376889Y-66460652D01*
X50474881Y-66169376D01*
X50557411Y-65927354D01*
X50626184Y-65730071D01*
X50682903Y-65573009D01*
X50729272Y-65451652D01*
X50766994Y-65361484D01*
X50797775Y-65297989D01*
X50823318Y-65256649D01*
X50837395Y-65240041D01*
X50915213Y-65162223D01*
X56483675Y-65162223D01*
X56566170Y-65244718D01*
X56631803Y-65337961D01*
X56645018Y-65439011D01*
X56606765Y-65556318D01*
X56602145Y-65565431D01*
X56580621Y-65603918D01*
X56532909Y-65687109D01*
X56461337Y-65810998D01*
X56368237Y-65971578D01*
X56255938Y-66164843D01*
X56126770Y-66386788D01*
X55983063Y-66633406D01*
X55827147Y-66900690D01*
X55661351Y-67184635D01*
X55488005Y-67481234D01*
X55482764Y-67490196D01*
X55297533Y-67806988D01*
X55110954Y-68126102D01*
X54926475Y-68441638D01*
X54747547Y-68747697D01*
X54577618Y-69038378D01*
X54420137Y-69307780D01*
X54278554Y-69550005D01*
X54156318Y-69759150D01*
X54056877Y-69929317D01*
X54005972Y-70016445D01*
X53602040Y-70707889D01*
X54673044Y-70722000D01*
X54946931Y-70725670D01*
X55169986Y-70729000D01*
X55347813Y-70732374D01*
X55486018Y-70736177D01*
X55590209Y-70740792D01*
X55665991Y-70746603D01*
X55718971Y-70753996D01*
X55754754Y-70763353D01*
X55778947Y-70775060D01*
X55797157Y-70789501D01*
X55807660Y-70799754D01*
X55859843Y-70885780D01*
X55871272Y-70971834D01*
X55869555Y-70994957D01*
X55862739Y-71021271D01*
X55848325Y-71053977D01*
X55823815Y-71096280D01*
X55786711Y-71151382D01*
X55734515Y-71222488D01*
X55664728Y-71312799D01*
X55574853Y-71425520D01*
X55462390Y-71563854D01*
X55324843Y-71731004D01*
X55159712Y-71930174D01*
X54964500Y-72164566D01*
X54736708Y-72437385D01*
X54611311Y-72587413D01*
X54176133Y-73107944D01*
X53771936Y-73591369D01*
X53393519Y-74043906D01*
X53035681Y-74471774D01*
X52693222Y-74881188D01*
X52360940Y-75278368D01*
X52033636Y-75669530D01*
X51706107Y-76060891D01*
X51373154Y-76458670D01*
X51273168Y-76578111D01*
X51095493Y-76790365D01*
X50890221Y-77035602D01*
X50665979Y-77303517D01*
X50431390Y-77583805D01*
X50195082Y-77866160D01*
X49965679Y-78140275D01*
X49751806Y-78395846D01*
X49699081Y-78458853D01*
X49523034Y-78668598D01*
X49355851Y-78866563D01*
X49201437Y-79048212D01*
X49063698Y-79209004D01*
X48946539Y-79344401D01*
X48853866Y-79449864D01*
X48789584Y-79520853D01*
X48758075Y-79552464D01*
X48653586Y-79605186D01*
X48548758Y-79602061D01*
X48448537Y-79543440D01*
X48433829Y-79529505D01*
X48377118Y-79454586D01*
X48351634Y-79382493D01*
X48351333Y-79375605D01*
X48360989Y-79335527D01*
X48388675Y-79248080D01*
X48432473Y-79118692D01*
X48490460Y-78952794D01*
X48560716Y-78755817D01*
X48641321Y-78533191D01*
X48730354Y-78290345D01*
X48825894Y-78032710D01*
X48833728Y-78011711D01*
X48950673Y-77698406D01*
X49079224Y-77354054D01*
X49214383Y-76992040D01*
X49351153Y-76625749D01*
X49484536Y-76268564D01*
X49609534Y-75933872D01*
X49721149Y-75635056D01*
X49748399Y-75562111D01*
X49856584Y-75272513D01*
X49973579Y-74959315D01*
X50094607Y-74635306D01*
X50214891Y-74313274D01*
X50329655Y-74006008D01*
X50434122Y-73726297D01*
X50521893Y-73491271D01*
X50601953Y-73276193D01*
X50675335Y-73077726D01*
X50739773Y-72902103D01*
X50793001Y-72755555D01*
X50832752Y-72644317D01*
X50856760Y-72574620D01*
X50863111Y-72552882D01*
X50835887Y-72547365D01*
X50758207Y-72542287D01*
X50636061Y-72537784D01*
X50475434Y-72533993D01*
X50282317Y-72531049D01*
X50062696Y-72529088D01*
X49822561Y-72528245D01*
X49775649Y-72528223D01*
X49478419Y-72527997D01*
X49232435Y-72526874D01*
X49032500Y-72524180D01*
X48873415Y-72519246D01*
X48749982Y-72511399D01*
X48657004Y-72499968D01*
X48589283Y-72484282D01*
X48541620Y-72463670D01*
X48508819Y-72437459D01*
X48485680Y-72404980D01*
X48467007Y-72365559D01*
X48464196Y-72358827D01*
X48440909Y-72266257D01*
X48454819Y-72168431D01*
X48455842Y-72164856D01*
X48469295Y-72122832D01*
X48499464Y-72031511D01*
X48513236Y-71990194D01*
X49061078Y-71990194D01*
X50218560Y-71998153D01*
X51376041Y-72006111D01*
X51444131Y-72085296D01*
X51494287Y-72169420D01*
X51512222Y-72249550D01*
X51502548Y-72293006D01*
X51474860Y-72383507D01*
X51431157Y-72515318D01*
X51373436Y-72682709D01*
X51303697Y-72879945D01*
X51223938Y-73101293D01*
X51136157Y-73341021D01*
X51062636Y-73539143D01*
X50963160Y-73805609D01*
X50847862Y-74114374D01*
X50720690Y-74454869D01*
X50585594Y-74816524D01*
X50446522Y-75188768D01*
X50307422Y-75561033D01*
X50172244Y-75922749D01*
X50044935Y-76263347D01*
X50018414Y-76334291D01*
X49894366Y-76666129D01*
X49788667Y-76949004D01*
X49699903Y-77186824D01*
X49626659Y-77383497D01*
X49567522Y-77542931D01*
X49521079Y-77669034D01*
X49485914Y-77765715D01*
X49460614Y-77836883D01*
X49443766Y-77886444D01*
X49433955Y-77918308D01*
X49429767Y-77936383D01*
X49429789Y-77944577D01*
X49432607Y-77946798D01*
X49435016Y-77946889D01*
X49454712Y-77925879D01*
X49507242Y-77865472D01*
X49589275Y-77769609D01*
X49697477Y-77642226D01*
X49828514Y-77487262D01*
X49979054Y-77308657D01*
X50145764Y-77110347D01*
X50325311Y-76896271D01*
X50429850Y-76771415D01*
X50637654Y-76523076D01*
X50852598Y-76266216D01*
X51068511Y-76008205D01*
X51279223Y-75756418D01*
X51478564Y-75518228D01*
X51660362Y-75301007D01*
X51818448Y-75112129D01*
X51946651Y-74958966D01*
X51949666Y-74955364D01*
X52385354Y-74434805D01*
X52785377Y-73956687D01*
X53150379Y-73520233D01*
X53481007Y-73124669D01*
X53777905Y-72769222D01*
X54041719Y-72453115D01*
X54273094Y-72175574D01*
X54472675Y-71935825D01*
X54641108Y-71733092D01*
X54779038Y-71566601D01*
X54887110Y-71435578D01*
X54965970Y-71339247D01*
X55016262Y-71276833D01*
X55038633Y-71247562D01*
X55040000Y-71245076D01*
X55012841Y-71241572D01*
X54935619Y-71238357D01*
X54814714Y-71235527D01*
X54656507Y-71233180D01*
X54467378Y-71231413D01*
X54253709Y-71230322D01*
X54050366Y-71230000D01*
X53738504Y-71229083D01*
X53480800Y-71226339D01*
X53277725Y-71221783D01*
X53129749Y-71215429D01*
X53037344Y-71207289D01*
X53003755Y-71199506D01*
X52939986Y-71138004D01*
X52897403Y-71046585D01*
X52885442Y-70950538D01*
X52894557Y-70906900D01*
X52914172Y-70868126D01*
X52959346Y-70785976D01*
X53027053Y-70665745D01*
X53114265Y-70512726D01*
X53217957Y-70332214D01*
X53335100Y-70129503D01*
X53462668Y-69909888D01*
X53560960Y-69741383D01*
X53872658Y-69207935D01*
X54156976Y-68721274D01*
X54415040Y-68279472D01*
X54647972Y-67880595D01*
X54856898Y-67522715D01*
X55042940Y-67203900D01*
X55207224Y-66922220D01*
X55350873Y-66675743D01*
X55475011Y-66462540D01*
X55580762Y-66280678D01*
X55669252Y-66128228D01*
X55741602Y-66003259D01*
X55798939Y-65903840D01*
X55842385Y-65828040D01*
X55873065Y-65773928D01*
X55892103Y-65739575D01*
X55900623Y-65723048D01*
X55901048Y-65722029D01*
X55895845Y-65715180D01*
X55872484Y-65709193D01*
X55827735Y-65704017D01*
X55758371Y-65699603D01*
X55661162Y-65695901D01*
X55532878Y-65692860D01*
X55370292Y-65690432D01*
X55170173Y-65688566D01*
X54929293Y-65687212D01*
X54644424Y-65686321D01*
X54312335Y-65685842D01*
X53929798Y-65685727D01*
X53559452Y-65685878D01*
X53199912Y-65686261D01*
X52856826Y-65686912D01*
X52534355Y-65687807D01*
X52236659Y-65688920D01*
X51967900Y-65690227D01*
X51732240Y-65691703D01*
X51533838Y-65693324D01*
X51376857Y-65695064D01*
X51265458Y-65696898D01*
X51203801Y-65698803D01*
X51192393Y-65699990D01*
X51180504Y-65729358D01*
X51153634Y-65804134D01*
X51114615Y-65916167D01*
X51066277Y-66057306D01*
X51011453Y-66219398D01*
X50996848Y-66262889D01*
X50953027Y-66393367D01*
X50894776Y-66566503D01*
X50823680Y-66777602D01*
X50741324Y-67021971D01*
X50649293Y-67294915D01*
X50549173Y-67591741D01*
X50442549Y-67907754D01*
X50331006Y-68238260D01*
X50216130Y-68578565D01*
X50099506Y-68923976D01*
X49982719Y-69269798D01*
X49867355Y-69611337D01*
X49754998Y-69943899D01*
X49647234Y-70262790D01*
X49545649Y-70563317D01*
X49451828Y-70840784D01*
X49367355Y-71090498D01*
X49293817Y-71307765D01*
X49232798Y-71487891D01*
X49185885Y-71626181D01*
X49154661Y-71717943D01*
X49145688Y-71744153D01*
X49061078Y-71990194D01*
X48513236Y-71990194D01*
X48544949Y-71895054D01*
X48604351Y-71717622D01*
G37*
D13*
X48604351Y-71717622D02*
X48676271Y-71503379D01*
X48759311Y-71256484D01*
X48852070Y-70981099D01*
X48953150Y-70681387D01*
X49061151Y-70361508D01*
X49174675Y-70025623D01*
X49239831Y-69833000D01*
X49366950Y-69457141D01*
X49497493Y-69070871D01*
X49629064Y-68681295D01*
X49759267Y-68295519D01*
X49885705Y-67920648D01*
X50005984Y-67563788D01*
X50117708Y-67232043D01*
X50218480Y-66932521D01*
X50305906Y-66672326D01*
X50376889Y-66460652D01*
X50474881Y-66169376D01*
X50557411Y-65927354D01*
X50626184Y-65730071D01*
X50682903Y-65573009D01*
X50729272Y-65451652D01*
X50766994Y-65361484D01*
X50797775Y-65297989D01*
X50823318Y-65256649D01*
X50837395Y-65240041D01*
X50915213Y-65162223D01*
X56483675Y-65162223D01*
X56566170Y-65244718D01*
X56631803Y-65337961D01*
X56645018Y-65439011D01*
X56606765Y-65556318D01*
X56602145Y-65565431D01*
X56580621Y-65603918D01*
X56532909Y-65687109D01*
X56461337Y-65810998D01*
X56368237Y-65971578D01*
X56255938Y-66164843D01*
X56126770Y-66386788D01*
X55983063Y-66633406D01*
X55827147Y-66900690D01*
X55661351Y-67184635D01*
X55488005Y-67481234D01*
X55482764Y-67490196D01*
X55297533Y-67806988D01*
X55110954Y-68126102D01*
X54926475Y-68441638D01*
X54747547Y-68747697D01*
X54577618Y-69038378D01*
X54420137Y-69307780D01*
X54278554Y-69550005D01*
X54156318Y-69759150D01*
X54056877Y-69929317D01*
X54005972Y-70016445D01*
X53602040Y-70707889D01*
X54673044Y-70722000D01*
X54946931Y-70725670D01*
X55169986Y-70729000D01*
X55347813Y-70732374D01*
X55486018Y-70736177D01*
X55590209Y-70740792D01*
X55665991Y-70746603D01*
X55718971Y-70753996D01*
X55754754Y-70763353D01*
X55778947Y-70775060D01*
X55797157Y-70789501D01*
X55807660Y-70799754D01*
X55859843Y-70885780D01*
X55871272Y-70971834D01*
X55869555Y-70994957D01*
X55862739Y-71021271D01*
X55848325Y-71053977D01*
X55823815Y-71096280D01*
X55786711Y-71151382D01*
X55734515Y-71222488D01*
X55664728Y-71312799D01*
X55574853Y-71425520D01*
X55462390Y-71563854D01*
X55324843Y-71731004D01*
X55159712Y-71930174D01*
X54964500Y-72164566D01*
X54736708Y-72437385D01*
X54611311Y-72587413D01*
X54176133Y-73107944D01*
X53771936Y-73591369D01*
X53393519Y-74043906D01*
X53035681Y-74471774D01*
X52693222Y-74881188D01*
X52360940Y-75278368D01*
X52033636Y-75669530D01*
X51706107Y-76060891D01*
X51373154Y-76458670D01*
X51273168Y-76578111D01*
X51095493Y-76790365D01*
X50890221Y-77035602D01*
X50665979Y-77303517D01*
X50431390Y-77583805D01*
X50195082Y-77866160D01*
X49965679Y-78140275D01*
X49751806Y-78395846D01*
X49699081Y-78458853D01*
X49523034Y-78668598D01*
X49355851Y-78866563D01*
X49201437Y-79048212D01*
X49063698Y-79209004D01*
X48946539Y-79344401D01*
X48853866Y-79449864D01*
X48789584Y-79520853D01*
X48758075Y-79552464D01*
X48653586Y-79605186D01*
X48548758Y-79602061D01*
X48448537Y-79543440D01*
X48433829Y-79529505D01*
X48377118Y-79454586D01*
X48351634Y-79382493D01*
X48351333Y-79375605D01*
X48360989Y-79335527D01*
X48388675Y-79248080D01*
X48432473Y-79118692D01*
X48490460Y-78952794D01*
X48560716Y-78755817D01*
X48641321Y-78533191D01*
X48730354Y-78290345D01*
X48825894Y-78032710D01*
X48833728Y-78011711D01*
X48950673Y-77698406D01*
X49079224Y-77354054D01*
X49214383Y-76992040D01*
X49351153Y-76625749D01*
X49484536Y-76268564D01*
X49609534Y-75933872D01*
X49721149Y-75635056D01*
X49748399Y-75562111D01*
X49856584Y-75272513D01*
X49973579Y-74959315D01*
X50094607Y-74635306D01*
X50214891Y-74313274D01*
X50329655Y-74006008D01*
X50434122Y-73726297D01*
X50521893Y-73491271D01*
X50601953Y-73276193D01*
X50675335Y-73077726D01*
X50739773Y-72902103D01*
X50793001Y-72755555D01*
X50832752Y-72644317D01*
X50856760Y-72574620D01*
X50863111Y-72552882D01*
X50835887Y-72547365D01*
X50758207Y-72542287D01*
X50636061Y-72537784D01*
X50475434Y-72533993D01*
X50282317Y-72531049D01*
X50062696Y-72529088D01*
X49822561Y-72528245D01*
X49775649Y-72528223D01*
X49478419Y-72527997D01*
X49232435Y-72526874D01*
X49032500Y-72524180D01*
X48873415Y-72519246D01*
X48749982Y-72511399D01*
X48657004Y-72499968D01*
X48589283Y-72484282D01*
X48541620Y-72463670D01*
X48508819Y-72437459D01*
X48485680Y-72404980D01*
X48467007Y-72365559D01*
X48464196Y-72358827D01*
X48440909Y-72266257D01*
X48454819Y-72168431D01*
X48455842Y-72164856D01*
X48469295Y-72122832D01*
X48499464Y-72031511D01*
X48513236Y-71990194D01*
X49061078Y-71990194D01*
X50218560Y-71998153D01*
X51376041Y-72006111D01*
X51444131Y-72085296D01*
X51494287Y-72169420D01*
X51512222Y-72249550D01*
X51502548Y-72293006D01*
X51474860Y-72383507D01*
X51431157Y-72515318D01*
X51373436Y-72682709D01*
X51303697Y-72879945D01*
X51223938Y-73101293D01*
X51136157Y-73341021D01*
X51062636Y-73539143D01*
X50963160Y-73805609D01*
X50847862Y-74114374D01*
X50720690Y-74454869D01*
X50585594Y-74816524D01*
X50446522Y-75188768D01*
X50307422Y-75561033D01*
X50172244Y-75922749D01*
X50044935Y-76263347D01*
X50018414Y-76334291D01*
X49894366Y-76666129D01*
X49788667Y-76949004D01*
X49699903Y-77186824D01*
X49626659Y-77383497D01*
X49567522Y-77542931D01*
X49521079Y-77669034D01*
X49485914Y-77765715D01*
X49460614Y-77836883D01*
X49443766Y-77886444D01*
X49433955Y-77918308D01*
X49429767Y-77936383D01*
X49429789Y-77944577D01*
X49432607Y-77946798D01*
X49435016Y-77946889D01*
X49454712Y-77925879D01*
X49507242Y-77865472D01*
X49589275Y-77769609D01*
X49697477Y-77642226D01*
X49828514Y-77487262D01*
X49979054Y-77308657D01*
X50145764Y-77110347D01*
X50325311Y-76896271D01*
X50429850Y-76771415D01*
X50637654Y-76523076D01*
X50852598Y-76266216D01*
X51068511Y-76008205D01*
X51279223Y-75756418D01*
X51478564Y-75518228D01*
X51660362Y-75301007D01*
X51818448Y-75112129D01*
X51946651Y-74958966D01*
X51949666Y-74955364D01*
X52385354Y-74434805D01*
X52785377Y-73956687D01*
X53150379Y-73520233D01*
X53481007Y-73124669D01*
X53777905Y-72769222D01*
X54041719Y-72453115D01*
X54273094Y-72175574D01*
X54472675Y-71935825D01*
X54641108Y-71733092D01*
X54779038Y-71566601D01*
X54887110Y-71435578D01*
X54965970Y-71339247D01*
X55016262Y-71276833D01*
X55038633Y-71247562D01*
X55040000Y-71245076D01*
X55012841Y-71241572D01*
X54935619Y-71238357D01*
X54814714Y-71235527D01*
X54656507Y-71233180D01*
X54467378Y-71231413D01*
X54253709Y-71230322D01*
X54050366Y-71230000D01*
X53738504Y-71229083D01*
X53480800Y-71226339D01*
X53277725Y-71221783D01*
X53129749Y-71215429D01*
X53037344Y-71207289D01*
X53003755Y-71199506D01*
X52939986Y-71138004D01*
X52897403Y-71046585D01*
X52885442Y-70950538D01*
X52894557Y-70906900D01*
X52914172Y-70868126D01*
X52959346Y-70785976D01*
X53027053Y-70665745D01*
X53114265Y-70512726D01*
X53217957Y-70332214D01*
X53335100Y-70129503D01*
X53462668Y-69909888D01*
X53560960Y-69741383D01*
X53872658Y-69207935D01*
X54156976Y-68721274D01*
X54415040Y-68279472D01*
X54647972Y-67880595D01*
X54856898Y-67522715D01*
X55042940Y-67203900D01*
X55207224Y-66922220D01*
X55350873Y-66675743D01*
X55475011Y-66462540D01*
X55580762Y-66280678D01*
X55669252Y-66128228D01*
X55741602Y-66003259D01*
X55798939Y-65903840D01*
X55842385Y-65828040D01*
X55873065Y-65773928D01*
X55892103Y-65739575D01*
X55900623Y-65723048D01*
X55901048Y-65722029D01*
X55895845Y-65715180D01*
X55872484Y-65709193D01*
X55827735Y-65704017D01*
X55758371Y-65699603D01*
X55661162Y-65695901D01*
X55532878Y-65692860D01*
X55370292Y-65690432D01*
X55170173Y-65688566D01*
X54929293Y-65687212D01*
X54644424Y-65686321D01*
X54312335Y-65685842D01*
X53929798Y-65685727D01*
X53559452Y-65685878D01*
X53199912Y-65686261D01*
X52856826Y-65686912D01*
X52534355Y-65687807D01*
X52236659Y-65688920D01*
X51967900Y-65690227D01*
X51732240Y-65691703D01*
X51533838Y-65693324D01*
X51376857Y-65695064D01*
X51265458Y-65696898D01*
X51203801Y-65698803D01*
X51192393Y-65699990D01*
X51180504Y-65729358D01*
X51153634Y-65804134D01*
X51114615Y-65916167D01*
X51066277Y-66057306D01*
X51011453Y-66219398D01*
X50996848Y-66262889D01*
X50953027Y-66393367D01*
X50894776Y-66566503D01*
X50823680Y-66777602D01*
X50741324Y-67021971D01*
X50649293Y-67294915D01*
X50549173Y-67591741D01*
X50442549Y-67907754D01*
X50331006Y-68238260D01*
X50216130Y-68578565D01*
X50099506Y-68923976D01*
X49982719Y-69269798D01*
X49867355Y-69611337D01*
X49754998Y-69943899D01*
X49647234Y-70262790D01*
X49545649Y-70563317D01*
X49451828Y-70840784D01*
X49367355Y-71090498D01*
X49293817Y-71307765D01*
X49232798Y-71487891D01*
X49185885Y-71626181D01*
X49154661Y-71717943D01*
X49145688Y-71744153D01*
X49061078Y-71990194D01*
X48513236Y-71990194D01*
X48544949Y-71895054D01*
X48604351Y-71717622D01*
G36*
X47038701Y-209065555D02*
G01*
X47389422Y-209065555D01*
X47392048Y-209074226D01*
X47423559Y-209099360D01*
X47489713Y-209148307D01*
X47580645Y-209214088D01*
X47686492Y-209289723D01*
X47797389Y-209368235D01*
X47903473Y-209442644D01*
X47994879Y-209505972D01*
X48061744Y-209551239D01*
X48094203Y-209571468D01*
X48095494Y-209571912D01*
X48120897Y-209556986D01*
X48184263Y-209515199D01*
X48277351Y-209452109D01*
X48391919Y-209373277D01*
X48456479Y-209328443D01*
X48579524Y-209241978D01*
X48685486Y-209166086D01*
X48765957Y-209106901D01*
X48812527Y-209070558D01*
X48820453Y-209062898D01*
X48805362Y-209043450D01*
X50917230Y-209043450D01*
X51067670Y-209150552D01*
X51162944Y-209218937D01*
X51281583Y-209304880D01*
X51401552Y-209392402D01*
X51429778Y-209413104D01*
X51526237Y-209479921D01*
X51608535Y-209529575D01*
X51664561Y-209555097D01*
X51679115Y-209556577D01*
X51714505Y-209536512D01*
X51786331Y-209489438D01*
X51885406Y-209421583D01*
X52002545Y-209339175D01*
X52053060Y-209303059D01*
X52171480Y-209217361D01*
X52271631Y-209143666D01*
X52345464Y-209087994D01*
X52384930Y-209056364D01*
X52389333Y-209051602D01*
X52367448Y-209032918D01*
X52306988Y-208987712D01*
X52215743Y-208921649D01*
X52101505Y-208840394D01*
X52021434Y-208784092D01*
X51653534Y-208526497D01*
X51285382Y-208784973D01*
X50917230Y-209043450D01*
X48805362Y-209043450D01*
X48803037Y-209040455D01*
X48746488Y-208992101D01*
X48658307Y-208923726D01*
X48545994Y-208841223D01*
X48466524Y-208784855D01*
X48099556Y-208527912D01*
X47730823Y-208786090D01*
X47579701Y-208894230D01*
X47474192Y-208975353D01*
X47411649Y-209031710D01*
X47389422Y-209065555D01*
X47038701Y-209065555D01*
X47954166Y-208421371D01*
X48239849Y-208421371D01*
X48614202Y-208683671D01*
X48741916Y-208771003D01*
X48854449Y-208843898D01*
X48943454Y-208897268D01*
X49000581Y-208926024D01*
X49016778Y-208929042D01*
X49048926Y-208907510D01*
X49118254Y-208859743D01*
X49215772Y-208791976D01*
X49332489Y-208710443D01*
X49383667Y-208674580D01*
X49503720Y-208590281D01*
X49606277Y-208518085D01*
X49682970Y-208463896D01*
X49725432Y-208433618D01*
X49731098Y-208429407D01*
X49726331Y-208424839D01*
X50067785Y-208424839D01*
X50091125Y-208448561D01*
X50152486Y-208498562D01*
X50243776Y-208568565D01*
X50356902Y-208652294D01*
X50419399Y-208697542D01*
X50552885Y-208792908D01*
X50648907Y-208859022D01*
X50715558Y-208899957D01*
X50760930Y-208919787D01*
X50793115Y-208922584D01*
X50820206Y-208912423D01*
X50832034Y-208905257D01*
X50879042Y-208873495D01*
X50960999Y-208816394D01*
X51067041Y-208741584D01*
X51186303Y-208656696D01*
X51207057Y-208641851D01*
X51516601Y-208420262D01*
X51162152Y-208171076D01*
X51037995Y-208084311D01*
X50929723Y-208009630D01*
X50845897Y-207952860D01*
X50795078Y-207919829D01*
X50784494Y-207913955D01*
X50753849Y-207926357D01*
X50688412Y-207965799D01*
X50597886Y-208025366D01*
X50491975Y-208098140D01*
X50380380Y-208177206D01*
X50272805Y-208255647D01*
X50178952Y-208326547D01*
X50108524Y-208382989D01*
X50071223Y-208418058D01*
X50067785Y-208424839D01*
X49726331Y-208424839D01*
X49712645Y-208411726D01*
X49656897Y-208368845D01*
X49573203Y-208307350D01*
X49470912Y-208233826D01*
X49359372Y-208154859D01*
X49247933Y-208077034D01*
X49145943Y-208006937D01*
X49062753Y-207951153D01*
X49007709Y-207916267D01*
X48990573Y-207907778D01*
X48962748Y-207923163D01*
X48897068Y-207965651D01*
X48801754Y-208029744D01*
X48685027Y-208109943D01*
X48606608Y-208164575D01*
X48239849Y-208421371D01*
X47954166Y-208421371D01*
X48012821Y-208380098D01*
X48299825Y-208178268D01*
X48573658Y-207985944D01*
X48822119Y-207811672D01*
X49177932Y-207811672D01*
X49180369Y-207814638D01*
X49217954Y-207845406D01*
X49289138Y-207898297D01*
X49383872Y-207966339D01*
X49492111Y-208042563D01*
X49603808Y-208119999D01*
X49708915Y-208191676D01*
X49797387Y-208250624D01*
X49859175Y-208289873D01*
X49883701Y-208302594D01*
X49912636Y-208287109D01*
X49978701Y-208244288D01*
X50073316Y-208179911D01*
X50187901Y-208099757D01*
X50243656Y-208060107D01*
X50363952Y-207973474D01*
X50467081Y-207897955D01*
X50544655Y-207839789D01*
X50588287Y-207805218D01*
X50594595Y-207799051D01*
X50576747Y-207777321D01*
X50520161Y-207729190D01*
X50432355Y-207660606D01*
X50320850Y-207577512D01*
X50245215Y-207522818D01*
X49884597Y-207264858D01*
X49515501Y-207522818D01*
X49372218Y-207624520D01*
X49271659Y-207700043D01*
X49208984Y-207753600D01*
X49179355Y-207789405D01*
X49177932Y-207811672D01*
X48822119Y-207811672D01*
X48830792Y-207805589D01*
X49067697Y-207639667D01*
X49280843Y-207490644D01*
X49466702Y-207360983D01*
X49621743Y-207253148D01*
X49742437Y-207169604D01*
X49825254Y-207112816D01*
X49866665Y-207085246D01*
X49870684Y-207082967D01*
X49897681Y-207097414D01*
X49966677Y-207141726D01*
X50073625Y-207213123D01*
X50214478Y-207308826D01*
X50385189Y-207426054D01*
X50581711Y-207562028D01*
X50799995Y-207713969D01*
X51035995Y-207879095D01*
X51285664Y-208054628D01*
X51297543Y-208063000D01*
X52698917Y-209050778D01*
X52699347Y-210435234D01*
X52699778Y-211819691D01*
X52248222Y-212137614D01*
X51796667Y-212455537D01*
X51796667Y-214960254D01*
X51302156Y-215314572D01*
X51154858Y-215418957D01*
X51021799Y-215511067D01*
X50910165Y-215586103D01*
X50827143Y-215639268D01*
X50779921Y-215665763D01*
X50772989Y-215667848D01*
X50745550Y-215651728D01*
X50675245Y-215605135D01*
X50565234Y-215530273D01*
X50418676Y-215429345D01*
X50238729Y-215304554D01*
X50028554Y-215158105D01*
X49791307Y-214992200D01*
X49530150Y-214809043D01*
X49248239Y-214610838D01*
X48948736Y-214399788D01*
X48634798Y-214178096D01*
X48459389Y-214054031D01*
X46180445Y-212441257D01*
X46180445Y-212193306D01*
X50047717Y-212193306D01*
X50069670Y-212213549D01*
X50128593Y-212258770D01*
X50214822Y-212322148D01*
X50318692Y-212396862D01*
X50430539Y-212476088D01*
X50540700Y-212553007D01*
X50639510Y-212620796D01*
X50717305Y-212672632D01*
X50764421Y-212701695D01*
X50773400Y-212705556D01*
X50799289Y-212690390D01*
X50863226Y-212648597D01*
X50956888Y-212585736D01*
X51071956Y-212507364D01*
X51135395Y-212463769D01*
X51257488Y-212378240D01*
X51361101Y-212303022D01*
X51438149Y-212244194D01*
X51480545Y-212207834D01*
X51486222Y-212199980D01*
X51464320Y-212176176D01*
X51405086Y-212128027D01*
X51318233Y-212062379D01*
X51213474Y-211986079D01*
X51100519Y-211905974D01*
X50989081Y-211828911D01*
X50888871Y-211761735D01*
X50809602Y-211711295D01*
X50760985Y-211684437D01*
X50751388Y-211681932D01*
X50717504Y-211700942D01*
X50650040Y-211745715D01*
X50558658Y-211809227D01*
X50453022Y-211884456D01*
X50342795Y-211964380D01*
X50237641Y-212041975D01*
X50147224Y-212110220D01*
X50081206Y-212162090D01*
X50049252Y-212190564D01*
X50047717Y-212193306D01*
X46180445Y-212193306D01*
X46180445Y-211549263D01*
X49162184Y-211549263D01*
X49176015Y-211571574D01*
X49229629Y-211619341D01*
X49315781Y-211686801D01*
X49427228Y-211768195D01*
X49510917Y-211826609D01*
X49883578Y-212082319D01*
X50168261Y-211885335D01*
X50287210Y-211802501D01*
X50396729Y-211725285D01*
X50484164Y-211662667D01*
X50534656Y-211625336D01*
X50616368Y-211562321D01*
X50409240Y-211416876D01*
X50290092Y-211332834D01*
X50164724Y-211243803D01*
X50057378Y-211167010D01*
X50043021Y-211156668D01*
X49883931Y-211041904D01*
X49535021Y-211284765D01*
X49411353Y-211371162D01*
X49303681Y-211446981D01*
X49220762Y-211506008D01*
X49171353Y-211542032D01*
X49162184Y-211549263D01*
X46180445Y-211549263D01*
X46180445Y-210935371D01*
X48241842Y-210935371D01*
X48613620Y-211197855D01*
X48740843Y-211285378D01*
X48853084Y-211358268D01*
X48941956Y-211411417D01*
X48999073Y-211439720D01*
X49015199Y-211442373D01*
X49047927Y-211420281D01*
X49117531Y-211371832D01*
X49214907Y-211303407D01*
X49330951Y-211221389D01*
X49376611Y-211189006D01*
X49494444Y-211103986D01*
X49593669Y-211029774D01*
X49666126Y-210972678D01*
X49703657Y-210939005D01*
X49707064Y-210933524D01*
X49685159Y-210912580D01*
X49626613Y-210866440D01*
X49541139Y-210802116D01*
X49438451Y-210726621D01*
X49328261Y-210646965D01*
X49220282Y-210570161D01*
X49124228Y-210503219D01*
X49049812Y-210453153D01*
X49006747Y-210426972D01*
X49003091Y-210425344D01*
X48973636Y-210437923D01*
X48906563Y-210478055D01*
X48810153Y-210540437D01*
X48692684Y-210619766D01*
X48611397Y-210676197D01*
X48241842Y-210935371D01*
X46180445Y-210935371D01*
X46180445Y-210303999D01*
X47361641Y-210303999D01*
X47550548Y-210439388D01*
X47667379Y-210523696D01*
X47792240Y-210614689D01*
X47898140Y-210692699D01*
X47898339Y-210692846D01*
X47982549Y-210752120D01*
X48052084Y-210795119D01*
X48092210Y-210812753D01*
X48092728Y-210812791D01*
X48128719Y-210797889D01*
X48199406Y-210756023D01*
X48294142Y-210693849D01*
X48389061Y-210627541D01*
X48504544Y-210544464D01*
X48612676Y-210466274D01*
X48699478Y-210403101D01*
X48742528Y-210371406D01*
X48829432Y-210306667D01*
X49145986Y-210306667D01*
X49168059Y-210327366D01*
X49227542Y-210372460D01*
X49314719Y-210435275D01*
X49419877Y-210509138D01*
X49533299Y-210587376D01*
X49645270Y-210663316D01*
X49746076Y-210730285D01*
X49826000Y-210781610D01*
X49875329Y-210810617D01*
X49885567Y-210814667D01*
X49915678Y-210799175D01*
X49983086Y-210756485D01*
X50079208Y-210692275D01*
X50195460Y-210612223D01*
X50258889Y-210567723D01*
X50380301Y-210481180D01*
X50483531Y-210405990D01*
X50560581Y-210348105D01*
X50603453Y-210313480D01*
X50609584Y-210306667D01*
X50588031Y-210286423D01*
X50528036Y-210239877D01*
X50437511Y-210172926D01*
X50324371Y-210091473D01*
X50256301Y-210043283D01*
X50111309Y-209944249D01*
X49993826Y-209870213D01*
X49909204Y-209824317D01*
X49862795Y-209809702D01*
X49859464Y-209810401D01*
X49820777Y-209832051D01*
X49749109Y-209877930D01*
X49654253Y-209941227D01*
X49546002Y-210015130D01*
X49434148Y-210092827D01*
X49328484Y-210167508D01*
X49238804Y-210232361D01*
X49174899Y-210280573D01*
X49146564Y-210305334D01*
X49145986Y-210306667D01*
X48829432Y-210306667D01*
X48835166Y-210302396D01*
X48488528Y-210059713D01*
X48364124Y-209974513D01*
X48253654Y-209902392D01*
X48166336Y-209849102D01*
X48111391Y-209820395D01*
X48099556Y-209817029D01*
X48062539Y-209832556D01*
X47988906Y-209875307D01*
X47887857Y-209939543D01*
X47768592Y-210019519D01*
X47709432Y-210060514D01*
X47361641Y-210303999D01*
X46180445Y-210303999D01*
X46180445Y-209686859D01*
X46514060Y-209686859D01*
X46517871Y-209696385D01*
X46569898Y-209741929D01*
X46651859Y-209805345D01*
X46753702Y-209879743D01*
X46865376Y-209958234D01*
X46976826Y-210033930D01*
X47078002Y-210099941D01*
X47158850Y-210149378D01*
X47209318Y-210175353D01*
X47219841Y-210177452D01*
X47255598Y-210157886D01*
X47328297Y-210112186D01*
X47428546Y-210046449D01*
X47546949Y-209966770D01*
X47593785Y-209934766D01*
X47713234Y-209851533D01*
X47814011Y-209778886D01*
X47887848Y-209722975D01*
X47926479Y-209689951D01*
X47930222Y-209684492D01*
X47919466Y-209671667D01*
X50066579Y-209671667D01*
X50087658Y-209693865D01*
X50145332Y-209741437D01*
X50230006Y-209807315D01*
X50332085Y-209884428D01*
X50441976Y-209965707D01*
X50550083Y-210044084D01*
X50646813Y-210112489D01*
X50722570Y-210163852D01*
X50767762Y-210191104D01*
X50775034Y-210193671D01*
X50799682Y-210178198D01*
X50862271Y-210135389D01*
X50954852Y-210070777D01*
X51069478Y-209989892D01*
X51147997Y-209934093D01*
X51271156Y-209845815D01*
X51375759Y-209769819D01*
X51454221Y-209711699D01*
X51498956Y-209677051D01*
X51506408Y-209669792D01*
X51482602Y-209652655D01*
X51420812Y-209608333D01*
X51328952Y-209542498D01*
X51214933Y-209460821D01*
X51138609Y-209406163D01*
X50776884Y-209147150D01*
X50422551Y-209395298D01*
X50299864Y-209482898D01*
X50195378Y-209560705D01*
X50117142Y-209622468D01*
X50073205Y-209661938D01*
X50066579Y-209671667D01*
X47919466Y-209671667D01*
X47907732Y-209657676D01*
X47846935Y-209608315D01*
X47757840Y-209543043D01*
X47650460Y-209468494D01*
X47534802Y-209391302D01*
X47420879Y-209318101D01*
X47318700Y-209255526D01*
X47238275Y-209210210D01*
X47189615Y-209188786D01*
X47181506Y-209188301D01*
X47144312Y-209209706D01*
X47070771Y-209257499D01*
X46970474Y-209325268D01*
X46853011Y-209406602D01*
X46813389Y-209434430D01*
X46676536Y-209533103D01*
X46583706Y-209605695D01*
X46530885Y-209655760D01*
X46514060Y-209686859D01*
X46180445Y-209686859D01*
X46180445Y-209669483D01*
X47038701Y-209065555D01*
G37*
X47038701Y-209065555D02*
X47389422Y-209065555D01*
X47392048Y-209074226D01*
X47423559Y-209099360D01*
X47489713Y-209148307D01*
X47580645Y-209214088D01*
X47686492Y-209289723D01*
X47797389Y-209368235D01*
X47903473Y-209442644D01*
X47994879Y-209505972D01*
X48061744Y-209551239D01*
X48094203Y-209571468D01*
X48095494Y-209571912D01*
X48120897Y-209556986D01*
X48184263Y-209515199D01*
X48277351Y-209452109D01*
X48391919Y-209373277D01*
X48456479Y-209328443D01*
X48579524Y-209241978D01*
X48685486Y-209166086D01*
X48765957Y-209106901D01*
X48812527Y-209070558D01*
X48820453Y-209062898D01*
X48805362Y-209043450D01*
X50917230Y-209043450D01*
X51067670Y-209150552D01*
X51162944Y-209218937D01*
X51281583Y-209304880D01*
X51401552Y-209392402D01*
X51429778Y-209413104D01*
X51526237Y-209479921D01*
X51608535Y-209529575D01*
X51664561Y-209555097D01*
X51679115Y-209556577D01*
X51714505Y-209536512D01*
X51786331Y-209489438D01*
X51885406Y-209421583D01*
X52002545Y-209339175D01*
X52053060Y-209303059D01*
X52171480Y-209217361D01*
X52271631Y-209143666D01*
X52345464Y-209087994D01*
X52384930Y-209056364D01*
X52389333Y-209051602D01*
X52367448Y-209032918D01*
X52306988Y-208987712D01*
X52215743Y-208921649D01*
X52101505Y-208840394D01*
X52021434Y-208784092D01*
X51653534Y-208526497D01*
X51285382Y-208784973D01*
X50917230Y-209043450D01*
X48805362Y-209043450D01*
X48803037Y-209040455D01*
X48746488Y-208992101D01*
X48658307Y-208923726D01*
X48545994Y-208841223D01*
X48466524Y-208784855D01*
X48099556Y-208527912D01*
X47730823Y-208786090D01*
X47579701Y-208894230D01*
X47474192Y-208975353D01*
X47411649Y-209031710D01*
X47389422Y-209065555D01*
X47038701Y-209065555D01*
X47954166Y-208421371D01*
X48239849Y-208421371D01*
X48614202Y-208683671D01*
X48741916Y-208771003D01*
X48854449Y-208843898D01*
X48943454Y-208897268D01*
X49000581Y-208926024D01*
X49016778Y-208929042D01*
X49048926Y-208907510D01*
X49118254Y-208859743D01*
X49215772Y-208791976D01*
X49332489Y-208710443D01*
X49383667Y-208674580D01*
X49503720Y-208590281D01*
X49606277Y-208518085D01*
X49682970Y-208463896D01*
X49725432Y-208433618D01*
X49731098Y-208429407D01*
X49726331Y-208424839D01*
X50067785Y-208424839D01*
X50091125Y-208448561D01*
X50152486Y-208498562D01*
X50243776Y-208568565D01*
X50356902Y-208652294D01*
X50419399Y-208697542D01*
X50552885Y-208792908D01*
X50648907Y-208859022D01*
X50715558Y-208899957D01*
X50760930Y-208919787D01*
X50793115Y-208922584D01*
X50820206Y-208912423D01*
X50832034Y-208905257D01*
X50879042Y-208873495D01*
X50960999Y-208816394D01*
X51067041Y-208741584D01*
X51186303Y-208656696D01*
X51207057Y-208641851D01*
X51516601Y-208420262D01*
X51162152Y-208171076D01*
X51037995Y-208084311D01*
X50929723Y-208009630D01*
X50845897Y-207952860D01*
X50795078Y-207919829D01*
X50784494Y-207913955D01*
X50753849Y-207926357D01*
X50688412Y-207965799D01*
X50597886Y-208025366D01*
X50491975Y-208098140D01*
X50380380Y-208177206D01*
X50272805Y-208255647D01*
X50178952Y-208326547D01*
X50108524Y-208382989D01*
X50071223Y-208418058D01*
X50067785Y-208424839D01*
X49726331Y-208424839D01*
X49712645Y-208411726D01*
X49656897Y-208368845D01*
X49573203Y-208307350D01*
X49470912Y-208233826D01*
X49359372Y-208154859D01*
X49247933Y-208077034D01*
X49145943Y-208006937D01*
X49062753Y-207951153D01*
X49007709Y-207916267D01*
X48990573Y-207907778D01*
X48962748Y-207923163D01*
X48897068Y-207965651D01*
X48801754Y-208029744D01*
X48685027Y-208109943D01*
X48606608Y-208164575D01*
X48239849Y-208421371D01*
X47954166Y-208421371D01*
X48012821Y-208380098D01*
X48299825Y-208178268D01*
X48573658Y-207985944D01*
X48822119Y-207811672D01*
X49177932Y-207811672D01*
X49180369Y-207814638D01*
X49217954Y-207845406D01*
X49289138Y-207898297D01*
X49383872Y-207966339D01*
X49492111Y-208042563D01*
X49603808Y-208119999D01*
X49708915Y-208191676D01*
X49797387Y-208250624D01*
X49859175Y-208289873D01*
X49883701Y-208302594D01*
X49912636Y-208287109D01*
X49978701Y-208244288D01*
X50073316Y-208179911D01*
X50187901Y-208099757D01*
X50243656Y-208060107D01*
X50363952Y-207973474D01*
X50467081Y-207897955D01*
X50544655Y-207839789D01*
X50588287Y-207805218D01*
X50594595Y-207799051D01*
X50576747Y-207777321D01*
X50520161Y-207729190D01*
X50432355Y-207660606D01*
X50320850Y-207577512D01*
X50245215Y-207522818D01*
X49884597Y-207264858D01*
X49515501Y-207522818D01*
X49372218Y-207624520D01*
X49271659Y-207700043D01*
X49208984Y-207753600D01*
X49179355Y-207789405D01*
X49177932Y-207811672D01*
X48822119Y-207811672D01*
X48830792Y-207805589D01*
X49067697Y-207639667D01*
X49280843Y-207490644D01*
X49466702Y-207360983D01*
X49621743Y-207253148D01*
X49742437Y-207169604D01*
X49825254Y-207112816D01*
X49866665Y-207085246D01*
X49870684Y-207082967D01*
X49897681Y-207097414D01*
X49966677Y-207141726D01*
X50073625Y-207213123D01*
X50214478Y-207308826D01*
X50385189Y-207426054D01*
X50581711Y-207562028D01*
X50799995Y-207713969D01*
X51035995Y-207879095D01*
X51285664Y-208054628D01*
X51297543Y-208063000D01*
X52698917Y-209050778D01*
X52699347Y-210435234D01*
X52699778Y-211819691D01*
X52248222Y-212137614D01*
X51796667Y-212455537D01*
X51796667Y-214960254D01*
X51302156Y-215314572D01*
X51154858Y-215418957D01*
X51021799Y-215511067D01*
X50910165Y-215586103D01*
X50827143Y-215639268D01*
X50779921Y-215665763D01*
X50772989Y-215667848D01*
X50745550Y-215651728D01*
X50675245Y-215605135D01*
X50565234Y-215530273D01*
X50418676Y-215429345D01*
X50238729Y-215304554D01*
X50028554Y-215158105D01*
X49791307Y-214992200D01*
X49530150Y-214809043D01*
X49248239Y-214610838D01*
X48948736Y-214399788D01*
X48634798Y-214178096D01*
X48459389Y-214054031D01*
X46180445Y-212441257D01*
X46180445Y-212193306D01*
X50047717Y-212193306D01*
X50069670Y-212213549D01*
X50128593Y-212258770D01*
X50214822Y-212322148D01*
X50318692Y-212396862D01*
X50430539Y-212476088D01*
X50540700Y-212553007D01*
X50639510Y-212620796D01*
X50717305Y-212672632D01*
X50764421Y-212701695D01*
X50773400Y-212705556D01*
X50799289Y-212690390D01*
X50863226Y-212648597D01*
X50956888Y-212585736D01*
X51071956Y-212507364D01*
X51135395Y-212463769D01*
X51257488Y-212378240D01*
X51361101Y-212303022D01*
X51438149Y-212244194D01*
X51480545Y-212207834D01*
X51486222Y-212199980D01*
X51464320Y-212176176D01*
X51405086Y-212128027D01*
X51318233Y-212062379D01*
X51213474Y-211986079D01*
X51100519Y-211905974D01*
X50989081Y-211828911D01*
X50888871Y-211761735D01*
X50809602Y-211711295D01*
X50760985Y-211684437D01*
X50751388Y-211681932D01*
X50717504Y-211700942D01*
X50650040Y-211745715D01*
X50558658Y-211809227D01*
X50453022Y-211884456D01*
X50342795Y-211964380D01*
X50237641Y-212041975D01*
X50147224Y-212110220D01*
X50081206Y-212162090D01*
X50049252Y-212190564D01*
X50047717Y-212193306D01*
X46180445Y-212193306D01*
X46180445Y-211549263D01*
X49162184Y-211549263D01*
X49176015Y-211571574D01*
X49229629Y-211619341D01*
X49315781Y-211686801D01*
X49427228Y-211768195D01*
X49510917Y-211826609D01*
X49883578Y-212082319D01*
X50168261Y-211885335D01*
X50287210Y-211802501D01*
X50396729Y-211725285D01*
X50484164Y-211662667D01*
X50534656Y-211625336D01*
X50616368Y-211562321D01*
X50409240Y-211416876D01*
X50290092Y-211332834D01*
X50164724Y-211243803D01*
X50057378Y-211167010D01*
X50043021Y-211156668D01*
X49883931Y-211041904D01*
X49535021Y-211284765D01*
X49411353Y-211371162D01*
X49303681Y-211446981D01*
X49220762Y-211506008D01*
X49171353Y-211542032D01*
X49162184Y-211549263D01*
X46180445Y-211549263D01*
X46180445Y-210935371D01*
X48241842Y-210935371D01*
X48613620Y-211197855D01*
X48740843Y-211285378D01*
X48853084Y-211358268D01*
X48941956Y-211411417D01*
X48999073Y-211439720D01*
X49015199Y-211442373D01*
X49047927Y-211420281D01*
X49117531Y-211371832D01*
X49214907Y-211303407D01*
X49330951Y-211221389D01*
X49376611Y-211189006D01*
X49494444Y-211103986D01*
X49593669Y-211029774D01*
X49666126Y-210972678D01*
X49703657Y-210939005D01*
X49707064Y-210933524D01*
X49685159Y-210912580D01*
X49626613Y-210866440D01*
X49541139Y-210802116D01*
X49438451Y-210726621D01*
X49328261Y-210646965D01*
X49220282Y-210570161D01*
X49124228Y-210503219D01*
X49049812Y-210453153D01*
X49006747Y-210426972D01*
X49003091Y-210425344D01*
X48973636Y-210437923D01*
X48906563Y-210478055D01*
X48810153Y-210540437D01*
X48692684Y-210619766D01*
X48611397Y-210676197D01*
X48241842Y-210935371D01*
X46180445Y-210935371D01*
X46180445Y-210303999D01*
X47361641Y-210303999D01*
X47550548Y-210439388D01*
X47667379Y-210523696D01*
X47792240Y-210614689D01*
X47898140Y-210692699D01*
X47898339Y-210692846D01*
X47982549Y-210752120D01*
X48052084Y-210795119D01*
X48092210Y-210812753D01*
X48092728Y-210812791D01*
X48128719Y-210797889D01*
X48199406Y-210756023D01*
X48294142Y-210693849D01*
X48389061Y-210627541D01*
X48504544Y-210544464D01*
X48612676Y-210466274D01*
X48699478Y-210403101D01*
X48742528Y-210371406D01*
X48829432Y-210306667D01*
X49145986Y-210306667D01*
X49168059Y-210327366D01*
X49227542Y-210372460D01*
X49314719Y-210435275D01*
X49419877Y-210509138D01*
X49533299Y-210587376D01*
X49645270Y-210663316D01*
X49746076Y-210730285D01*
X49826000Y-210781610D01*
X49875329Y-210810617D01*
X49885567Y-210814667D01*
X49915678Y-210799175D01*
X49983086Y-210756485D01*
X50079208Y-210692275D01*
X50195460Y-210612223D01*
X50258889Y-210567723D01*
X50380301Y-210481180D01*
X50483531Y-210405990D01*
X50560581Y-210348105D01*
X50603453Y-210313480D01*
X50609584Y-210306667D01*
X50588031Y-210286423D01*
X50528036Y-210239877D01*
X50437511Y-210172926D01*
X50324371Y-210091473D01*
X50256301Y-210043283D01*
X50111309Y-209944249D01*
X49993826Y-209870213D01*
X49909204Y-209824317D01*
X49862795Y-209809702D01*
X49859464Y-209810401D01*
X49820777Y-209832051D01*
X49749109Y-209877930D01*
X49654253Y-209941227D01*
X49546002Y-210015130D01*
X49434148Y-210092827D01*
X49328484Y-210167508D01*
X49238804Y-210232361D01*
X49174899Y-210280573D01*
X49146564Y-210305334D01*
X49145986Y-210306667D01*
X48829432Y-210306667D01*
X48835166Y-210302396D01*
X48488528Y-210059713D01*
X48364124Y-209974513D01*
X48253654Y-209902392D01*
X48166336Y-209849102D01*
X48111391Y-209820395D01*
X48099556Y-209817029D01*
X48062539Y-209832556D01*
X47988906Y-209875307D01*
X47887857Y-209939543D01*
X47768592Y-210019519D01*
X47709432Y-210060514D01*
X47361641Y-210303999D01*
X46180445Y-210303999D01*
X46180445Y-209686859D01*
X46514060Y-209686859D01*
X46517871Y-209696385D01*
X46569898Y-209741929D01*
X46651859Y-209805345D01*
X46753702Y-209879743D01*
X46865376Y-209958234D01*
X46976826Y-210033930D01*
X47078002Y-210099941D01*
X47158850Y-210149378D01*
X47209318Y-210175353D01*
X47219841Y-210177452D01*
X47255598Y-210157886D01*
X47328297Y-210112186D01*
X47428546Y-210046449D01*
X47546949Y-209966770D01*
X47593785Y-209934766D01*
X47713234Y-209851533D01*
X47814011Y-209778886D01*
X47887848Y-209722975D01*
X47926479Y-209689951D01*
X47930222Y-209684492D01*
X47919466Y-209671667D01*
X50066579Y-209671667D01*
X50087658Y-209693865D01*
X50145332Y-209741437D01*
X50230006Y-209807315D01*
X50332085Y-209884428D01*
X50441976Y-209965707D01*
X50550083Y-210044084D01*
X50646813Y-210112489D01*
X50722570Y-210163852D01*
X50767762Y-210191104D01*
X50775034Y-210193671D01*
X50799682Y-210178198D01*
X50862271Y-210135389D01*
X50954852Y-210070777D01*
X51069478Y-209989892D01*
X51147997Y-209934093D01*
X51271156Y-209845815D01*
X51375759Y-209769819D01*
X51454221Y-209711699D01*
X51498956Y-209677051D01*
X51506408Y-209669792D01*
X51482602Y-209652655D01*
X51420812Y-209608333D01*
X51328952Y-209542498D01*
X51214933Y-209460821D01*
X51138609Y-209406163D01*
X50776884Y-209147150D01*
X50422551Y-209395298D01*
X50299864Y-209482898D01*
X50195378Y-209560705D01*
X50117142Y-209622468D01*
X50073205Y-209661938D01*
X50066579Y-209671667D01*
X47919466Y-209671667D01*
X47907732Y-209657676D01*
X47846935Y-209608315D01*
X47757840Y-209543043D01*
X47650460Y-209468494D01*
X47534802Y-209391302D01*
X47420879Y-209318101D01*
X47318700Y-209255526D01*
X47238275Y-209210210D01*
X47189615Y-209188786D01*
X47181506Y-209188301D01*
X47144312Y-209209706D01*
X47070771Y-209257499D01*
X46970474Y-209325268D01*
X46853011Y-209406602D01*
X46813389Y-209434430D01*
X46676536Y-209533103D01*
X46583706Y-209605695D01*
X46530885Y-209655760D01*
X46514060Y-209686859D01*
X46180445Y-209686859D01*
X46180445Y-209669483D01*
X47038701Y-209065555D01*
G36*
X53503988Y-210943104D02*
G01*
X53779194Y-210943104D01*
X53803494Y-210960679D01*
X53865945Y-211005101D01*
X53958559Y-211070707D01*
X54073344Y-211151833D01*
X54149545Y-211205611D01*
X54512757Y-211461809D01*
X54699878Y-211329857D01*
X54815929Y-211247808D01*
X54939394Y-211160183D01*
X55042222Y-211086896D01*
X55124486Y-211027498D01*
X55188984Y-210979891D01*
X55220915Y-210955062D01*
X55206974Y-210935605D01*
X57329728Y-210935605D01*
X57702105Y-211198512D01*
X57840862Y-211296177D01*
X57941440Y-211365101D01*
X58011764Y-211409104D01*
X58059762Y-211432005D01*
X58093359Y-211437623D01*
X58120482Y-211429778D01*
X58147662Y-211413209D01*
X58199311Y-211378499D01*
X58285291Y-211319993D01*
X58393484Y-211245961D01*
X58507751Y-211167445D01*
X58617474Y-211090520D01*
X58707917Y-211024499D01*
X58770114Y-210976116D01*
X58795095Y-210952107D01*
X58795218Y-210951528D01*
X58773935Y-210931149D01*
X58716087Y-210885097D01*
X58631154Y-210820348D01*
X58528614Y-210743876D01*
X58417948Y-210662659D01*
X58308634Y-210583670D01*
X58210151Y-210513885D01*
X58131979Y-210460281D01*
X58096715Y-210437521D01*
X58058525Y-210444818D01*
X57979503Y-210486273D01*
X57862445Y-210560230D01*
X57710145Y-210665032D01*
X57695302Y-210675567D01*
X57329728Y-210935605D01*
X55206974Y-210935605D01*
X55205911Y-210934122D01*
X55153869Y-210887491D01*
X55073835Y-210822068D01*
X54974856Y-210744752D01*
X54865979Y-210662440D01*
X54756253Y-210582032D01*
X54654722Y-210510425D01*
X54570436Y-210454517D01*
X54540715Y-210436419D01*
X54503439Y-210444314D01*
X54426382Y-210484876D01*
X54313858Y-210555535D01*
X54170178Y-210653720D01*
X54138465Y-210676162D01*
X54014987Y-210764668D01*
X53910165Y-210841092D01*
X53831551Y-210899823D01*
X53786696Y-210935251D01*
X53779194Y-210943104D01*
X53503988Y-210943104D01*
X53504111Y-210919760D01*
X54363193Y-210312386D01*
X54676409Y-210312386D01*
X54697852Y-210334500D01*
X54756478Y-210381027D01*
X54842492Y-210445091D01*
X54946098Y-210519813D01*
X55057503Y-210598317D01*
X55166912Y-210673725D01*
X55264530Y-210739161D01*
X55340562Y-210787746D01*
X55385213Y-210812605D01*
X55391433Y-210814429D01*
X55422021Y-210799074D01*
X55489915Y-210756612D01*
X55586464Y-210692706D01*
X55703020Y-210613022D01*
X55765378Y-210569537D01*
X55886807Y-210483114D01*
X55989888Y-210407451D01*
X56066597Y-210348620D01*
X56108913Y-210312694D01*
X56113529Y-210306667D01*
X56454072Y-210306667D01*
X56476037Y-210328466D01*
X56535214Y-210374719D01*
X56621832Y-210438600D01*
X56726118Y-210513283D01*
X56838302Y-210591939D01*
X56948611Y-210667743D01*
X57047275Y-210733868D01*
X57124520Y-210783487D01*
X57170577Y-210809774D01*
X57177707Y-210812216D01*
X57211365Y-210797692D01*
X57282056Y-210756060D01*
X57380827Y-210692949D01*
X57498726Y-210613985D01*
X57557989Y-210573143D01*
X57679857Y-210488231D01*
X57784272Y-210415148D01*
X57862929Y-210359732D01*
X57907525Y-210327823D01*
X57914407Y-210322557D01*
X57896912Y-210303608D01*
X57841604Y-210260139D01*
X57757850Y-210198612D01*
X57655020Y-210125487D01*
X57542481Y-210047226D01*
X57429601Y-209970290D01*
X57325750Y-209901141D01*
X57240294Y-209846240D01*
X57182604Y-209812047D01*
X57162555Y-209804008D01*
X57127597Y-209824986D01*
X57059115Y-209870677D01*
X56966803Y-209934201D01*
X56860359Y-210008679D01*
X56749477Y-210087232D01*
X56643853Y-210162981D01*
X56553183Y-210229048D01*
X56487163Y-210278554D01*
X56455488Y-210304618D01*
X56454072Y-210306667D01*
X56113529Y-210306667D01*
X56114667Y-210305182D01*
X56092709Y-210283247D01*
X56032160Y-210235423D01*
X55941006Y-210167707D01*
X55827231Y-210086093D01*
X55759670Y-210038680D01*
X55404673Y-209791405D01*
X55202281Y-209932594D01*
X55083314Y-210015196D01*
X54957250Y-210102109D01*
X54849233Y-210176006D01*
X54838687Y-210183170D01*
X54758100Y-210240419D01*
X54699946Y-210286616D01*
X54676452Y-210312026D01*
X54676409Y-210312386D01*
X54363193Y-210312386D01*
X54897007Y-209934978D01*
X55240046Y-209692448D01*
X55585371Y-209692448D01*
X55612565Y-209721830D01*
X55676683Y-209773369D01*
X55767545Y-209840205D01*
X55874972Y-209915475D01*
X55988785Y-209992320D01*
X56098804Y-210063878D01*
X56194851Y-210123288D01*
X56266745Y-210163689D01*
X56304309Y-210178220D01*
X56305753Y-210177996D01*
X56340804Y-210158635D01*
X56412801Y-210112965D01*
X56512462Y-210047062D01*
X56630506Y-209967005D01*
X56679341Y-209933384D01*
X56798791Y-209849874D01*
X56899658Y-209777593D01*
X56973747Y-209722551D01*
X57012862Y-209690762D01*
X57016889Y-209685778D01*
X56994316Y-209659745D01*
X56933564Y-209610919D01*
X56844614Y-209545943D01*
X56737447Y-209471461D01*
X56622044Y-209394116D01*
X56508386Y-209320553D01*
X56406455Y-209257415D01*
X56326231Y-209211346D01*
X56277696Y-209188990D01*
X56269349Y-209188191D01*
X56219708Y-209214792D01*
X56140989Y-209265377D01*
X56042844Y-209332835D01*
X55934923Y-209410049D01*
X55826874Y-209489905D01*
X55728349Y-209565290D01*
X55648997Y-209629088D01*
X55598468Y-209674185D01*
X55585371Y-209692448D01*
X55240046Y-209692448D01*
X56289903Y-208950195D01*
X56366859Y-209000487D01*
X56403598Y-209025766D01*
X56481983Y-209080651D01*
X56597650Y-209162054D01*
X56746229Y-209266890D01*
X56923356Y-209392073D01*
X57124662Y-209534518D01*
X57345782Y-209691138D01*
X57582347Y-209858847D01*
X57775281Y-209995729D01*
X59106747Y-210940679D01*
X59092111Y-213706093D01*
X57817952Y-214609880D01*
X57575803Y-214781665D01*
X57344246Y-214945978D01*
X57127978Y-215099486D01*
X56931694Y-215238854D01*
X56760088Y-215360746D01*
X56617856Y-215461829D01*
X56509693Y-215538768D01*
X56440295Y-215588227D01*
X56420342Y-215602514D01*
X56296892Y-215691361D01*
X54893186Y-214699823D01*
X53489481Y-213708285D01*
X53496796Y-212314022D01*
X53497384Y-212201742D01*
X55547394Y-212201742D01*
X55922654Y-212464331D01*
X56297914Y-212726921D01*
X56453235Y-212614856D01*
X56553696Y-212542865D01*
X56676257Y-212455736D01*
X56796741Y-212370648D01*
X56813167Y-212359104D01*
X56904164Y-212293468D01*
X56974186Y-212239659D01*
X57012761Y-212205877D01*
X57017072Y-212199431D01*
X56994240Y-212173934D01*
X56933416Y-212125414D01*
X56844541Y-212060532D01*
X56737561Y-211985947D01*
X56622419Y-211908320D01*
X56509060Y-211834310D01*
X56407426Y-211770577D01*
X56327462Y-211723782D01*
X56279113Y-211700584D01*
X56270611Y-211699485D01*
X56235377Y-211720248D01*
X56163440Y-211767783D01*
X56063917Y-211835899D01*
X55945925Y-211918402D01*
X55890370Y-211957763D01*
X55547394Y-212201742D01*
X53497384Y-212201742D01*
X53500687Y-211572237D01*
X54676161Y-211572237D01*
X54698147Y-211592696D01*
X54757145Y-211638069D01*
X54843486Y-211701542D01*
X54947500Y-211776301D01*
X55059518Y-211855530D01*
X55169869Y-211932414D01*
X55268884Y-212000140D01*
X55346893Y-212051893D01*
X55394227Y-212080858D01*
X55403287Y-212084667D01*
X55429399Y-212069151D01*
X55493298Y-212026308D01*
X55586897Y-211961698D01*
X55702108Y-211880881D01*
X55778353Y-211826847D01*
X56116892Y-211586039D01*
X56482065Y-211586039D01*
X56487596Y-211594392D01*
X56537283Y-211636362D01*
X56617846Y-211696685D01*
X56719258Y-211768658D01*
X56831493Y-211845579D01*
X56944526Y-211920745D01*
X57048329Y-211987453D01*
X57132878Y-212039002D01*
X57188146Y-212068688D01*
X57203635Y-212073079D01*
X57236370Y-212053400D01*
X57306013Y-212006772D01*
X57403704Y-211939280D01*
X57520579Y-211857006D01*
X57578686Y-211815626D01*
X57697953Y-211729600D01*
X57798211Y-211655779D01*
X57871728Y-211599977D01*
X57910772Y-211568008D01*
X57914940Y-211562769D01*
X57890385Y-211544893D01*
X57827929Y-211499922D01*
X57735577Y-211433607D01*
X57621334Y-211351698D01*
X57547548Y-211298847D01*
X57188319Y-211041628D01*
X56819811Y-211300069D01*
X56678810Y-211400270D01*
X56579807Y-211474297D01*
X56517531Y-211526820D01*
X56486707Y-211562510D01*
X56482065Y-211586039D01*
X56116892Y-211586039D01*
X56140810Y-211569026D01*
X56036016Y-211493805D01*
X55969596Y-211446675D01*
X55871240Y-211377553D01*
X55755415Y-211296582D01*
X55661141Y-211230955D01*
X55391059Y-211043326D01*
X55033196Y-211298510D01*
X54910584Y-211387107D01*
X54806181Y-211464769D01*
X54727823Y-211525489D01*
X54683347Y-211563257D01*
X54676161Y-211572237D01*
X53500687Y-211572237D01*
X53503988Y-210943104D01*
G37*
X53503988Y-210943104D02*
X53779194Y-210943104D01*
X53803494Y-210960679D01*
X53865945Y-211005101D01*
X53958559Y-211070707D01*
X54073344Y-211151833D01*
X54149545Y-211205611D01*
X54512757Y-211461809D01*
X54699878Y-211329857D01*
X54815929Y-211247808D01*
X54939394Y-211160183D01*
X55042222Y-211086896D01*
X55124486Y-211027498D01*
X55188984Y-210979891D01*
X55220915Y-210955062D01*
X55206974Y-210935605D01*
X57329728Y-210935605D01*
X57702105Y-211198512D01*
X57840862Y-211296177D01*
X57941440Y-211365101D01*
X58011764Y-211409104D01*
X58059762Y-211432005D01*
X58093359Y-211437623D01*
X58120482Y-211429778D01*
X58147662Y-211413209D01*
X58199311Y-211378499D01*
X58285291Y-211319993D01*
X58393484Y-211245961D01*
X58507751Y-211167445D01*
X58617474Y-211090520D01*
X58707917Y-211024499D01*
X58770114Y-210976116D01*
X58795095Y-210952107D01*
X58795218Y-210951528D01*
X58773935Y-210931149D01*
X58716087Y-210885097D01*
X58631154Y-210820348D01*
X58528614Y-210743876D01*
X58417948Y-210662659D01*
X58308634Y-210583670D01*
X58210151Y-210513885D01*
X58131979Y-210460281D01*
X58096715Y-210437521D01*
X58058525Y-210444818D01*
X57979503Y-210486273D01*
X57862445Y-210560230D01*
X57710145Y-210665032D01*
X57695302Y-210675567D01*
X57329728Y-210935605D01*
X55206974Y-210935605D01*
X55205911Y-210934122D01*
X55153869Y-210887491D01*
X55073835Y-210822068D01*
X54974856Y-210744752D01*
X54865979Y-210662440D01*
X54756253Y-210582032D01*
X54654722Y-210510425D01*
X54570436Y-210454517D01*
X54540715Y-210436419D01*
X54503439Y-210444314D01*
X54426382Y-210484876D01*
X54313858Y-210555535D01*
X54170178Y-210653720D01*
X54138465Y-210676162D01*
X54014987Y-210764668D01*
X53910165Y-210841092D01*
X53831551Y-210899823D01*
X53786696Y-210935251D01*
X53779194Y-210943104D01*
X53503988Y-210943104D01*
X53504111Y-210919760D01*
X54363193Y-210312386D01*
X54676409Y-210312386D01*
X54697852Y-210334500D01*
X54756478Y-210381027D01*
X54842492Y-210445091D01*
X54946098Y-210519813D01*
X55057503Y-210598317D01*
X55166912Y-210673725D01*
X55264530Y-210739161D01*
X55340562Y-210787746D01*
X55385213Y-210812605D01*
X55391433Y-210814429D01*
X55422021Y-210799074D01*
X55489915Y-210756612D01*
X55586464Y-210692706D01*
X55703020Y-210613022D01*
X55765378Y-210569537D01*
X55886807Y-210483114D01*
X55989888Y-210407451D01*
X56066597Y-210348620D01*
X56108913Y-210312694D01*
X56113529Y-210306667D01*
X56454072Y-210306667D01*
X56476037Y-210328466D01*
X56535214Y-210374719D01*
X56621832Y-210438600D01*
X56726118Y-210513283D01*
X56838302Y-210591939D01*
X56948611Y-210667743D01*
X57047275Y-210733868D01*
X57124520Y-210783487D01*
X57170577Y-210809774D01*
X57177707Y-210812216D01*
X57211365Y-210797692D01*
X57282056Y-210756060D01*
X57380827Y-210692949D01*
X57498726Y-210613985D01*
X57557989Y-210573143D01*
X57679857Y-210488231D01*
X57784272Y-210415148D01*
X57862929Y-210359732D01*
X57907525Y-210327823D01*
X57914407Y-210322557D01*
X57896912Y-210303608D01*
X57841604Y-210260139D01*
X57757850Y-210198612D01*
X57655020Y-210125487D01*
X57542481Y-210047226D01*
X57429601Y-209970290D01*
X57325750Y-209901141D01*
X57240294Y-209846240D01*
X57182604Y-209812047D01*
X57162555Y-209804008D01*
X57127597Y-209824986D01*
X57059115Y-209870677D01*
X56966803Y-209934201D01*
X56860359Y-210008679D01*
X56749477Y-210087232D01*
X56643853Y-210162981D01*
X56553183Y-210229048D01*
X56487163Y-210278554D01*
X56455488Y-210304618D01*
X56454072Y-210306667D01*
X56113529Y-210306667D01*
X56114667Y-210305182D01*
X56092709Y-210283247D01*
X56032160Y-210235423D01*
X55941006Y-210167707D01*
X55827231Y-210086093D01*
X55759670Y-210038680D01*
X55404673Y-209791405D01*
X55202281Y-209932594D01*
X55083314Y-210015196D01*
X54957250Y-210102109D01*
X54849233Y-210176006D01*
X54838687Y-210183170D01*
X54758100Y-210240419D01*
X54699946Y-210286616D01*
X54676452Y-210312026D01*
X54676409Y-210312386D01*
X54363193Y-210312386D01*
X54897007Y-209934978D01*
X55240046Y-209692448D01*
X55585371Y-209692448D01*
X55612565Y-209721830D01*
X55676683Y-209773369D01*
X55767545Y-209840205D01*
X55874972Y-209915475D01*
X55988785Y-209992320D01*
X56098804Y-210063878D01*
X56194851Y-210123288D01*
X56266745Y-210163689D01*
X56304309Y-210178220D01*
X56305753Y-210177996D01*
X56340804Y-210158635D01*
X56412801Y-210112965D01*
X56512462Y-210047062D01*
X56630506Y-209967005D01*
X56679341Y-209933384D01*
X56798791Y-209849874D01*
X56899658Y-209777593D01*
X56973747Y-209722551D01*
X57012862Y-209690762D01*
X57016889Y-209685778D01*
X56994316Y-209659745D01*
X56933564Y-209610919D01*
X56844614Y-209545943D01*
X56737447Y-209471461D01*
X56622044Y-209394116D01*
X56508386Y-209320553D01*
X56406455Y-209257415D01*
X56326231Y-209211346D01*
X56277696Y-209188990D01*
X56269349Y-209188191D01*
X56219708Y-209214792D01*
X56140989Y-209265377D01*
X56042844Y-209332835D01*
X55934923Y-209410049D01*
X55826874Y-209489905D01*
X55728349Y-209565290D01*
X55648997Y-209629088D01*
X55598468Y-209674185D01*
X55585371Y-209692448D01*
X55240046Y-209692448D01*
X56289903Y-208950195D01*
X56366859Y-209000487D01*
X56403598Y-209025766D01*
X56481983Y-209080651D01*
X56597650Y-209162054D01*
X56746229Y-209266890D01*
X56923356Y-209392073D01*
X57124662Y-209534518D01*
X57345782Y-209691138D01*
X57582347Y-209858847D01*
X57775281Y-209995729D01*
X59106747Y-210940679D01*
X59092111Y-213706093D01*
X57817952Y-214609880D01*
X57575803Y-214781665D01*
X57344246Y-214945978D01*
X57127978Y-215099486D01*
X56931694Y-215238854D01*
X56760088Y-215360746D01*
X56617856Y-215461829D01*
X56509693Y-215538768D01*
X56440295Y-215588227D01*
X56420342Y-215602514D01*
X56296892Y-215691361D01*
X54893186Y-214699823D01*
X53489481Y-213708285D01*
X53496796Y-212314022D01*
X53497384Y-212201742D01*
X55547394Y-212201742D01*
X55922654Y-212464331D01*
X56297914Y-212726921D01*
X56453235Y-212614856D01*
X56553696Y-212542865D01*
X56676257Y-212455736D01*
X56796741Y-212370648D01*
X56813167Y-212359104D01*
X56904164Y-212293468D01*
X56974186Y-212239659D01*
X57012761Y-212205877D01*
X57017072Y-212199431D01*
X56994240Y-212173934D01*
X56933416Y-212125414D01*
X56844541Y-212060532D01*
X56737561Y-211985947D01*
X56622419Y-211908320D01*
X56509060Y-211834310D01*
X56407426Y-211770577D01*
X56327462Y-211723782D01*
X56279113Y-211700584D01*
X56270611Y-211699485D01*
X56235377Y-211720248D01*
X56163440Y-211767783D01*
X56063917Y-211835899D01*
X55945925Y-211918402D01*
X55890370Y-211957763D01*
X55547394Y-212201742D01*
X53497384Y-212201742D01*
X53500687Y-211572237D01*
X54676161Y-211572237D01*
X54698147Y-211592696D01*
X54757145Y-211638069D01*
X54843486Y-211701542D01*
X54947500Y-211776301D01*
X55059518Y-211855530D01*
X55169869Y-211932414D01*
X55268884Y-212000140D01*
X55346893Y-212051893D01*
X55394227Y-212080858D01*
X55403287Y-212084667D01*
X55429399Y-212069151D01*
X55493298Y-212026308D01*
X55586897Y-211961698D01*
X55702108Y-211880881D01*
X55778353Y-211826847D01*
X56116892Y-211586039D01*
X56482065Y-211586039D01*
X56487596Y-211594392D01*
X56537283Y-211636362D01*
X56617846Y-211696685D01*
X56719258Y-211768658D01*
X56831493Y-211845579D01*
X56944526Y-211920745D01*
X57048329Y-211987453D01*
X57132878Y-212039002D01*
X57188146Y-212068688D01*
X57203635Y-212073079D01*
X57236370Y-212053400D01*
X57306013Y-212006772D01*
X57403704Y-211939280D01*
X57520579Y-211857006D01*
X57578686Y-211815626D01*
X57697953Y-211729600D01*
X57798211Y-211655779D01*
X57871728Y-211599977D01*
X57910772Y-211568008D01*
X57914940Y-211562769D01*
X57890385Y-211544893D01*
X57827929Y-211499922D01*
X57735577Y-211433607D01*
X57621334Y-211351698D01*
X57547548Y-211298847D01*
X57188319Y-211041628D01*
X56819811Y-211300069D01*
X56678810Y-211400270D01*
X56579807Y-211474297D01*
X56517531Y-211526820D01*
X56486707Y-211562510D01*
X56482065Y-211586039D01*
X56116892Y-211586039D01*
X56140810Y-211569026D01*
X56036016Y-211493805D01*
X55969596Y-211446675D01*
X55871240Y-211377553D01*
X55755415Y-211296582D01*
X55661141Y-211230955D01*
X55391059Y-211043326D01*
X55033196Y-211298510D01*
X54910584Y-211387107D01*
X54806181Y-211464769D01*
X54727823Y-211525489D01*
X54683347Y-211563257D01*
X54676161Y-211572237D01*
X53500687Y-211572237D01*
X53503988Y-210943104D01*
G36*
X89080679Y-210927132D02*
G01*
X90277929Y-210927132D01*
X90295976Y-210947828D01*
X90350681Y-210994332D01*
X90432751Y-211059674D01*
X90532893Y-211136882D01*
X90641816Y-211218985D01*
X90750226Y-211299011D01*
X90848830Y-211369988D01*
X90928337Y-211424945D01*
X90979454Y-211456910D01*
X90990817Y-211461960D01*
X91015273Y-211447259D01*
X91077906Y-211405476D01*
X91170749Y-211342035D01*
X91285837Y-211262362D01*
X91364841Y-211207212D01*
X91488288Y-211118771D01*
X91592145Y-211040509D01*
X91668937Y-210978376D01*
X91711192Y-210938319D01*
X91716746Y-210927144D01*
X91685269Y-210897447D01*
X91617594Y-210845200D01*
X91524032Y-210777421D01*
X91414898Y-210701129D01*
X91300504Y-210623342D01*
X91191162Y-210551078D01*
X91097185Y-210491356D01*
X91028887Y-210451195D01*
X90997333Y-210437549D01*
X90962526Y-210452963D01*
X90892359Y-210494524D01*
X90797145Y-210555215D01*
X90687198Y-210628018D01*
X90572830Y-210705914D01*
X90464354Y-210781884D01*
X90372083Y-210848911D01*
X90306330Y-210899977D01*
X90277929Y-210927132D01*
X89080679Y-210927132D01*
X89080905Y-210305037D01*
X89402778Y-210305037D01*
X89424455Y-210329134D01*
X89482957Y-210377937D01*
X89568484Y-210444332D01*
X89671240Y-210521205D01*
X89781428Y-210601443D01*
X89889250Y-210677933D01*
X89984908Y-210743560D01*
X90058605Y-210791212D01*
X90100544Y-210813774D01*
X90104687Y-210814667D01*
X90135300Y-210799227D01*
X90203226Y-210756686D01*
X90299818Y-210692710D01*
X90416431Y-210612967D01*
X90479201Y-210569193D01*
X90600119Y-210482599D01*
X90701918Y-210406378D01*
X90776780Y-210346649D01*
X90816888Y-210309532D01*
X90818869Y-210305924D01*
X91180778Y-210305924D01*
X91202545Y-210330441D01*
X91261294Y-210379424D01*
X91347198Y-210445797D01*
X91450427Y-210522487D01*
X91561155Y-210602418D01*
X91669552Y-210678515D01*
X91765791Y-210743705D01*
X91840044Y-210790912D01*
X91882482Y-210813063D01*
X91886413Y-210813868D01*
X91918288Y-210798523D01*
X91986960Y-210755763D01*
X92083590Y-210691390D01*
X92199341Y-210611209D01*
X92253302Y-210572952D01*
X92372549Y-210486135D01*
X92473396Y-210409497D01*
X92547737Y-210349453D01*
X92587464Y-210312418D01*
X92591889Y-210305037D01*
X92570100Y-210280609D01*
X92511298Y-210231775D01*
X92425327Y-210165597D01*
X92322033Y-210089137D01*
X92211261Y-210009455D01*
X92102857Y-209933614D01*
X92006666Y-209868675D01*
X91932534Y-209821700D01*
X91890305Y-209799750D01*
X91886333Y-209798980D01*
X91852050Y-209814634D01*
X91783801Y-209856879D01*
X91691428Y-209918643D01*
X91584775Y-209992856D01*
X91473685Y-210072444D01*
X91368000Y-210150336D01*
X91277563Y-210219458D01*
X91212217Y-210272741D01*
X91181805Y-210303110D01*
X91180778Y-210305924D01*
X90818869Y-210305924D01*
X90821435Y-210301253D01*
X90796159Y-210276402D01*
X90733995Y-210227296D01*
X90645002Y-210161018D01*
X90539237Y-210084652D01*
X90426757Y-210005282D01*
X90317619Y-209929993D01*
X90221881Y-209865867D01*
X90149601Y-209819990D01*
X90110835Y-209799444D01*
X90108333Y-209798980D01*
X90074275Y-209814608D01*
X90006190Y-209856784D01*
X89913924Y-209918446D01*
X89807321Y-209992534D01*
X89696227Y-210071984D01*
X89590488Y-210149736D01*
X89499948Y-210218729D01*
X89434454Y-210271900D01*
X89403851Y-210302188D01*
X89402778Y-210305037D01*
X89080905Y-210305037D01*
X89080910Y-210292556D01*
X89584683Y-209942715D01*
X89733381Y-209840382D01*
X89866899Y-209750262D01*
X89978195Y-209676963D01*
X90060229Y-209625094D01*
X90105959Y-209599263D01*
X90112506Y-209597252D01*
X90142307Y-209614027D01*
X90210632Y-209658024D01*
X90309763Y-209724097D01*
X90431979Y-209807103D01*
X90566945Y-209900083D01*
X90997333Y-210198536D01*
X91432608Y-209896695D01*
X91570618Y-209801914D01*
X91693111Y-209719537D01*
X91792447Y-209654560D01*
X91860990Y-209611975D01*
X91891102Y-209596780D01*
X91891219Y-209596785D01*
X91920317Y-209612789D01*
X91988562Y-209656465D01*
X92088879Y-209723096D01*
X92214192Y-209807958D01*
X92357425Y-209906334D01*
X92414156Y-209945636D01*
X92913757Y-210292556D01*
X92919899Y-211562556D01*
X93362672Y-211873758D01*
X93805445Y-212184959D01*
X93812762Y-213567715D01*
X93820080Y-214950471D01*
X93315121Y-215309680D01*
X93165851Y-215414550D01*
X93030548Y-215507119D01*
X92916400Y-215582669D01*
X92830594Y-215636486D01*
X92780318Y-215663853D01*
X92771581Y-215666330D01*
X92740613Y-215649850D01*
X92669118Y-215604013D01*
X92562377Y-215532442D01*
X92425671Y-215438757D01*
X92264280Y-215326582D01*
X92083485Y-215199540D01*
X91888567Y-215061252D01*
X91865067Y-215044493D01*
X90997135Y-214425217D01*
X90556798Y-214737963D01*
X90418646Y-214834860D01*
X90295855Y-214918662D01*
X90195894Y-214984459D01*
X90126230Y-215027344D01*
X90094332Y-215042410D01*
X90093716Y-215042300D01*
X90064944Y-215024116D01*
X89997283Y-214977992D01*
X89897758Y-214908821D01*
X89773392Y-214821497D01*
X89631210Y-214720912D01*
X89575208Y-214681112D01*
X89079446Y-214328334D01*
X89080224Y-212180798D01*
X92066661Y-212180798D01*
X92083964Y-212206286D01*
X92139397Y-212255162D01*
X92223333Y-212320723D01*
X92326147Y-212396265D01*
X92438211Y-212475086D01*
X92549900Y-212550484D01*
X92651588Y-212615755D01*
X92733649Y-212664199D01*
X92786455Y-212689110D01*
X92798893Y-212690643D01*
X92834254Y-212670087D01*
X92906105Y-212622567D01*
X93005295Y-212554323D01*
X93122671Y-212471598D01*
X93175141Y-212434071D01*
X93292109Y-212347694D01*
X93388378Y-212272047D01*
X93456560Y-212213306D01*
X93489268Y-212177649D01*
X93490248Y-212170587D01*
X93458759Y-212146838D01*
X93391597Y-212098182D01*
X93299266Y-212032177D01*
X93212778Y-211970862D01*
X93098953Y-211890145D01*
X92993171Y-211814588D01*
X92909530Y-211754293D01*
X92871547Y-211726455D01*
X92784316Y-211661486D01*
X92430985Y-211908354D01*
X92307667Y-211995633D01*
X92201624Y-212072806D01*
X92121179Y-212133647D01*
X92074656Y-212171933D01*
X92066661Y-212180798D01*
X89080224Y-212180798D01*
X89080452Y-211552875D01*
X89389751Y-211552875D01*
X89411192Y-211578726D01*
X89470429Y-211627727D01*
X89557717Y-211693232D01*
X89663313Y-211768593D01*
X89777472Y-211847164D01*
X89890450Y-211922298D01*
X89992502Y-211987349D01*
X90073883Y-212035671D01*
X90124851Y-212060616D01*
X90136248Y-212062058D01*
X90169851Y-212039711D01*
X90240798Y-211991540D01*
X90339968Y-211923771D01*
X90458240Y-211842628D01*
X90511533Y-211805976D01*
X90854959Y-211569617D01*
X90854171Y-211569051D01*
X91140489Y-211569051D01*
X91512283Y-211824862D01*
X91639997Y-211910466D01*
X91752518Y-211981617D01*
X91841362Y-212033284D01*
X91898045Y-212060438D01*
X91913427Y-212062691D01*
X91945935Y-212040541D01*
X92015270Y-211991920D01*
X92112371Y-211923227D01*
X92228177Y-211840858D01*
X92274389Y-211807883D01*
X92392088Y-211722571D01*
X92491245Y-211648309D01*
X92563729Y-211591371D01*
X92601410Y-211558037D01*
X92604916Y-211552695D01*
X92582463Y-211531228D01*
X92521259Y-211484114D01*
X92429350Y-211417263D01*
X92314784Y-211336584D01*
X92246319Y-211289341D01*
X91888807Y-211044348D01*
X91619459Y-211231466D01*
X91500182Y-211314541D01*
X91386931Y-211393793D01*
X91294211Y-211459050D01*
X91245300Y-211493818D01*
X91140489Y-211569051D01*
X90854171Y-211569051D01*
X90749758Y-211494101D01*
X90683093Y-211446794D01*
X90584552Y-211377539D01*
X90468662Y-211296523D01*
X90375208Y-211231466D01*
X90105860Y-211044348D01*
X89748347Y-211289341D01*
X89624887Y-211375044D01*
X89519740Y-211450129D01*
X89440954Y-211508684D01*
X89396575Y-211544792D01*
X89389751Y-211552875D01*
X89080452Y-211552875D01*
X89080679Y-210927132D01*
G37*
X89080679Y-210927132D02*
X90277929Y-210927132D01*
X90295976Y-210947828D01*
X90350681Y-210994332D01*
X90432751Y-211059674D01*
X90532893Y-211136882D01*
X90641816Y-211218985D01*
X90750226Y-211299011D01*
X90848830Y-211369988D01*
X90928337Y-211424945D01*
X90979454Y-211456910D01*
X90990817Y-211461960D01*
X91015273Y-211447259D01*
X91077906Y-211405476D01*
X91170749Y-211342035D01*
X91285837Y-211262362D01*
X91364841Y-211207212D01*
X91488288Y-211118771D01*
X91592145Y-211040509D01*
X91668937Y-210978376D01*
X91711192Y-210938319D01*
X91716746Y-210927144D01*
X91685269Y-210897447D01*
X91617594Y-210845200D01*
X91524032Y-210777421D01*
X91414898Y-210701129D01*
X91300504Y-210623342D01*
X91191162Y-210551078D01*
X91097185Y-210491356D01*
X91028887Y-210451195D01*
X90997333Y-210437549D01*
X90962526Y-210452963D01*
X90892359Y-210494524D01*
X90797145Y-210555215D01*
X90687198Y-210628018D01*
X90572830Y-210705914D01*
X90464354Y-210781884D01*
X90372083Y-210848911D01*
X90306330Y-210899977D01*
X90277929Y-210927132D01*
X89080679Y-210927132D01*
X89080905Y-210305037D01*
X89402778Y-210305037D01*
X89424455Y-210329134D01*
X89482957Y-210377937D01*
X89568484Y-210444332D01*
X89671240Y-210521205D01*
X89781428Y-210601443D01*
X89889250Y-210677933D01*
X89984908Y-210743560D01*
X90058605Y-210791212D01*
X90100544Y-210813774D01*
X90104687Y-210814667D01*
X90135300Y-210799227D01*
X90203226Y-210756686D01*
X90299818Y-210692710D01*
X90416431Y-210612967D01*
X90479201Y-210569193D01*
X90600119Y-210482599D01*
X90701918Y-210406378D01*
X90776780Y-210346649D01*
X90816888Y-210309532D01*
X90818869Y-210305924D01*
X91180778Y-210305924D01*
X91202545Y-210330441D01*
X91261294Y-210379424D01*
X91347198Y-210445797D01*
X91450427Y-210522487D01*
X91561155Y-210602418D01*
X91669552Y-210678515D01*
X91765791Y-210743705D01*
X91840044Y-210790912D01*
X91882482Y-210813063D01*
X91886413Y-210813868D01*
X91918288Y-210798523D01*
X91986960Y-210755763D01*
X92083590Y-210691390D01*
X92199341Y-210611209D01*
X92253302Y-210572952D01*
X92372549Y-210486135D01*
X92473396Y-210409497D01*
X92547737Y-210349453D01*
X92587464Y-210312418D01*
X92591889Y-210305037D01*
X92570100Y-210280609D01*
X92511298Y-210231775D01*
X92425327Y-210165597D01*
X92322033Y-210089137D01*
X92211261Y-210009455D01*
X92102857Y-209933614D01*
X92006666Y-209868675D01*
X91932534Y-209821700D01*
X91890305Y-209799750D01*
X91886333Y-209798980D01*
X91852050Y-209814634D01*
X91783801Y-209856879D01*
X91691428Y-209918643D01*
X91584775Y-209992856D01*
X91473685Y-210072444D01*
X91368000Y-210150336D01*
X91277563Y-210219458D01*
X91212217Y-210272741D01*
X91181805Y-210303110D01*
X91180778Y-210305924D01*
X90818869Y-210305924D01*
X90821435Y-210301253D01*
X90796159Y-210276402D01*
X90733995Y-210227296D01*
X90645002Y-210161018D01*
X90539237Y-210084652D01*
X90426757Y-210005282D01*
X90317619Y-209929993D01*
X90221881Y-209865867D01*
X90149601Y-209819990D01*
X90110835Y-209799444D01*
X90108333Y-209798980D01*
X90074275Y-209814608D01*
X90006190Y-209856784D01*
X89913924Y-209918446D01*
X89807321Y-209992534D01*
X89696227Y-210071984D01*
X89590488Y-210149736D01*
X89499948Y-210218729D01*
X89434454Y-210271900D01*
X89403851Y-210302188D01*
X89402778Y-210305037D01*
X89080905Y-210305037D01*
X89080910Y-210292556D01*
X89584683Y-209942715D01*
X89733381Y-209840382D01*
X89866899Y-209750262D01*
X89978195Y-209676963D01*
X90060229Y-209625094D01*
X90105959Y-209599263D01*
X90112506Y-209597252D01*
X90142307Y-209614027D01*
X90210632Y-209658024D01*
X90309763Y-209724097D01*
X90431979Y-209807103D01*
X90566945Y-209900083D01*
X90997333Y-210198536D01*
X91432608Y-209896695D01*
X91570618Y-209801914D01*
X91693111Y-209719537D01*
X91792447Y-209654560D01*
X91860990Y-209611975D01*
X91891102Y-209596780D01*
X91891219Y-209596785D01*
X91920317Y-209612789D01*
X91988562Y-209656465D01*
X92088879Y-209723096D01*
X92214192Y-209807958D01*
X92357425Y-209906334D01*
X92414156Y-209945636D01*
X92913757Y-210292556D01*
X92919899Y-211562556D01*
X93362672Y-211873758D01*
X93805445Y-212184959D01*
X93812762Y-213567715D01*
X93820080Y-214950471D01*
X93315121Y-215309680D01*
X93165851Y-215414550D01*
X93030548Y-215507119D01*
X92916400Y-215582669D01*
X92830594Y-215636486D01*
X92780318Y-215663853D01*
X92771581Y-215666330D01*
X92740613Y-215649850D01*
X92669118Y-215604013D01*
X92562377Y-215532442D01*
X92425671Y-215438757D01*
X92264280Y-215326582D01*
X92083485Y-215199540D01*
X91888567Y-215061252D01*
X91865067Y-215044493D01*
X90997135Y-214425217D01*
X90556798Y-214737963D01*
X90418646Y-214834860D01*
X90295855Y-214918662D01*
X90195894Y-214984459D01*
X90126230Y-215027344D01*
X90094332Y-215042410D01*
X90093716Y-215042300D01*
X90064944Y-215024116D01*
X89997283Y-214977992D01*
X89897758Y-214908821D01*
X89773392Y-214821497D01*
X89631210Y-214720912D01*
X89575208Y-214681112D01*
X89079446Y-214328334D01*
X89080224Y-212180798D01*
X92066661Y-212180798D01*
X92083964Y-212206286D01*
X92139397Y-212255162D01*
X92223333Y-212320723D01*
X92326147Y-212396265D01*
X92438211Y-212475086D01*
X92549900Y-212550484D01*
X92651588Y-212615755D01*
X92733649Y-212664199D01*
X92786455Y-212689110D01*
X92798893Y-212690643D01*
X92834254Y-212670087D01*
X92906105Y-212622567D01*
X93005295Y-212554323D01*
X93122671Y-212471598D01*
X93175141Y-212434071D01*
X93292109Y-212347694D01*
X93388378Y-212272047D01*
X93456560Y-212213306D01*
X93489268Y-212177649D01*
X93490248Y-212170587D01*
X93458759Y-212146838D01*
X93391597Y-212098182D01*
X93299266Y-212032177D01*
X93212778Y-211970862D01*
X93098953Y-211890145D01*
X92993171Y-211814588D01*
X92909530Y-211754293D01*
X92871547Y-211726455D01*
X92784316Y-211661486D01*
X92430985Y-211908354D01*
X92307667Y-211995633D01*
X92201624Y-212072806D01*
X92121179Y-212133647D01*
X92074656Y-212171933D01*
X92066661Y-212180798D01*
X89080224Y-212180798D01*
X89080452Y-211552875D01*
X89389751Y-211552875D01*
X89411192Y-211578726D01*
X89470429Y-211627727D01*
X89557717Y-211693232D01*
X89663313Y-211768593D01*
X89777472Y-211847164D01*
X89890450Y-211922298D01*
X89992502Y-211987349D01*
X90073883Y-212035671D01*
X90124851Y-212060616D01*
X90136248Y-212062058D01*
X90169851Y-212039711D01*
X90240798Y-211991540D01*
X90339968Y-211923771D01*
X90458240Y-211842628D01*
X90511533Y-211805976D01*
X90854959Y-211569617D01*
X90854171Y-211569051D01*
X91140489Y-211569051D01*
X91512283Y-211824862D01*
X91639997Y-211910466D01*
X91752518Y-211981617D01*
X91841362Y-212033284D01*
X91898045Y-212060438D01*
X91913427Y-212062691D01*
X91945935Y-212040541D01*
X92015270Y-211991920D01*
X92112371Y-211923227D01*
X92228177Y-211840858D01*
X92274389Y-211807883D01*
X92392088Y-211722571D01*
X92491245Y-211648309D01*
X92563729Y-211591371D01*
X92601410Y-211558037D01*
X92604916Y-211552695D01*
X92582463Y-211531228D01*
X92521259Y-211484114D01*
X92429350Y-211417263D01*
X92314784Y-211336584D01*
X92246319Y-211289341D01*
X91888807Y-211044348D01*
X91619459Y-211231466D01*
X91500182Y-211314541D01*
X91386931Y-211393793D01*
X91294211Y-211459050D01*
X91245300Y-211493818D01*
X91140489Y-211569051D01*
X90854171Y-211569051D01*
X90749758Y-211494101D01*
X90683093Y-211446794D01*
X90584552Y-211377539D01*
X90468662Y-211296523D01*
X90375208Y-211231466D01*
X90105860Y-211044348D01*
X89748347Y-211289341D01*
X89624887Y-211375044D01*
X89519740Y-211450129D01*
X89440954Y-211508684D01*
X89396575Y-211544792D01*
X89389751Y-211552875D01*
X89080452Y-211552875D01*
X89080679Y-210927132D01*
G36*
X83180235Y-209308337D02*
G01*
X83374347Y-209173665D01*
X83526901Y-209072749D01*
X83637220Y-209006006D01*
X83704629Y-208973852D01*
X83725719Y-208972020D01*
X83759214Y-208994289D01*
X83831526Y-209043687D01*
X83935176Y-209115060D01*
X84062683Y-209203252D01*
X84206564Y-209303108D01*
X84247374Y-209331487D01*
X84732000Y-209668641D01*
X84732000Y-210728711D01*
X85091833Y-210474563D01*
X85216772Y-210387185D01*
X85325936Y-210312469D01*
X85410876Y-210256071D01*
X85463144Y-210223647D01*
X85475052Y-210218063D01*
X85501681Y-210233480D01*
X85570317Y-210278722D01*
X85676910Y-210350985D01*
X85817409Y-210447466D01*
X85987764Y-210565361D01*
X86183922Y-210701867D01*
X86401834Y-210854179D01*
X86637449Y-211019495D01*
X86886716Y-211195010D01*
X86893192Y-211199578D01*
X88287947Y-212183445D01*
X88287974Y-213570583D01*
X88288000Y-214957720D01*
X87801167Y-215303603D01*
X87654928Y-215407507D01*
X87523569Y-215500848D01*
X87414314Y-215578493D01*
X87334386Y-215635308D01*
X87291009Y-215666160D01*
X87286111Y-215669650D01*
X87258663Y-215657399D01*
X87189295Y-215615130D01*
X87082052Y-215545586D01*
X86940977Y-215451510D01*
X86770114Y-215335645D01*
X86573508Y-215200736D01*
X86355203Y-215049525D01*
X86119242Y-214884755D01*
X85869669Y-214709171D01*
X85854744Y-214698630D01*
X84451598Y-213707445D01*
X84443632Y-213180213D01*
X84435667Y-212652982D01*
X84074721Y-212907639D01*
X83931636Y-213005689D01*
X83813790Y-213080579D01*
X83727135Y-213128788D01*
X83677618Y-213146796D01*
X83671704Y-213146153D01*
X83636868Y-213125449D01*
X83563751Y-213076905D01*
X83459863Y-213005683D01*
X83332712Y-212916946D01*
X83189809Y-212815856D01*
X83150705Y-212787975D01*
X82671778Y-212445943D01*
X82671778Y-212190196D01*
X86511691Y-212190196D01*
X86870679Y-212445445D01*
X86995284Y-212533201D01*
X87104098Y-212608249D01*
X87188703Y-212664909D01*
X87240683Y-212697499D01*
X87252464Y-212703125D01*
X87282314Y-212688494D01*
X87349463Y-212646562D01*
X87445357Y-212582942D01*
X87561440Y-212503249D01*
X87625112Y-212458612D01*
X87746637Y-212371730D01*
X87849998Y-212295736D01*
X87927166Y-212236698D01*
X87970115Y-212200686D01*
X87976259Y-212193125D01*
X87954921Y-212171238D01*
X87895188Y-212122958D01*
X87804885Y-212054290D01*
X87691835Y-211971243D01*
X87619693Y-211919399D01*
X87261830Y-211664214D01*
X86991748Y-211851844D01*
X86872323Y-211935022D01*
X86758920Y-212014380D01*
X86666017Y-212079765D01*
X86616679Y-212114834D01*
X86511691Y-212190196D01*
X82671778Y-212190196D01*
X82671778Y-211586101D01*
X85663812Y-211586101D01*
X85669373Y-211594513D01*
X85699860Y-211618389D01*
X85765946Y-211666804D01*
X85857339Y-211732495D01*
X85963750Y-211808194D01*
X86074889Y-211886638D01*
X86180466Y-211960560D01*
X86270191Y-212022695D01*
X86333773Y-212065779D01*
X86360268Y-212082316D01*
X86383889Y-212067675D01*
X86445537Y-212025720D01*
X86537304Y-211961933D01*
X86651278Y-211881796D01*
X86727157Y-211828057D01*
X86851125Y-211739897D01*
X86957885Y-211663715D01*
X87039404Y-211605263D01*
X87087648Y-211570295D01*
X87097254Y-211563007D01*
X87078335Y-211544976D01*
X87020445Y-211500605D01*
X86931170Y-211435464D01*
X86818097Y-211355124D01*
X86737240Y-211298647D01*
X86368528Y-211042728D01*
X86000804Y-211300618D01*
X85860022Y-211400663D01*
X85761220Y-211474545D01*
X85699109Y-211526953D01*
X85668402Y-211562575D01*
X85663812Y-211586101D01*
X82671778Y-211586101D01*
X82671778Y-210944841D01*
X84739878Y-210944841D01*
X84765444Y-210963782D01*
X84829180Y-211009233D01*
X84922944Y-211075437D01*
X85038594Y-211156636D01*
X85112649Y-211208443D01*
X85474960Y-211461586D01*
X85745536Y-211273613D01*
X85864947Y-211190446D01*
X85978231Y-211111177D01*
X86070972Y-211045913D01*
X86120421Y-211010769D01*
X86224730Y-210935899D01*
X85868438Y-210684783D01*
X85744155Y-210597572D01*
X85635930Y-210522354D01*
X85552235Y-210464961D01*
X85501542Y-210431225D01*
X85490872Y-210424896D01*
X85462648Y-210437048D01*
X85399105Y-210475329D01*
X85309594Y-210533262D01*
X85203468Y-210604374D01*
X85090080Y-210682190D01*
X84978780Y-210760235D01*
X84878921Y-210832034D01*
X84799855Y-210891113D01*
X84750933Y-210930996D01*
X84739878Y-210944841D01*
X82671778Y-210944841D01*
X82671778Y-209677548D01*
X82964793Y-209677548D01*
X82992512Y-209699251D01*
X83055685Y-209745726D01*
X83144684Y-209810120D01*
X83249885Y-209885580D01*
X83361661Y-209965254D01*
X83470385Y-210042288D01*
X83566431Y-210109831D01*
X83640174Y-210161028D01*
X83681987Y-210189028D01*
X83687778Y-210192233D01*
X83714554Y-210177308D01*
X83779034Y-210135286D01*
X83872902Y-210071758D01*
X83987846Y-209992313D01*
X84052957Y-209946727D01*
X84174665Y-209859307D01*
X84277809Y-209781698D01*
X84354417Y-209720180D01*
X84396515Y-209681033D01*
X84402126Y-209671667D01*
X84379476Y-209646497D01*
X84318286Y-209595733D01*
X84226615Y-209525628D01*
X84112523Y-209442436D01*
X84046194Y-209395508D01*
X83692161Y-209147571D01*
X83325641Y-209409619D01*
X83202128Y-209498513D01*
X83097090Y-209575235D01*
X83018092Y-209634165D01*
X82972703Y-209669686D01*
X82964793Y-209677548D01*
X82671778Y-209677548D01*
X82671778Y-209666967D01*
X83180235Y-209308337D01*
G37*
X83180235Y-209308337D02*
X83374347Y-209173665D01*
X83526901Y-209072749D01*
X83637220Y-209006006D01*
X83704629Y-208973852D01*
X83725719Y-208972020D01*
X83759214Y-208994289D01*
X83831526Y-209043687D01*
X83935176Y-209115060D01*
X84062683Y-209203252D01*
X84206564Y-209303108D01*
X84247374Y-209331487D01*
X84732000Y-209668641D01*
X84732000Y-210728711D01*
X85091833Y-210474563D01*
X85216772Y-210387185D01*
X85325936Y-210312469D01*
X85410876Y-210256071D01*
X85463144Y-210223647D01*
X85475052Y-210218063D01*
X85501681Y-210233480D01*
X85570317Y-210278722D01*
X85676910Y-210350985D01*
X85817409Y-210447466D01*
X85987764Y-210565361D01*
X86183922Y-210701867D01*
X86401834Y-210854179D01*
X86637449Y-211019495D01*
X86886716Y-211195010D01*
X86893192Y-211199578D01*
X88287947Y-212183445D01*
X88287974Y-213570583D01*
X88288000Y-214957720D01*
X87801167Y-215303603D01*
X87654928Y-215407507D01*
X87523569Y-215500848D01*
X87414314Y-215578493D01*
X87334386Y-215635308D01*
X87291009Y-215666160D01*
X87286111Y-215669650D01*
X87258663Y-215657399D01*
X87189295Y-215615130D01*
X87082052Y-215545586D01*
X86940977Y-215451510D01*
X86770114Y-215335645D01*
X86573508Y-215200736D01*
X86355203Y-215049525D01*
X86119242Y-214884755D01*
X85869669Y-214709171D01*
X85854744Y-214698630D01*
X84451598Y-213707445D01*
X84443632Y-213180213D01*
X84435667Y-212652982D01*
X84074721Y-212907639D01*
X83931636Y-213005689D01*
X83813790Y-213080579D01*
X83727135Y-213128788D01*
X83677618Y-213146796D01*
X83671704Y-213146153D01*
X83636868Y-213125449D01*
X83563751Y-213076905D01*
X83459863Y-213005683D01*
X83332712Y-212916946D01*
X83189809Y-212815856D01*
X83150705Y-212787975D01*
X82671778Y-212445943D01*
X82671778Y-212190196D01*
X86511691Y-212190196D01*
X86870679Y-212445445D01*
X86995284Y-212533201D01*
X87104098Y-212608249D01*
X87188703Y-212664909D01*
X87240683Y-212697499D01*
X87252464Y-212703125D01*
X87282314Y-212688494D01*
X87349463Y-212646562D01*
X87445357Y-212582942D01*
X87561440Y-212503249D01*
X87625112Y-212458612D01*
X87746637Y-212371730D01*
X87849998Y-212295736D01*
X87927166Y-212236698D01*
X87970115Y-212200686D01*
X87976259Y-212193125D01*
X87954921Y-212171238D01*
X87895188Y-212122958D01*
X87804885Y-212054290D01*
X87691835Y-211971243D01*
X87619693Y-211919399D01*
X87261830Y-211664214D01*
X86991748Y-211851844D01*
X86872323Y-211935022D01*
X86758920Y-212014380D01*
X86666017Y-212079765D01*
X86616679Y-212114834D01*
X86511691Y-212190196D01*
X82671778Y-212190196D01*
X82671778Y-211586101D01*
X85663812Y-211586101D01*
X85669373Y-211594513D01*
X85699860Y-211618389D01*
X85765946Y-211666804D01*
X85857339Y-211732495D01*
X85963750Y-211808194D01*
X86074889Y-211886638D01*
X86180466Y-211960560D01*
X86270191Y-212022695D01*
X86333773Y-212065779D01*
X86360268Y-212082316D01*
X86383889Y-212067675D01*
X86445537Y-212025720D01*
X86537304Y-211961933D01*
X86651278Y-211881796D01*
X86727157Y-211828057D01*
X86851125Y-211739897D01*
X86957885Y-211663715D01*
X87039404Y-211605263D01*
X87087648Y-211570295D01*
X87097254Y-211563007D01*
X87078335Y-211544976D01*
X87020445Y-211500605D01*
X86931170Y-211435464D01*
X86818097Y-211355124D01*
X86737240Y-211298647D01*
X86368528Y-211042728D01*
X86000804Y-211300618D01*
X85860022Y-211400663D01*
X85761220Y-211474545D01*
X85699109Y-211526953D01*
X85668402Y-211562575D01*
X85663812Y-211586101D01*
X82671778Y-211586101D01*
X82671778Y-210944841D01*
X84739878Y-210944841D01*
X84765444Y-210963782D01*
X84829180Y-211009233D01*
X84922944Y-211075437D01*
X85038594Y-211156636D01*
X85112649Y-211208443D01*
X85474960Y-211461586D01*
X85745536Y-211273613D01*
X85864947Y-211190446D01*
X85978231Y-211111177D01*
X86070972Y-211045913D01*
X86120421Y-211010769D01*
X86224730Y-210935899D01*
X85868438Y-210684783D01*
X85744155Y-210597572D01*
X85635930Y-210522354D01*
X85552235Y-210464961D01*
X85501542Y-210431225D01*
X85490872Y-210424896D01*
X85462648Y-210437048D01*
X85399105Y-210475329D01*
X85309594Y-210533262D01*
X85203468Y-210604374D01*
X85090080Y-210682190D01*
X84978780Y-210760235D01*
X84878921Y-210832034D01*
X84799855Y-210891113D01*
X84750933Y-210930996D01*
X84739878Y-210944841D01*
X82671778Y-210944841D01*
X82671778Y-209677548D01*
X82964793Y-209677548D01*
X82992512Y-209699251D01*
X83055685Y-209745726D01*
X83144684Y-209810120D01*
X83249885Y-209885580D01*
X83361661Y-209965254D01*
X83470385Y-210042288D01*
X83566431Y-210109831D01*
X83640174Y-210161028D01*
X83681987Y-210189028D01*
X83687778Y-210192233D01*
X83714554Y-210177308D01*
X83779034Y-210135286D01*
X83872902Y-210071758D01*
X83987846Y-209992313D01*
X84052957Y-209946727D01*
X84174665Y-209859307D01*
X84277809Y-209781698D01*
X84354417Y-209720180D01*
X84396515Y-209681033D01*
X84402126Y-209671667D01*
X84379476Y-209646497D01*
X84318286Y-209595733D01*
X84226615Y-209525628D01*
X84112523Y-209442436D01*
X84046194Y-209395508D01*
X83692161Y-209147571D01*
X83325641Y-209409619D01*
X83202128Y-209498513D01*
X83097090Y-209575235D01*
X83018092Y-209634165D01*
X82972703Y-209669686D01*
X82964793Y-209677548D01*
X82671778Y-209677548D01*
X82671778Y-209666967D01*
X83180235Y-209308337D01*
G36*
X66813947Y-210564627D02*
G01*
X67325006Y-210198911D01*
X67695892Y-210464983D01*
X68066778Y-210731054D01*
X68078048Y-210303417D01*
X69261277Y-210303417D01*
X69450588Y-210439098D01*
X69567457Y-210523431D01*
X69692312Y-210614417D01*
X69798238Y-210692442D01*
X69798783Y-210692846D01*
X69882993Y-210752120D01*
X69952528Y-210795119D01*
X69992655Y-210812753D01*
X69993172Y-210812791D01*
X70029164Y-210797889D01*
X70099850Y-210756023D01*
X70194586Y-210693849D01*
X70289506Y-210627541D01*
X70405046Y-210544421D01*
X70513291Y-210466145D01*
X70600237Y-210402862D01*
X70643374Y-210371100D01*
X70736414Y-210301784D01*
X70380644Y-210050226D01*
X70256362Y-209963433D01*
X70147705Y-209889597D01*
X70063206Y-209834356D01*
X70011396Y-209803349D01*
X70000000Y-209798667D01*
X69969475Y-209814192D01*
X69901620Y-209857014D01*
X69804953Y-209921504D01*
X69687989Y-210002031D01*
X69618201Y-210051042D01*
X69261277Y-210303417D01*
X68078048Y-210303417D01*
X68080889Y-210195643D01*
X68094792Y-209668109D01*
X68392814Y-209668109D01*
X68411930Y-209693929D01*
X68468898Y-209743305D01*
X68553993Y-209809428D01*
X68657489Y-209885484D01*
X68769660Y-209964663D01*
X68880780Y-210040151D01*
X68981123Y-210105139D01*
X69060964Y-210152813D01*
X69110577Y-210176361D01*
X69120022Y-210177431D01*
X69155256Y-210157830D01*
X69227475Y-210111584D01*
X69327620Y-210044693D01*
X69446632Y-209963159D01*
X69507661Y-209920678D01*
X69628547Y-209835474D01*
X69730504Y-209762404D01*
X69805742Y-209707147D01*
X69846473Y-209675383D01*
X69851417Y-209670024D01*
X69824047Y-209650213D01*
X69760343Y-209605186D01*
X69670320Y-209541940D01*
X69563994Y-209467474D01*
X69451380Y-209388783D01*
X69342495Y-209312865D01*
X69247354Y-209246718D01*
X69175972Y-209197338D01*
X69138365Y-209171722D01*
X69135873Y-209170124D01*
X69104789Y-209179584D01*
X69037968Y-209215709D01*
X68945266Y-209271892D01*
X68836542Y-209341528D01*
X68721653Y-209418010D01*
X68610457Y-209494731D01*
X68512812Y-209565086D01*
X68438576Y-209622466D01*
X68397606Y-209660267D01*
X68392814Y-209668109D01*
X68094792Y-209668109D01*
X68095000Y-209660233D01*
X69105930Y-208948845D01*
X69249576Y-209048542D01*
X69293306Y-209079237D01*
X69379589Y-209140122D01*
X69504943Y-209228730D01*
X69665883Y-209342593D01*
X69858925Y-209479245D01*
X70080585Y-209636217D01*
X70327380Y-209811044D01*
X70595826Y-210001258D01*
X70882438Y-210204391D01*
X71183733Y-210417976D01*
X71496227Y-210639546D01*
X71538111Y-210669247D01*
X73683000Y-212190255D01*
X73690318Y-213571294D01*
X73697637Y-214952334D01*
X72321541Y-215926586D01*
X72073432Y-216102179D01*
X71838684Y-216268194D01*
X71621404Y-216421735D01*
X71425698Y-216559905D01*
X71255675Y-216679807D01*
X71115442Y-216778545D01*
X71009106Y-216853221D01*
X70940775Y-216900940D01*
X70914746Y-216918699D01*
X70883703Y-216908379D01*
X70813833Y-216869554D01*
X70712159Y-216806636D01*
X70585707Y-216724035D01*
X70441501Y-216626164D01*
X70372083Y-216577891D01*
X69860119Y-216219223D01*
X69858889Y-215162919D01*
X69488099Y-215422960D01*
X69362296Y-215510797D01*
X69253585Y-215585958D01*
X69169930Y-215642996D01*
X69119296Y-215676465D01*
X69107877Y-215683000D01*
X69083780Y-215667171D01*
X69017596Y-215621553D01*
X68913321Y-215548949D01*
X68774952Y-215452163D01*
X68606484Y-215333998D01*
X68411916Y-215197256D01*
X68195242Y-215044742D01*
X67960459Y-214879259D01*
X67711565Y-214703610D01*
X67700667Y-214695914D01*
X66302889Y-213708829D01*
X66302889Y-213447892D01*
X70173832Y-213447892D01*
X70193399Y-213469369D01*
X70249457Y-213516505D01*
X70332525Y-213582208D01*
X70433120Y-213659387D01*
X70541762Y-213740951D01*
X70648968Y-213819809D01*
X70745258Y-213888870D01*
X70821149Y-213941044D01*
X70867161Y-213969238D01*
X70874889Y-213972196D01*
X70901646Y-213957343D01*
X70966060Y-213915335D01*
X71059816Y-213851771D01*
X71174601Y-213772249D01*
X71239121Y-213726955D01*
X71360794Y-213639488D01*
X71464159Y-213561978D01*
X71541180Y-213500707D01*
X71583819Y-213461957D01*
X71589737Y-213452909D01*
X71568539Y-213429701D01*
X71511085Y-213380925D01*
X71427027Y-213313854D01*
X71326015Y-213235762D01*
X71217699Y-213153925D01*
X71111730Y-213075615D01*
X71017758Y-213008108D01*
X70945435Y-212958676D01*
X70904410Y-212934595D01*
X70900538Y-212933421D01*
X70871499Y-212948044D01*
X70806847Y-212989292D01*
X70716359Y-213050242D01*
X70609816Y-213123972D01*
X70496995Y-213203559D01*
X70387675Y-213282078D01*
X70291636Y-213352609D01*
X70218656Y-213408227D01*
X70178514Y-213442010D01*
X70173832Y-213447892D01*
X66302889Y-213447892D01*
X66302889Y-212843208D01*
X71059465Y-212843208D01*
X71098962Y-212875611D01*
X71172134Y-212929432D01*
X71268789Y-212997755D01*
X71378737Y-213073666D01*
X71491785Y-213150248D01*
X71597742Y-213220587D01*
X71686418Y-213277766D01*
X71747620Y-213314871D01*
X71770166Y-213325467D01*
X71804259Y-213310325D01*
X71875339Y-213267949D01*
X71974517Y-213203989D01*
X72092903Y-213124096D01*
X72157148Y-213079500D01*
X72279110Y-212993179D01*
X72382782Y-212918133D01*
X72460189Y-212860267D01*
X72503358Y-212825487D01*
X72509630Y-212818445D01*
X72487331Y-212794160D01*
X72427044Y-212746658D01*
X72338684Y-212682577D01*
X72232166Y-212608555D01*
X72117405Y-212531229D01*
X72004317Y-212457238D01*
X71902816Y-212393218D01*
X71822817Y-212345807D01*
X71774235Y-212321643D01*
X71765259Y-212320125D01*
X71721526Y-212344421D01*
X71647446Y-212393176D01*
X71552308Y-212459506D01*
X71445404Y-212536524D01*
X71336025Y-212617345D01*
X71233461Y-212695083D01*
X71147003Y-212762853D01*
X71085941Y-212813769D01*
X71059566Y-212840946D01*
X71059465Y-212843208D01*
X66302889Y-212843208D01*
X66302889Y-212202146D01*
X68360860Y-212202146D01*
X68735831Y-212464533D01*
X69110803Y-212726921D01*
X69266124Y-212614856D01*
X69366585Y-212542865D01*
X69489146Y-212455736D01*
X69609630Y-212370648D01*
X69626056Y-212359104D01*
X69717050Y-212293469D01*
X69787064Y-212239660D01*
X69825627Y-212205878D01*
X69829933Y-212199431D01*
X69829237Y-212198503D01*
X71961445Y-212198503D01*
X71983065Y-212221434D01*
X72041394Y-212269243D01*
X72126636Y-212334822D01*
X72228995Y-212411061D01*
X72338675Y-212490853D01*
X72445879Y-212567086D01*
X72540811Y-212632654D01*
X72613676Y-212680445D01*
X72654676Y-212703352D01*
X72658497Y-212704350D01*
X72687173Y-212689347D01*
X72753596Y-212647127D01*
X72849502Y-212583167D01*
X72966626Y-212502940D01*
X73045911Y-212447686D01*
X73413606Y-212189816D01*
X73043336Y-211926124D01*
X72673067Y-211662432D01*
X72543033Y-211756898D01*
X72460092Y-211816829D01*
X72350173Y-211895820D01*
X72232294Y-211980214D01*
X72187222Y-212012390D01*
X72091174Y-212083291D01*
X72015442Y-212143757D01*
X71970013Y-212185558D01*
X71961445Y-212198503D01*
X69829237Y-212198503D01*
X69820850Y-212187336D01*
X69791189Y-212161732D01*
X69736439Y-212119249D01*
X69652092Y-212056515D01*
X69533639Y-211970161D01*
X69376571Y-211856814D01*
X69249978Y-211765880D01*
X69106733Y-211663111D01*
X68826644Y-211863288D01*
X68707731Y-211948522D01*
X68596562Y-212028643D01*
X68506307Y-212094136D01*
X68453708Y-212132806D01*
X68360860Y-212202146D01*
X66302889Y-212202146D01*
X66302889Y-211571717D01*
X67489540Y-211571717D01*
X67511611Y-211593393D01*
X67570403Y-211640142D01*
X67656192Y-211704959D01*
X67759256Y-211780839D01*
X67869871Y-211860777D01*
X67978316Y-211937766D01*
X68074868Y-212004802D01*
X68149803Y-212054879D01*
X68193400Y-212080992D01*
X68199386Y-212083169D01*
X68228060Y-212068267D01*
X68294478Y-212026135D01*
X68390377Y-211962243D01*
X68507493Y-211882059D01*
X68586800Y-211826797D01*
X68930095Y-211586039D01*
X69294954Y-211586039D01*
X69300485Y-211594392D01*
X69350172Y-211636362D01*
X69430735Y-211696685D01*
X69532147Y-211768658D01*
X69644382Y-211845579D01*
X69757415Y-211920745D01*
X69861218Y-211987453D01*
X69945767Y-212039002D01*
X70001034Y-212068688D01*
X70016524Y-212073079D01*
X70049259Y-212053400D01*
X70118902Y-212006772D01*
X70216593Y-211939280D01*
X70333468Y-211857006D01*
X70391575Y-211815626D01*
X70510842Y-211729600D01*
X70611100Y-211655779D01*
X70684617Y-211599977D01*
X70723660Y-211568008D01*
X70727829Y-211562769D01*
X70723901Y-211559909D01*
X71069327Y-211559909D01*
X71086631Y-211585398D01*
X71142064Y-211634274D01*
X71226000Y-211699834D01*
X71328814Y-211775376D01*
X71440878Y-211854197D01*
X71552567Y-211929595D01*
X71654255Y-211994866D01*
X71736315Y-212043310D01*
X71789122Y-212068222D01*
X71801560Y-212069754D01*
X71836920Y-212049198D01*
X71908772Y-212001678D01*
X72007962Y-211933434D01*
X72125338Y-211850709D01*
X72177808Y-211813182D01*
X72294776Y-211726805D01*
X72391045Y-211651158D01*
X72459227Y-211592417D01*
X72491935Y-211556760D01*
X72492915Y-211549699D01*
X72461425Y-211525949D01*
X72394264Y-211477293D01*
X72301932Y-211411288D01*
X72215445Y-211349973D01*
X72101620Y-211269256D01*
X71995837Y-211193700D01*
X71912197Y-211133404D01*
X71874214Y-211105566D01*
X71786983Y-211040597D01*
X71433652Y-211287465D01*
X71310334Y-211374744D01*
X71204290Y-211451917D01*
X71123846Y-211512758D01*
X71077323Y-211551045D01*
X71069327Y-211559909D01*
X70723901Y-211559909D01*
X70703274Y-211544893D01*
X70640818Y-211499922D01*
X70548466Y-211433607D01*
X70434223Y-211351698D01*
X70360437Y-211298847D01*
X70001208Y-211041628D01*
X69632700Y-211300069D01*
X69491699Y-211400270D01*
X69392696Y-211474297D01*
X69330419Y-211526820D01*
X69299596Y-211562510D01*
X69294954Y-211586039D01*
X68930095Y-211586039D01*
X68954495Y-211568927D01*
X68212829Y-211040741D01*
X68125692Y-211105990D01*
X68067365Y-211148366D01*
X67975839Y-211213376D01*
X67864398Y-211291637D01*
X67763389Y-211361947D01*
X67656378Y-211437697D01*
X67569028Y-211502549D01*
X67510398Y-211549565D01*
X67489540Y-211571717D01*
X66302889Y-211571717D01*
X66302889Y-210955459D01*
X66604016Y-210955459D01*
X66634390Y-210978289D01*
X66702432Y-211027082D01*
X66799416Y-211095651D01*
X66916618Y-211177809D01*
X66977360Y-211220163D01*
X67123632Y-211318991D01*
X67238432Y-211390269D01*
X67317596Y-211431598D01*
X67356963Y-211440578D01*
X67358360Y-211439758D01*
X67391743Y-211415599D01*
X67462166Y-211365644D01*
X67560391Y-211296414D01*
X67677183Y-211214430D01*
X67721056Y-211183706D01*
X67839137Y-211099757D01*
X67938518Y-211026606D01*
X68010986Y-210970494D01*
X68048324Y-210937666D01*
X68049785Y-210935371D01*
X70142287Y-210935371D01*
X70514065Y-211197855D01*
X70641287Y-211285378D01*
X70753528Y-211358268D01*
X70842401Y-211411417D01*
X70899518Y-211439720D01*
X70915644Y-211442373D01*
X70948372Y-211420281D01*
X71017976Y-211371832D01*
X71115351Y-211303407D01*
X71231395Y-211221389D01*
X71277056Y-211189006D01*
X71394889Y-211103986D01*
X71494114Y-211029774D01*
X71566571Y-210972678D01*
X71604102Y-210939005D01*
X71607508Y-210933524D01*
X71585603Y-210912580D01*
X71527057Y-210866440D01*
X71441584Y-210802116D01*
X71338895Y-210726621D01*
X71228705Y-210646965D01*
X71120727Y-210570161D01*
X71024673Y-210503219D01*
X70950256Y-210453153D01*
X70907191Y-210426972D01*
X70903536Y-210425344D01*
X70874080Y-210437923D01*
X70807008Y-210478055D01*
X70710597Y-210540437D01*
X70593128Y-210619766D01*
X70511842Y-210676197D01*
X70142287Y-210935371D01*
X68049785Y-210935371D01*
X68051591Y-210932535D01*
X68029414Y-210908326D01*
X67972200Y-210862923D01*
X67892168Y-210805999D01*
X67889313Y-210804059D01*
X67785102Y-210732854D01*
X67659861Y-210646578D01*
X67538765Y-210562578D01*
X67525918Y-210553622D01*
X67323725Y-210412571D01*
X66952156Y-210673446D01*
X66828593Y-210762398D01*
X66725348Y-210840965D01*
X66649605Y-210903328D01*
X66608551Y-210943665D01*
X66604016Y-210955459D01*
X66302889Y-210955459D01*
X66302889Y-210930342D01*
X66813947Y-210564627D01*
G37*
X66813947Y-210564627D02*
X67325006Y-210198911D01*
X67695892Y-210464983D01*
X68066778Y-210731054D01*
X68078048Y-210303417D01*
X69261277Y-210303417D01*
X69450588Y-210439098D01*
X69567457Y-210523431D01*
X69692312Y-210614417D01*
X69798238Y-210692442D01*
X69798783Y-210692846D01*
X69882993Y-210752120D01*
X69952528Y-210795119D01*
X69992655Y-210812753D01*
X69993172Y-210812791D01*
X70029164Y-210797889D01*
X70099850Y-210756023D01*
X70194586Y-210693849D01*
X70289506Y-210627541D01*
X70405046Y-210544421D01*
X70513291Y-210466145D01*
X70600237Y-210402862D01*
X70643374Y-210371100D01*
X70736414Y-210301784D01*
X70380644Y-210050226D01*
X70256362Y-209963433D01*
X70147705Y-209889597D01*
X70063206Y-209834356D01*
X70011396Y-209803349D01*
X70000000Y-209798667D01*
X69969475Y-209814192D01*
X69901620Y-209857014D01*
X69804953Y-209921504D01*
X69687989Y-210002031D01*
X69618201Y-210051042D01*
X69261277Y-210303417D01*
X68078048Y-210303417D01*
X68080889Y-210195643D01*
X68094792Y-209668109D01*
X68392814Y-209668109D01*
X68411930Y-209693929D01*
X68468898Y-209743305D01*
X68553993Y-209809428D01*
X68657489Y-209885484D01*
X68769660Y-209964663D01*
X68880780Y-210040151D01*
X68981123Y-210105139D01*
X69060964Y-210152813D01*
X69110577Y-210176361D01*
X69120022Y-210177431D01*
X69155256Y-210157830D01*
X69227475Y-210111584D01*
X69327620Y-210044693D01*
X69446632Y-209963159D01*
X69507661Y-209920678D01*
X69628547Y-209835474D01*
X69730504Y-209762404D01*
X69805742Y-209707147D01*
X69846473Y-209675383D01*
X69851417Y-209670024D01*
X69824047Y-209650213D01*
X69760343Y-209605186D01*
X69670320Y-209541940D01*
X69563994Y-209467474D01*
X69451380Y-209388783D01*
X69342495Y-209312865D01*
X69247354Y-209246718D01*
X69175972Y-209197338D01*
X69138365Y-209171722D01*
X69135873Y-209170124D01*
X69104789Y-209179584D01*
X69037968Y-209215709D01*
X68945266Y-209271892D01*
X68836542Y-209341528D01*
X68721653Y-209418010D01*
X68610457Y-209494731D01*
X68512812Y-209565086D01*
X68438576Y-209622466D01*
X68397606Y-209660267D01*
X68392814Y-209668109D01*
X68094792Y-209668109D01*
X68095000Y-209660233D01*
X69105930Y-208948845D01*
X69249576Y-209048542D01*
X69293306Y-209079237D01*
X69379589Y-209140122D01*
X69504943Y-209228730D01*
X69665883Y-209342593D01*
X69858925Y-209479245D01*
X70080585Y-209636217D01*
X70327380Y-209811044D01*
X70595826Y-210001258D01*
X70882438Y-210204391D01*
X71183733Y-210417976D01*
X71496227Y-210639546D01*
X71538111Y-210669247D01*
X73683000Y-212190255D01*
X73690318Y-213571294D01*
X73697637Y-214952334D01*
X72321541Y-215926586D01*
X72073432Y-216102179D01*
X71838684Y-216268194D01*
X71621404Y-216421735D01*
X71425698Y-216559905D01*
X71255675Y-216679807D01*
X71115442Y-216778545D01*
X71009106Y-216853221D01*
X70940775Y-216900940D01*
X70914746Y-216918699D01*
X70883703Y-216908379D01*
X70813833Y-216869554D01*
X70712159Y-216806636D01*
X70585707Y-216724035D01*
X70441501Y-216626164D01*
X70372083Y-216577891D01*
X69860119Y-216219223D01*
X69858889Y-215162919D01*
X69488099Y-215422960D01*
X69362296Y-215510797D01*
X69253585Y-215585958D01*
X69169930Y-215642996D01*
X69119296Y-215676465D01*
X69107877Y-215683000D01*
X69083780Y-215667171D01*
X69017596Y-215621553D01*
X68913321Y-215548949D01*
X68774952Y-215452163D01*
X68606484Y-215333998D01*
X68411916Y-215197256D01*
X68195242Y-215044742D01*
X67960459Y-214879259D01*
X67711565Y-214703610D01*
X67700667Y-214695914D01*
X66302889Y-213708829D01*
X66302889Y-213447892D01*
X70173832Y-213447892D01*
X70193399Y-213469369D01*
X70249457Y-213516505D01*
X70332525Y-213582208D01*
X70433120Y-213659387D01*
X70541762Y-213740951D01*
X70648968Y-213819809D01*
X70745258Y-213888870D01*
X70821149Y-213941044D01*
X70867161Y-213969238D01*
X70874889Y-213972196D01*
X70901646Y-213957343D01*
X70966060Y-213915335D01*
X71059816Y-213851771D01*
X71174601Y-213772249D01*
X71239121Y-213726955D01*
X71360794Y-213639488D01*
X71464159Y-213561978D01*
X71541180Y-213500707D01*
X71583819Y-213461957D01*
X71589737Y-213452909D01*
X71568539Y-213429701D01*
X71511085Y-213380925D01*
X71427027Y-213313854D01*
X71326015Y-213235762D01*
X71217699Y-213153925D01*
X71111730Y-213075615D01*
X71017758Y-213008108D01*
X70945435Y-212958676D01*
X70904410Y-212934595D01*
X70900538Y-212933421D01*
X70871499Y-212948044D01*
X70806847Y-212989292D01*
X70716359Y-213050242D01*
X70609816Y-213123972D01*
X70496995Y-213203559D01*
X70387675Y-213282078D01*
X70291636Y-213352609D01*
X70218656Y-213408227D01*
X70178514Y-213442010D01*
X70173832Y-213447892D01*
X66302889Y-213447892D01*
X66302889Y-212843208D01*
X71059465Y-212843208D01*
X71098962Y-212875611D01*
X71172134Y-212929432D01*
X71268789Y-212997755D01*
X71378737Y-213073666D01*
X71491785Y-213150248D01*
X71597742Y-213220587D01*
X71686418Y-213277766D01*
X71747620Y-213314871D01*
X71770166Y-213325467D01*
X71804259Y-213310325D01*
X71875339Y-213267949D01*
X71974517Y-213203989D01*
X72092903Y-213124096D01*
X72157148Y-213079500D01*
X72279110Y-212993179D01*
X72382782Y-212918133D01*
X72460189Y-212860267D01*
X72503358Y-212825487D01*
X72509630Y-212818445D01*
X72487331Y-212794160D01*
X72427044Y-212746658D01*
X72338684Y-212682577D01*
X72232166Y-212608555D01*
X72117405Y-212531229D01*
X72004317Y-212457238D01*
X71902816Y-212393218D01*
X71822817Y-212345807D01*
X71774235Y-212321643D01*
X71765259Y-212320125D01*
X71721526Y-212344421D01*
X71647446Y-212393176D01*
X71552308Y-212459506D01*
X71445404Y-212536524D01*
X71336025Y-212617345D01*
X71233461Y-212695083D01*
X71147003Y-212762853D01*
X71085941Y-212813769D01*
X71059566Y-212840946D01*
X71059465Y-212843208D01*
X66302889Y-212843208D01*
X66302889Y-212202146D01*
X68360860Y-212202146D01*
X68735831Y-212464533D01*
X69110803Y-212726921D01*
X69266124Y-212614856D01*
X69366585Y-212542865D01*
X69489146Y-212455736D01*
X69609630Y-212370648D01*
X69626056Y-212359104D01*
X69717050Y-212293469D01*
X69787064Y-212239660D01*
X69825627Y-212205878D01*
X69829933Y-212199431D01*
X69829237Y-212198503D01*
X71961445Y-212198503D01*
X71983065Y-212221434D01*
X72041394Y-212269243D01*
X72126636Y-212334822D01*
X72228995Y-212411061D01*
X72338675Y-212490853D01*
X72445879Y-212567086D01*
X72540811Y-212632654D01*
X72613676Y-212680445D01*
X72654676Y-212703352D01*
X72658497Y-212704350D01*
X72687173Y-212689347D01*
X72753596Y-212647127D01*
X72849502Y-212583167D01*
X72966626Y-212502940D01*
X73045911Y-212447686D01*
X73413606Y-212189816D01*
X73043336Y-211926124D01*
X72673067Y-211662432D01*
X72543033Y-211756898D01*
X72460092Y-211816829D01*
X72350173Y-211895820D01*
X72232294Y-211980214D01*
X72187222Y-212012390D01*
X72091174Y-212083291D01*
X72015442Y-212143757D01*
X71970013Y-212185558D01*
X71961445Y-212198503D01*
X69829237Y-212198503D01*
X69820850Y-212187336D01*
X69791189Y-212161732D01*
X69736439Y-212119249D01*
X69652092Y-212056515D01*
X69533639Y-211970161D01*
X69376571Y-211856814D01*
X69249978Y-211765880D01*
X69106733Y-211663111D01*
X68826644Y-211863288D01*
X68707731Y-211948522D01*
X68596562Y-212028643D01*
X68506307Y-212094136D01*
X68453708Y-212132806D01*
X68360860Y-212202146D01*
X66302889Y-212202146D01*
X66302889Y-211571717D01*
X67489540Y-211571717D01*
X67511611Y-211593393D01*
X67570403Y-211640142D01*
X67656192Y-211704959D01*
X67759256Y-211780839D01*
X67869871Y-211860777D01*
X67978316Y-211937766D01*
X68074868Y-212004802D01*
X68149803Y-212054879D01*
X68193400Y-212080992D01*
X68199386Y-212083169D01*
X68228060Y-212068267D01*
X68294478Y-212026135D01*
X68390377Y-211962243D01*
X68507493Y-211882059D01*
X68586800Y-211826797D01*
X68930095Y-211586039D01*
X69294954Y-211586039D01*
X69300485Y-211594392D01*
X69350172Y-211636362D01*
X69430735Y-211696685D01*
X69532147Y-211768658D01*
X69644382Y-211845579D01*
X69757415Y-211920745D01*
X69861218Y-211987453D01*
X69945767Y-212039002D01*
X70001034Y-212068688D01*
X70016524Y-212073079D01*
X70049259Y-212053400D01*
X70118902Y-212006772D01*
X70216593Y-211939280D01*
X70333468Y-211857006D01*
X70391575Y-211815626D01*
X70510842Y-211729600D01*
X70611100Y-211655779D01*
X70684617Y-211599977D01*
X70723660Y-211568008D01*
X70727829Y-211562769D01*
X70723901Y-211559909D01*
X71069327Y-211559909D01*
X71086631Y-211585398D01*
X71142064Y-211634274D01*
X71226000Y-211699834D01*
X71328814Y-211775376D01*
X71440878Y-211854197D01*
X71552567Y-211929595D01*
X71654255Y-211994866D01*
X71736315Y-212043310D01*
X71789122Y-212068222D01*
X71801560Y-212069754D01*
X71836920Y-212049198D01*
X71908772Y-212001678D01*
X72007962Y-211933434D01*
X72125338Y-211850709D01*
X72177808Y-211813182D01*
X72294776Y-211726805D01*
X72391045Y-211651158D01*
X72459227Y-211592417D01*
X72491935Y-211556760D01*
X72492915Y-211549699D01*
X72461425Y-211525949D01*
X72394264Y-211477293D01*
X72301932Y-211411288D01*
X72215445Y-211349973D01*
X72101620Y-211269256D01*
X71995837Y-211193700D01*
X71912197Y-211133404D01*
X71874214Y-211105566D01*
X71786983Y-211040597D01*
X71433652Y-211287465D01*
X71310334Y-211374744D01*
X71204290Y-211451917D01*
X71123846Y-211512758D01*
X71077323Y-211551045D01*
X71069327Y-211559909D01*
X70723901Y-211559909D01*
X70703274Y-211544893D01*
X70640818Y-211499922D01*
X70548466Y-211433607D01*
X70434223Y-211351698D01*
X70360437Y-211298847D01*
X70001208Y-211041628D01*
X69632700Y-211300069D01*
X69491699Y-211400270D01*
X69392696Y-211474297D01*
X69330419Y-211526820D01*
X69299596Y-211562510D01*
X69294954Y-211586039D01*
X68930095Y-211586039D01*
X68954495Y-211568927D01*
X68212829Y-211040741D01*
X68125692Y-211105990D01*
X68067365Y-211148366D01*
X67975839Y-211213376D01*
X67864398Y-211291637D01*
X67763389Y-211361947D01*
X67656378Y-211437697D01*
X67569028Y-211502549D01*
X67510398Y-211549565D01*
X67489540Y-211571717D01*
X66302889Y-211571717D01*
X66302889Y-210955459D01*
X66604016Y-210955459D01*
X66634390Y-210978289D01*
X66702432Y-211027082D01*
X66799416Y-211095651D01*
X66916618Y-211177809D01*
X66977360Y-211220163D01*
X67123632Y-211318991D01*
X67238432Y-211390269D01*
X67317596Y-211431598D01*
X67356963Y-211440578D01*
X67358360Y-211439758D01*
X67391743Y-211415599D01*
X67462166Y-211365644D01*
X67560391Y-211296414D01*
X67677183Y-211214430D01*
X67721056Y-211183706D01*
X67839137Y-211099757D01*
X67938518Y-211026606D01*
X68010986Y-210970494D01*
X68048324Y-210937666D01*
X68049785Y-210935371D01*
X70142287Y-210935371D01*
X70514065Y-211197855D01*
X70641287Y-211285378D01*
X70753528Y-211358268D01*
X70842401Y-211411417D01*
X70899518Y-211439720D01*
X70915644Y-211442373D01*
X70948372Y-211420281D01*
X71017976Y-211371832D01*
X71115351Y-211303407D01*
X71231395Y-211221389D01*
X71277056Y-211189006D01*
X71394889Y-211103986D01*
X71494114Y-211029774D01*
X71566571Y-210972678D01*
X71604102Y-210939005D01*
X71607508Y-210933524D01*
X71585603Y-210912580D01*
X71527057Y-210866440D01*
X71441584Y-210802116D01*
X71338895Y-210726621D01*
X71228705Y-210646965D01*
X71120727Y-210570161D01*
X71024673Y-210503219D01*
X70950256Y-210453153D01*
X70907191Y-210426972D01*
X70903536Y-210425344D01*
X70874080Y-210437923D01*
X70807008Y-210478055D01*
X70710597Y-210540437D01*
X70593128Y-210619766D01*
X70511842Y-210676197D01*
X70142287Y-210935371D01*
X68049785Y-210935371D01*
X68051591Y-210932535D01*
X68029414Y-210908326D01*
X67972200Y-210862923D01*
X67892168Y-210805999D01*
X67889313Y-210804059D01*
X67785102Y-210732854D01*
X67659861Y-210646578D01*
X67538765Y-210562578D01*
X67525918Y-210553622D01*
X67323725Y-210412571D01*
X66952156Y-210673446D01*
X66828593Y-210762398D01*
X66725348Y-210840965D01*
X66649605Y-210903328D01*
X66608551Y-210943665D01*
X66604016Y-210955459D01*
X66302889Y-210955459D01*
X66302889Y-210930342D01*
X66813947Y-210564627D01*
G36*
X59875010Y-211047113D02*
G01*
X59875498Y-210955459D01*
X61975572Y-210955459D01*
X62005945Y-210978289D01*
X62073987Y-211027082D01*
X62170972Y-211095651D01*
X62288174Y-211177809D01*
X62348916Y-211220163D01*
X62495188Y-211318991D01*
X62609987Y-211390269D01*
X62689151Y-211431598D01*
X62728519Y-211440578D01*
X62729916Y-211439758D01*
X62763299Y-211415599D01*
X62833721Y-211365644D01*
X62931947Y-211296414D01*
X63048739Y-211214430D01*
X63092611Y-211183706D01*
X63210692Y-211099757D01*
X63310074Y-211026606D01*
X63382541Y-210970494D01*
X63419879Y-210937666D01*
X63423146Y-210932535D01*
X63400969Y-210908326D01*
X63343755Y-210862923D01*
X63263723Y-210805999D01*
X63260869Y-210804059D01*
X63156657Y-210732854D01*
X63031416Y-210646578D01*
X62910320Y-210562578D01*
X62897473Y-210553622D01*
X62695280Y-210412571D01*
X62323712Y-210673446D01*
X62200149Y-210762398D01*
X62096904Y-210840965D01*
X62021161Y-210903328D01*
X61980107Y-210943665D01*
X61975572Y-210955459D01*
X59875498Y-210955459D01*
X59878982Y-210301336D01*
X61089455Y-210301336D01*
X61108787Y-210323359D01*
X61165235Y-210370154D01*
X61249202Y-210434813D01*
X61351087Y-210510430D01*
X61461293Y-210590098D01*
X61570218Y-210666910D01*
X61668264Y-210733959D01*
X61745832Y-210784338D01*
X61793322Y-210811141D01*
X61801559Y-210813710D01*
X61834685Y-210798739D01*
X61903382Y-210757342D01*
X61997360Y-210695997D01*
X62097892Y-210627101D01*
X62215178Y-210544687D01*
X62324885Y-210467018D01*
X62413163Y-210403930D01*
X62458929Y-210370659D01*
X62551969Y-210301784D01*
X62196200Y-210050226D01*
X62071716Y-209963394D01*
X61962622Y-209889533D01*
X61877517Y-209834292D01*
X61824998Y-209803316D01*
X61813219Y-209798667D01*
X61781814Y-209814087D01*
X61714896Y-209855720D01*
X61622462Y-209916621D01*
X61514507Y-209989848D01*
X61401031Y-210068458D01*
X61292028Y-210145508D01*
X61197497Y-210214054D01*
X61127434Y-210267154D01*
X61091836Y-210297864D01*
X61089455Y-210301336D01*
X59878982Y-210301336D01*
X59882326Y-209673528D01*
X60192778Y-209673528D01*
X60214217Y-209692498D01*
X60272176Y-209737174D01*
X60357117Y-209800635D01*
X60459502Y-209875957D01*
X60569793Y-209956217D01*
X60678452Y-210034494D01*
X60775942Y-210103864D01*
X60852724Y-210157405D01*
X60899261Y-210188193D01*
X60908383Y-210192918D01*
X60933786Y-210177951D01*
X60997154Y-210136128D01*
X61090245Y-210073011D01*
X61204816Y-209994162D01*
X61269368Y-209949332D01*
X61392413Y-209862867D01*
X61498375Y-209786975D01*
X61578846Y-209727790D01*
X61625415Y-209691446D01*
X61633342Y-209683786D01*
X61615921Y-209661349D01*
X61559362Y-209612993D01*
X61471159Y-209544603D01*
X61358805Y-209462066D01*
X61278755Y-209405284D01*
X60911129Y-209147880D01*
X60551953Y-209404671D01*
X60429192Y-209493168D01*
X60324483Y-209570046D01*
X60245638Y-209629455D01*
X60200469Y-209665548D01*
X60192778Y-209673528D01*
X59882326Y-209673528D01*
X59882333Y-209672387D01*
X60397458Y-209310063D01*
X60912582Y-208947738D01*
X63211595Y-210565592D01*
X65510608Y-212183445D01*
X65511637Y-213568829D01*
X65512667Y-214954214D01*
X65152833Y-215210589D01*
X65013775Y-215309731D01*
X64876982Y-215407373D01*
X64755428Y-215494248D01*
X64662085Y-215561087D01*
X64637301Y-215578880D01*
X64481602Y-215690796D01*
X62308968Y-214155738D01*
X61993260Y-213932630D01*
X61688498Y-213717164D01*
X61398128Y-213511784D01*
X61125598Y-213318932D01*
X60874354Y-213141049D01*
X60647844Y-212980577D01*
X60449513Y-212839960D01*
X60282810Y-212721638D01*
X60151180Y-212628054D01*
X60058071Y-212561650D01*
X60006929Y-212524869D01*
X60002010Y-212521259D01*
X59867686Y-212421839D01*
X59868955Y-212183488D01*
X63740622Y-212183488D01*
X63758972Y-212201180D01*
X63814504Y-212244181D01*
X63897864Y-212305856D01*
X63999701Y-212379567D01*
X64110661Y-212458678D01*
X64221392Y-212536553D01*
X64322541Y-212606555D01*
X64404755Y-212662048D01*
X64458682Y-212696394D01*
X64474589Y-212704301D01*
X64503518Y-212689158D01*
X64569566Y-212646634D01*
X64664157Y-212582485D01*
X64778716Y-212502463D01*
X64834545Y-212462774D01*
X64955050Y-212375892D01*
X65058554Y-212299831D01*
X65136606Y-212240915D01*
X65180755Y-212205465D01*
X65187271Y-212198915D01*
X65171331Y-212174852D01*
X65117963Y-212126714D01*
X65036322Y-212062301D01*
X64968426Y-212012538D01*
X64851887Y-211929457D01*
X64736096Y-211846907D01*
X64639478Y-211778026D01*
X64606926Y-211754818D01*
X64477296Y-211662398D01*
X64113037Y-211919512D01*
X63988513Y-212007474D01*
X63881258Y-212083365D01*
X63799273Y-212141510D01*
X63750564Y-212176237D01*
X63740622Y-212183488D01*
X59868955Y-212183488D01*
X59872131Y-211587486D01*
X62887530Y-211587486D01*
X62919540Y-211612828D01*
X62988795Y-211663767D01*
X63086175Y-211733712D01*
X63202556Y-211816070D01*
X63247153Y-211847352D01*
X63377873Y-211938205D01*
X63471092Y-212000323D01*
X63535253Y-212037754D01*
X63578803Y-212054546D01*
X63610187Y-212054747D01*
X63637852Y-212042405D01*
X63644923Y-212037997D01*
X63692041Y-212006137D01*
X63774036Y-211948991D01*
X63879968Y-211874242D01*
X63998901Y-211789574D01*
X64017174Y-211776502D01*
X64323946Y-211556898D01*
X63976976Y-211314154D01*
X63853651Y-211228574D01*
X63745823Y-211155063D01*
X63662316Y-211099536D01*
X63611952Y-211067906D01*
X63602260Y-211062983D01*
X63567398Y-211074203D01*
X63499883Y-211112720D01*
X63408970Y-211171744D01*
X63303911Y-211244484D01*
X63193962Y-211324149D01*
X63088376Y-211403948D01*
X62996407Y-211477089D01*
X62927308Y-211536783D01*
X62890334Y-211576237D01*
X62887530Y-211587486D01*
X59872131Y-211587486D01*
X59875010Y-211047113D01*
G37*
X59875010Y-211047113D02*
X59875498Y-210955459D01*
X61975572Y-210955459D01*
X62005945Y-210978289D01*
X62073987Y-211027082D01*
X62170972Y-211095651D01*
X62288174Y-211177809D01*
X62348916Y-211220163D01*
X62495188Y-211318991D01*
X62609987Y-211390269D01*
X62689151Y-211431598D01*
X62728519Y-211440578D01*
X62729916Y-211439758D01*
X62763299Y-211415599D01*
X62833721Y-211365644D01*
X62931947Y-211296414D01*
X63048739Y-211214430D01*
X63092611Y-211183706D01*
X63210692Y-211099757D01*
X63310074Y-211026606D01*
X63382541Y-210970494D01*
X63419879Y-210937666D01*
X63423146Y-210932535D01*
X63400969Y-210908326D01*
X63343755Y-210862923D01*
X63263723Y-210805999D01*
X63260869Y-210804059D01*
X63156657Y-210732854D01*
X63031416Y-210646578D01*
X62910320Y-210562578D01*
X62897473Y-210553622D01*
X62695280Y-210412571D01*
X62323712Y-210673446D01*
X62200149Y-210762398D01*
X62096904Y-210840965D01*
X62021161Y-210903328D01*
X61980107Y-210943665D01*
X61975572Y-210955459D01*
X59875498Y-210955459D01*
X59878982Y-210301336D01*
X61089455Y-210301336D01*
X61108787Y-210323359D01*
X61165235Y-210370154D01*
X61249202Y-210434813D01*
X61351087Y-210510430D01*
X61461293Y-210590098D01*
X61570218Y-210666910D01*
X61668264Y-210733959D01*
X61745832Y-210784338D01*
X61793322Y-210811141D01*
X61801559Y-210813710D01*
X61834685Y-210798739D01*
X61903382Y-210757342D01*
X61997360Y-210695997D01*
X62097892Y-210627101D01*
X62215178Y-210544687D01*
X62324885Y-210467018D01*
X62413163Y-210403930D01*
X62458929Y-210370659D01*
X62551969Y-210301784D01*
X62196200Y-210050226D01*
X62071716Y-209963394D01*
X61962622Y-209889533D01*
X61877517Y-209834292D01*
X61824998Y-209803316D01*
X61813219Y-209798667D01*
X61781814Y-209814087D01*
X61714896Y-209855720D01*
X61622462Y-209916621D01*
X61514507Y-209989848D01*
X61401031Y-210068458D01*
X61292028Y-210145508D01*
X61197497Y-210214054D01*
X61127434Y-210267154D01*
X61091836Y-210297864D01*
X61089455Y-210301336D01*
X59878982Y-210301336D01*
X59882326Y-209673528D01*
X60192778Y-209673528D01*
X60214217Y-209692498D01*
X60272176Y-209737174D01*
X60357117Y-209800635D01*
X60459502Y-209875957D01*
X60569793Y-209956217D01*
X60678452Y-210034494D01*
X60775942Y-210103864D01*
X60852724Y-210157405D01*
X60899261Y-210188193D01*
X60908383Y-210192918D01*
X60933786Y-210177951D01*
X60997154Y-210136128D01*
X61090245Y-210073011D01*
X61204816Y-209994162D01*
X61269368Y-209949332D01*
X61392413Y-209862867D01*
X61498375Y-209786975D01*
X61578846Y-209727790D01*
X61625415Y-209691446D01*
X61633342Y-209683786D01*
X61615921Y-209661349D01*
X61559362Y-209612993D01*
X61471159Y-209544603D01*
X61358805Y-209462066D01*
X61278755Y-209405284D01*
X60911129Y-209147880D01*
X60551953Y-209404671D01*
X60429192Y-209493168D01*
X60324483Y-209570046D01*
X60245638Y-209629455D01*
X60200469Y-209665548D01*
X60192778Y-209673528D01*
X59882326Y-209673528D01*
X59882333Y-209672387D01*
X60397458Y-209310063D01*
X60912582Y-208947738D01*
X63211595Y-210565592D01*
X65510608Y-212183445D01*
X65511637Y-213568829D01*
X65512667Y-214954214D01*
X65152833Y-215210589D01*
X65013775Y-215309731D01*
X64876982Y-215407373D01*
X64755428Y-215494248D01*
X64662085Y-215561087D01*
X64637301Y-215578880D01*
X64481602Y-215690796D01*
X62308968Y-214155738D01*
X61993260Y-213932630D01*
X61688498Y-213717164D01*
X61398128Y-213511784D01*
X61125598Y-213318932D01*
X60874354Y-213141049D01*
X60647844Y-212980577D01*
X60449513Y-212839960D01*
X60282810Y-212721638D01*
X60151180Y-212628054D01*
X60058071Y-212561650D01*
X60006929Y-212524869D01*
X60002010Y-212521259D01*
X59867686Y-212421839D01*
X59868955Y-212183488D01*
X63740622Y-212183488D01*
X63758972Y-212201180D01*
X63814504Y-212244181D01*
X63897864Y-212305856D01*
X63999701Y-212379567D01*
X64110661Y-212458678D01*
X64221392Y-212536553D01*
X64322541Y-212606555D01*
X64404755Y-212662048D01*
X64458682Y-212696394D01*
X64474589Y-212704301D01*
X64503518Y-212689158D01*
X64569566Y-212646634D01*
X64664157Y-212582485D01*
X64778716Y-212502463D01*
X64834545Y-212462774D01*
X64955050Y-212375892D01*
X65058554Y-212299831D01*
X65136606Y-212240915D01*
X65180755Y-212205465D01*
X65187271Y-212198915D01*
X65171331Y-212174852D01*
X65117963Y-212126714D01*
X65036322Y-212062301D01*
X64968426Y-212012538D01*
X64851887Y-211929457D01*
X64736096Y-211846907D01*
X64639478Y-211778026D01*
X64606926Y-211754818D01*
X64477296Y-211662398D01*
X64113037Y-211919512D01*
X63988513Y-212007474D01*
X63881258Y-212083365D01*
X63799273Y-212141510D01*
X63750564Y-212176237D01*
X63740622Y-212183488D01*
X59868955Y-212183488D01*
X59872131Y-211587486D01*
X62887530Y-211587486D01*
X62919540Y-211612828D01*
X62988795Y-211663767D01*
X63086175Y-211733712D01*
X63202556Y-211816070D01*
X63247153Y-211847352D01*
X63377873Y-211938205D01*
X63471092Y-212000323D01*
X63535253Y-212037754D01*
X63578803Y-212054546D01*
X63610187Y-212054747D01*
X63637852Y-212042405D01*
X63644923Y-212037997D01*
X63692041Y-212006137D01*
X63774036Y-211948991D01*
X63879968Y-211874242D01*
X63998901Y-211789574D01*
X64017174Y-211776502D01*
X64323946Y-211556898D01*
X63976976Y-211314154D01*
X63853651Y-211228574D01*
X63745823Y-211155063D01*
X63662316Y-211099536D01*
X63611952Y-211067906D01*
X63602260Y-211062983D01*
X63567398Y-211074203D01*
X63499883Y-211112720D01*
X63408970Y-211171744D01*
X63303911Y-211244484D01*
X63193962Y-211324149D01*
X63088376Y-211403948D01*
X62996407Y-211477089D01*
X62927308Y-211536783D01*
X62890334Y-211576237D01*
X62887530Y-211587486D01*
X59872131Y-211587486D01*
X59875010Y-211047113D01*
G36*
X78563530Y-209312397D02*
G01*
X78711458Y-209207574D01*
X78843973Y-209115377D01*
X78954254Y-209040410D01*
X79035483Y-208987278D01*
X79080840Y-208960588D01*
X79087703Y-208958418D01*
X79115084Y-208976333D01*
X79181506Y-209022123D01*
X79280023Y-209090930D01*
X79403693Y-209177896D01*
X79545571Y-209278165D01*
X79603019Y-209318889D01*
X80100248Y-209671667D01*
X80108957Y-210200590D01*
X80117667Y-210729513D01*
X80478508Y-210473741D01*
X80603232Y-210386827D01*
X80712140Y-210313752D01*
X80796891Y-210259891D01*
X80849147Y-210230618D01*
X80861321Y-210227040D01*
X80889976Y-210245251D01*
X80957758Y-210291084D01*
X81057626Y-210359692D01*
X81182537Y-210446228D01*
X81325449Y-210545845D01*
X81382424Y-210585709D01*
X81881556Y-210935307D01*
X81880839Y-212321376D01*
X81880123Y-213707445D01*
X81648006Y-213867550D01*
X81524661Y-213952803D01*
X81376649Y-214055367D01*
X81225587Y-214160250D01*
X81130931Y-214226098D01*
X80845974Y-214424540D01*
X80481820Y-214170056D01*
X80117667Y-213915572D01*
X80103556Y-214437402D01*
X80089445Y-214959233D01*
X79583883Y-215314061D01*
X79435600Y-215417584D01*
X79302989Y-215509121D01*
X79192923Y-215584011D01*
X79112280Y-215637594D01*
X79067934Y-215665211D01*
X79061772Y-215667945D01*
X79036893Y-215651871D01*
X78969074Y-215605386D01*
X78861445Y-215530686D01*
X78717137Y-215429971D01*
X78539280Y-215305438D01*
X78331006Y-215159286D01*
X78095445Y-214993711D01*
X77835727Y-214810913D01*
X77554985Y-214613090D01*
X77256347Y-214402438D01*
X76942946Y-214181158D01*
X76766278Y-214056327D01*
X74487333Y-212445655D01*
X74487333Y-212189470D01*
X78327324Y-212189470D01*
X78686273Y-212446660D01*
X78811703Y-212534076D01*
X78922963Y-212607016D01*
X79011323Y-212660113D01*
X79068056Y-212688000D01*
X79082893Y-212690560D01*
X79118253Y-212670034D01*
X79190103Y-212622539D01*
X79289291Y-212554316D01*
X79406665Y-212471601D01*
X79459141Y-212434071D01*
X79576109Y-212347694D01*
X79672378Y-212272047D01*
X79740560Y-212213306D01*
X79773268Y-212177649D01*
X79774248Y-212170587D01*
X79742759Y-212146838D01*
X79675597Y-212098182D01*
X79583266Y-212032177D01*
X79496778Y-211970862D01*
X79382967Y-211890155D01*
X79277211Y-211814619D01*
X79193605Y-211754349D01*
X79155641Y-211726527D01*
X79068504Y-211661629D01*
X78697914Y-211925550D01*
X78327324Y-212189470D01*
X74487333Y-212189470D01*
X74487333Y-211548388D01*
X77498704Y-211548388D01*
X77511968Y-211595361D01*
X77565304Y-211648834D01*
X77657932Y-211717184D01*
X77789071Y-211808789D01*
X77809325Y-211823140D01*
X77933002Y-211910891D01*
X78039407Y-211986047D01*
X78120557Y-212042996D01*
X78168469Y-212076128D01*
X78177928Y-212082236D01*
X78202378Y-212067743D01*
X78265013Y-212026133D01*
X78357882Y-211962808D01*
X78473036Y-211883171D01*
X78553163Y-211827254D01*
X78677081Y-211739708D01*
X78782119Y-211664006D01*
X78860707Y-211605725D01*
X78905274Y-211570444D01*
X78912457Y-211562519D01*
X78887684Y-211544654D01*
X78824701Y-211500083D01*
X78731541Y-211434467D01*
X78616238Y-211353466D01*
X78539319Y-211299522D01*
X78174526Y-211043847D01*
X77861985Y-211257953D01*
X77707154Y-211362698D01*
X77595516Y-211440433D01*
X77526293Y-211499538D01*
X77498704Y-211548388D01*
X74487333Y-211548388D01*
X74487333Y-210944841D01*
X76555434Y-210944841D01*
X76580998Y-210963781D01*
X76644738Y-211009234D01*
X76738518Y-211075449D01*
X76854202Y-211156672D01*
X76928689Y-211208782D01*
X77070793Y-211305309D01*
X77186476Y-211378281D01*
X77270145Y-211424419D01*
X77316205Y-211440446D01*
X77321687Y-211439026D01*
X77354732Y-211415145D01*
X77424851Y-211365437D01*
X77522843Y-211296396D01*
X77639507Y-211214513D01*
X77683766Y-211183519D01*
X77800731Y-211099395D01*
X77897522Y-211025429D01*
X77966326Y-210967939D01*
X77997306Y-210935371D01*
X78326731Y-210935371D01*
X78698509Y-211197855D01*
X78825732Y-211285378D01*
X78937973Y-211358268D01*
X79026845Y-211411417D01*
X79083962Y-211439720D01*
X79100088Y-211442373D01*
X79132816Y-211420281D01*
X79202420Y-211371832D01*
X79299796Y-211303407D01*
X79415840Y-211221389D01*
X79461500Y-211189006D01*
X79579333Y-211103986D01*
X79678558Y-211029774D01*
X79751015Y-210972678D01*
X79788546Y-210939005D01*
X79791812Y-210933748D01*
X80133075Y-210933748D01*
X80154368Y-210960314D01*
X80213420Y-211009649D01*
X80300496Y-211075152D01*
X80405864Y-211150222D01*
X80519793Y-211228258D01*
X80632549Y-211302660D01*
X80734400Y-211366826D01*
X80815614Y-211414156D01*
X80866458Y-211438049D01*
X80877857Y-211438885D01*
X80910838Y-211415057D01*
X80980898Y-211365397D01*
X81078843Y-211296393D01*
X81195478Y-211214533D01*
X81239766Y-211183519D01*
X81356731Y-211099395D01*
X81453522Y-211025429D01*
X81522326Y-210967939D01*
X81555330Y-210933244D01*
X81556756Y-210927161D01*
X81530594Y-210904668D01*
X81468201Y-210857166D01*
X81379669Y-210791894D01*
X81275091Y-210716092D01*
X81164562Y-210637000D01*
X81058173Y-210561858D01*
X80966018Y-210497904D01*
X80898190Y-210452379D01*
X80872988Y-210436703D01*
X80841157Y-210446143D01*
X80773733Y-210482337D01*
X80680621Y-210538631D01*
X80571724Y-210608373D01*
X80456946Y-210684909D01*
X80346192Y-210761585D01*
X80249366Y-210831750D01*
X80176372Y-210888750D01*
X80137113Y-210925930D01*
X80133075Y-210933748D01*
X79791812Y-210933748D01*
X79791952Y-210933524D01*
X79770047Y-210912580D01*
X79711502Y-210866440D01*
X79626028Y-210802116D01*
X79523340Y-210726621D01*
X79413150Y-210646965D01*
X79305171Y-210570161D01*
X79209117Y-210503219D01*
X79134701Y-210453153D01*
X79091635Y-210426972D01*
X79087980Y-210425344D01*
X79058525Y-210437923D01*
X78991452Y-210478055D01*
X78895042Y-210540437D01*
X78777573Y-210619766D01*
X78696286Y-210676197D01*
X78326731Y-210935371D01*
X77997306Y-210935371D01*
X77999330Y-210933244D01*
X78000756Y-210927161D01*
X77974611Y-210904690D01*
X77912242Y-210857209D01*
X77823746Y-210791960D01*
X77719219Y-210716186D01*
X77608758Y-210637133D01*
X77502461Y-210562041D01*
X77410424Y-210498156D01*
X77342744Y-210452719D01*
X77317588Y-210437074D01*
X77287088Y-210446533D01*
X77221374Y-210481906D01*
X77129856Y-210536925D01*
X77021941Y-210605321D01*
X76907040Y-210680825D01*
X76794560Y-210757170D01*
X76693911Y-210828087D01*
X76614502Y-210887308D01*
X76565740Y-210928564D01*
X76555434Y-210944841D01*
X74487333Y-210944841D01*
X74487333Y-210304270D01*
X75686778Y-210304270D01*
X75708566Y-210328821D01*
X75767382Y-210377799D01*
X75853405Y-210444149D01*
X75956813Y-210520816D01*
X76067784Y-210600747D01*
X76176498Y-210676886D01*
X76273131Y-210742179D01*
X76347864Y-210789572D01*
X76390874Y-210812009D01*
X76394891Y-210812887D01*
X76427697Y-210797882D01*
X76497147Y-210755407D01*
X76594293Y-210691271D01*
X76710187Y-210611283D01*
X76761780Y-210574729D01*
X76881237Y-210488274D01*
X76983105Y-210412311D01*
X77059019Y-210353253D01*
X77100613Y-210317513D01*
X77105837Y-210310995D01*
X77086623Y-210288542D01*
X77030108Y-210241547D01*
X76945899Y-210176866D01*
X76843601Y-210101355D01*
X76732821Y-210021870D01*
X76623163Y-209945266D01*
X76524233Y-209878398D01*
X76445638Y-209828123D01*
X76396983Y-209801297D01*
X76387995Y-209798667D01*
X76354636Y-209814333D01*
X76287214Y-209856602D01*
X76195566Y-209918382D01*
X76089529Y-209992578D01*
X75978941Y-210072098D01*
X75873640Y-210149849D01*
X75783461Y-210218738D01*
X75718244Y-210271671D01*
X75687824Y-210301556D01*
X75686778Y-210304270D01*
X74487333Y-210304270D01*
X74487333Y-209677036D01*
X74779628Y-209677036D01*
X74822113Y-209712458D01*
X74897283Y-209768518D01*
X74995386Y-209838576D01*
X75106667Y-209915991D01*
X75221373Y-209994124D01*
X75329750Y-210066334D01*
X75422045Y-210125983D01*
X75488504Y-210166430D01*
X75519374Y-210181035D01*
X75519857Y-210180953D01*
X75552597Y-210161709D01*
X75622216Y-210115471D01*
X75719838Y-210048298D01*
X75836591Y-209966254D01*
X75893802Y-209925529D01*
X76013583Y-209839455D01*
X76115160Y-209765575D01*
X76190555Y-209709760D01*
X76231791Y-209677884D01*
X76237111Y-209672788D01*
X76215206Y-209655031D01*
X76154800Y-209610919D01*
X76063854Y-209546148D01*
X75950331Y-209466411D01*
X75882596Y-209419241D01*
X75730133Y-209316547D01*
X75610435Y-209242655D01*
X75527242Y-209199715D01*
X75484298Y-209189880D01*
X75483955Y-209190005D01*
X75447476Y-209210629D01*
X75378004Y-209255180D01*
X75285214Y-209316969D01*
X75178777Y-209389308D01*
X75068365Y-209465509D01*
X74963652Y-209538883D01*
X74874310Y-209602742D01*
X74810011Y-209650397D01*
X74780428Y-209675160D01*
X74779628Y-209677036D01*
X74487333Y-209677036D01*
X74487333Y-209666967D01*
X74997113Y-209307404D01*
X75163530Y-209190407D01*
X75290376Y-209102714D01*
X75383993Y-209040796D01*
X75450724Y-209001128D01*
X75496911Y-208980179D01*
X75528896Y-208974423D01*
X75553021Y-208980332D01*
X75568613Y-208989508D01*
X75603114Y-209013513D01*
X75679128Y-209066877D01*
X75792082Y-209146376D01*
X75937399Y-209248785D01*
X76110507Y-209370876D01*
X76306830Y-209509425D01*
X76521794Y-209661207D01*
X76750824Y-209822994D01*
X76829778Y-209878784D01*
X78029222Y-210726392D01*
X78043333Y-210200232D01*
X78057131Y-209685778D01*
X78354556Y-209685778D01*
X78376150Y-209704456D01*
X78434663Y-209748264D01*
X78520453Y-209810425D01*
X78623878Y-209884161D01*
X78735295Y-209962695D01*
X78845063Y-210039250D01*
X78943539Y-210107049D01*
X79021083Y-210159313D01*
X79068050Y-210189266D01*
X79077279Y-210193778D01*
X79101503Y-210178570D01*
X79163826Y-210136672D01*
X79256041Y-210073672D01*
X79369945Y-209995159D01*
X79431461Y-209952530D01*
X79552867Y-209866669D01*
X79655785Y-209790860D01*
X79732108Y-209731316D01*
X79773729Y-209694247D01*
X79779000Y-209686245D01*
X79757321Y-209662430D01*
X79698817Y-209613903D01*
X79613289Y-209547764D01*
X79510537Y-209471113D01*
X79400361Y-209391052D01*
X79292562Y-209314682D01*
X79196939Y-209249102D01*
X79123294Y-209201413D01*
X79081426Y-209178718D01*
X79077222Y-209177778D01*
X79047171Y-209193103D01*
X78981966Y-209234516D01*
X78891339Y-209295176D01*
X78785021Y-209368244D01*
X78672744Y-209446878D01*
X78564241Y-209524237D01*
X78469241Y-209593480D01*
X78397477Y-209647767D01*
X78358679Y-209680257D01*
X78354556Y-209685778D01*
X78057131Y-209685778D01*
X78057445Y-209674071D01*
X78563530Y-209312397D01*
G37*
X78563530Y-209312397D02*
X78711458Y-209207574D01*
X78843973Y-209115377D01*
X78954254Y-209040410D01*
X79035483Y-208987278D01*
X79080840Y-208960588D01*
X79087703Y-208958418D01*
X79115084Y-208976333D01*
X79181506Y-209022123D01*
X79280023Y-209090930D01*
X79403693Y-209177896D01*
X79545571Y-209278165D01*
X79603019Y-209318889D01*
X80100248Y-209671667D01*
X80108957Y-210200590D01*
X80117667Y-210729513D01*
X80478508Y-210473741D01*
X80603232Y-210386827D01*
X80712140Y-210313752D01*
X80796891Y-210259891D01*
X80849147Y-210230618D01*
X80861321Y-210227040D01*
X80889976Y-210245251D01*
X80957758Y-210291084D01*
X81057626Y-210359692D01*
X81182537Y-210446228D01*
X81325449Y-210545845D01*
X81382424Y-210585709D01*
X81881556Y-210935307D01*
X81880839Y-212321376D01*
X81880123Y-213707445D01*
X81648006Y-213867550D01*
X81524661Y-213952803D01*
X81376649Y-214055367D01*
X81225587Y-214160250D01*
X81130931Y-214226098D01*
X80845974Y-214424540D01*
X80481820Y-214170056D01*
X80117667Y-213915572D01*
X80103556Y-214437402D01*
X80089445Y-214959233D01*
X79583883Y-215314061D01*
X79435600Y-215417584D01*
X79302989Y-215509121D01*
X79192923Y-215584011D01*
X79112280Y-215637594D01*
X79067934Y-215665211D01*
X79061772Y-215667945D01*
X79036893Y-215651871D01*
X78969074Y-215605386D01*
X78861445Y-215530686D01*
X78717137Y-215429971D01*
X78539280Y-215305438D01*
X78331006Y-215159286D01*
X78095445Y-214993711D01*
X77835727Y-214810913D01*
X77554985Y-214613090D01*
X77256347Y-214402438D01*
X76942946Y-214181158D01*
X76766278Y-214056327D01*
X74487333Y-212445655D01*
X74487333Y-212189470D01*
X78327324Y-212189470D01*
X78686273Y-212446660D01*
X78811703Y-212534076D01*
X78922963Y-212607016D01*
X79011323Y-212660113D01*
X79068056Y-212688000D01*
X79082893Y-212690560D01*
X79118253Y-212670034D01*
X79190103Y-212622539D01*
X79289291Y-212554316D01*
X79406665Y-212471601D01*
X79459141Y-212434071D01*
X79576109Y-212347694D01*
X79672378Y-212272047D01*
X79740560Y-212213306D01*
X79773268Y-212177649D01*
X79774248Y-212170587D01*
X79742759Y-212146838D01*
X79675597Y-212098182D01*
X79583266Y-212032177D01*
X79496778Y-211970862D01*
X79382967Y-211890155D01*
X79277211Y-211814619D01*
X79193605Y-211754349D01*
X79155641Y-211726527D01*
X79068504Y-211661629D01*
X78697914Y-211925550D01*
X78327324Y-212189470D01*
X74487333Y-212189470D01*
X74487333Y-211548388D01*
X77498704Y-211548388D01*
X77511968Y-211595361D01*
X77565304Y-211648834D01*
X77657932Y-211717184D01*
X77789071Y-211808789D01*
X77809325Y-211823140D01*
X77933002Y-211910891D01*
X78039407Y-211986047D01*
X78120557Y-212042996D01*
X78168469Y-212076128D01*
X78177928Y-212082236D01*
X78202378Y-212067743D01*
X78265013Y-212026133D01*
X78357882Y-211962808D01*
X78473036Y-211883171D01*
X78553163Y-211827254D01*
X78677081Y-211739708D01*
X78782119Y-211664006D01*
X78860707Y-211605725D01*
X78905274Y-211570444D01*
X78912457Y-211562519D01*
X78887684Y-211544654D01*
X78824701Y-211500083D01*
X78731541Y-211434467D01*
X78616238Y-211353466D01*
X78539319Y-211299522D01*
X78174526Y-211043847D01*
X77861985Y-211257953D01*
X77707154Y-211362698D01*
X77595516Y-211440433D01*
X77526293Y-211499538D01*
X77498704Y-211548388D01*
X74487333Y-211548388D01*
X74487333Y-210944841D01*
X76555434Y-210944841D01*
X76580998Y-210963781D01*
X76644738Y-211009234D01*
X76738518Y-211075449D01*
X76854202Y-211156672D01*
X76928689Y-211208782D01*
X77070793Y-211305309D01*
X77186476Y-211378281D01*
X77270145Y-211424419D01*
X77316205Y-211440446D01*
X77321687Y-211439026D01*
X77354732Y-211415145D01*
X77424851Y-211365437D01*
X77522843Y-211296396D01*
X77639507Y-211214513D01*
X77683766Y-211183519D01*
X77800731Y-211099395D01*
X77897522Y-211025429D01*
X77966326Y-210967939D01*
X77997306Y-210935371D01*
X78326731Y-210935371D01*
X78698509Y-211197855D01*
X78825732Y-211285378D01*
X78937973Y-211358268D01*
X79026845Y-211411417D01*
X79083962Y-211439720D01*
X79100088Y-211442373D01*
X79132816Y-211420281D01*
X79202420Y-211371832D01*
X79299796Y-211303407D01*
X79415840Y-211221389D01*
X79461500Y-211189006D01*
X79579333Y-211103986D01*
X79678558Y-211029774D01*
X79751015Y-210972678D01*
X79788546Y-210939005D01*
X79791812Y-210933748D01*
X80133075Y-210933748D01*
X80154368Y-210960314D01*
X80213420Y-211009649D01*
X80300496Y-211075152D01*
X80405864Y-211150222D01*
X80519793Y-211228258D01*
X80632549Y-211302660D01*
X80734400Y-211366826D01*
X80815614Y-211414156D01*
X80866458Y-211438049D01*
X80877857Y-211438885D01*
X80910838Y-211415057D01*
X80980898Y-211365397D01*
X81078843Y-211296393D01*
X81195478Y-211214533D01*
X81239766Y-211183519D01*
X81356731Y-211099395D01*
X81453522Y-211025429D01*
X81522326Y-210967939D01*
X81555330Y-210933244D01*
X81556756Y-210927161D01*
X81530594Y-210904668D01*
X81468201Y-210857166D01*
X81379669Y-210791894D01*
X81275091Y-210716092D01*
X81164562Y-210637000D01*
X81058173Y-210561858D01*
X80966018Y-210497904D01*
X80898190Y-210452379D01*
X80872988Y-210436703D01*
X80841157Y-210446143D01*
X80773733Y-210482337D01*
X80680621Y-210538631D01*
X80571724Y-210608373D01*
X80456946Y-210684909D01*
X80346192Y-210761585D01*
X80249366Y-210831750D01*
X80176372Y-210888750D01*
X80137113Y-210925930D01*
X80133075Y-210933748D01*
X79791812Y-210933748D01*
X79791952Y-210933524D01*
X79770047Y-210912580D01*
X79711502Y-210866440D01*
X79626028Y-210802116D01*
X79523340Y-210726621D01*
X79413150Y-210646965D01*
X79305171Y-210570161D01*
X79209117Y-210503219D01*
X79134701Y-210453153D01*
X79091635Y-210426972D01*
X79087980Y-210425344D01*
X79058525Y-210437923D01*
X78991452Y-210478055D01*
X78895042Y-210540437D01*
X78777573Y-210619766D01*
X78696286Y-210676197D01*
X78326731Y-210935371D01*
X77997306Y-210935371D01*
X77999330Y-210933244D01*
X78000756Y-210927161D01*
X77974611Y-210904690D01*
X77912242Y-210857209D01*
X77823746Y-210791960D01*
X77719219Y-210716186D01*
X77608758Y-210637133D01*
X77502461Y-210562041D01*
X77410424Y-210498156D01*
X77342744Y-210452719D01*
X77317588Y-210437074D01*
X77287088Y-210446533D01*
X77221374Y-210481906D01*
X77129856Y-210536925D01*
X77021941Y-210605321D01*
X76907040Y-210680825D01*
X76794560Y-210757170D01*
X76693911Y-210828087D01*
X76614502Y-210887308D01*
X76565740Y-210928564D01*
X76555434Y-210944841D01*
X74487333Y-210944841D01*
X74487333Y-210304270D01*
X75686778Y-210304270D01*
X75708566Y-210328821D01*
X75767382Y-210377799D01*
X75853405Y-210444149D01*
X75956813Y-210520816D01*
X76067784Y-210600747D01*
X76176498Y-210676886D01*
X76273131Y-210742179D01*
X76347864Y-210789572D01*
X76390874Y-210812009D01*
X76394891Y-210812887D01*
X76427697Y-210797882D01*
X76497147Y-210755407D01*
X76594293Y-210691271D01*
X76710187Y-210611283D01*
X76761780Y-210574729D01*
X76881237Y-210488274D01*
X76983105Y-210412311D01*
X77059019Y-210353253D01*
X77100613Y-210317513D01*
X77105837Y-210310995D01*
X77086623Y-210288542D01*
X77030108Y-210241547D01*
X76945899Y-210176866D01*
X76843601Y-210101355D01*
X76732821Y-210021870D01*
X76623163Y-209945266D01*
X76524233Y-209878398D01*
X76445638Y-209828123D01*
X76396983Y-209801297D01*
X76387995Y-209798667D01*
X76354636Y-209814333D01*
X76287214Y-209856602D01*
X76195566Y-209918382D01*
X76089529Y-209992578D01*
X75978941Y-210072098D01*
X75873640Y-210149849D01*
X75783461Y-210218738D01*
X75718244Y-210271671D01*
X75687824Y-210301556D01*
X75686778Y-210304270D01*
X74487333Y-210304270D01*
X74487333Y-209677036D01*
X74779628Y-209677036D01*
X74822113Y-209712458D01*
X74897283Y-209768518D01*
X74995386Y-209838576D01*
X75106667Y-209915991D01*
X75221373Y-209994124D01*
X75329750Y-210066334D01*
X75422045Y-210125983D01*
X75488504Y-210166430D01*
X75519374Y-210181035D01*
X75519857Y-210180953D01*
X75552597Y-210161709D01*
X75622216Y-210115471D01*
X75719838Y-210048298D01*
X75836591Y-209966254D01*
X75893802Y-209925529D01*
X76013583Y-209839455D01*
X76115160Y-209765575D01*
X76190555Y-209709760D01*
X76231791Y-209677884D01*
X76237111Y-209672788D01*
X76215206Y-209655031D01*
X76154800Y-209610919D01*
X76063854Y-209546148D01*
X75950331Y-209466411D01*
X75882596Y-209419241D01*
X75730133Y-209316547D01*
X75610435Y-209242655D01*
X75527242Y-209199715D01*
X75484298Y-209189880D01*
X75483955Y-209190005D01*
X75447476Y-209210629D01*
X75378004Y-209255180D01*
X75285214Y-209316969D01*
X75178777Y-209389308D01*
X75068365Y-209465509D01*
X74963652Y-209538883D01*
X74874310Y-209602742D01*
X74810011Y-209650397D01*
X74780428Y-209675160D01*
X74779628Y-209677036D01*
X74487333Y-209677036D01*
X74487333Y-209666967D01*
X74997113Y-209307404D01*
X75163530Y-209190407D01*
X75290376Y-209102714D01*
X75383993Y-209040796D01*
X75450724Y-209001128D01*
X75496911Y-208980179D01*
X75528896Y-208974423D01*
X75553021Y-208980332D01*
X75568613Y-208989508D01*
X75603114Y-209013513D01*
X75679128Y-209066877D01*
X75792082Y-209146376D01*
X75937399Y-209248785D01*
X76110507Y-209370876D01*
X76306830Y-209509425D01*
X76521794Y-209661207D01*
X76750824Y-209822994D01*
X76829778Y-209878784D01*
X78029222Y-210726392D01*
X78043333Y-210200232D01*
X78057131Y-209685778D01*
X78354556Y-209685778D01*
X78376150Y-209704456D01*
X78434663Y-209748264D01*
X78520453Y-209810425D01*
X78623878Y-209884161D01*
X78735295Y-209962695D01*
X78845063Y-210039250D01*
X78943539Y-210107049D01*
X79021083Y-210159313D01*
X79068050Y-210189266D01*
X79077279Y-210193778D01*
X79101503Y-210178570D01*
X79163826Y-210136672D01*
X79256041Y-210073672D01*
X79369945Y-209995159D01*
X79431461Y-209952530D01*
X79552867Y-209866669D01*
X79655785Y-209790860D01*
X79732108Y-209731316D01*
X79773729Y-209694247D01*
X79779000Y-209686245D01*
X79757321Y-209662430D01*
X79698817Y-209613903D01*
X79613289Y-209547764D01*
X79510537Y-209471113D01*
X79400361Y-209391052D01*
X79292562Y-209314682D01*
X79196939Y-209249102D01*
X79123294Y-209201413D01*
X79081426Y-209178718D01*
X79077222Y-209177778D01*
X79047171Y-209193103D01*
X78981966Y-209234516D01*
X78891339Y-209295176D01*
X78785021Y-209368244D01*
X78672744Y-209446878D01*
X78564241Y-209524237D01*
X78469241Y-209593480D01*
X78397477Y-209647767D01*
X78358679Y-209680257D01*
X78354556Y-209685778D01*
X78057131Y-209685778D01*
X78057445Y-209674071D01*
X78563530Y-209312397D01*
G36*
X86597476Y-115309274D02*
G01*
X86629945Y-115447056D01*
X86676728Y-115662722D01*
X86735546Y-115945299D01*
X86804117Y-116283815D01*
X86880159Y-116667296D01*
X86961393Y-117084769D01*
X86969107Y-117124803D01*
X87327311Y-118985659D01*
X89234909Y-119219952D01*
X89718406Y-119280552D01*
X90142273Y-119336139D01*
X90499305Y-119385648D01*
X90782293Y-119428012D01*
X90984034Y-119462166D01*
X91097320Y-119487043D01*
X91119972Y-119498844D01*
X91071775Y-119532837D01*
X90944578Y-119609870D01*
X90748485Y-119724165D01*
X90493598Y-119869940D01*
X90190020Y-120041420D01*
X89847853Y-120232824D01*
X89485872Y-120433583D01*
X89115163Y-120639477D01*
X88772771Y-120831827D01*
X88468884Y-121004739D01*
X88213692Y-121152325D01*
X88017387Y-121268690D01*
X87890156Y-121347944D01*
X87842375Y-121383799D01*
X87843486Y-121447514D01*
X87862510Y-121597550D01*
X87897254Y-121820637D01*
X87945527Y-122103505D01*
X88005138Y-122432884D01*
X88073896Y-122795505D01*
X88084487Y-122850016D01*
X88190430Y-123394501D01*
X88278042Y-123847348D01*
X88348694Y-124216586D01*
X88403760Y-124510245D01*
X88444610Y-124736357D01*
X88472621Y-124902953D01*
X88489162Y-125018061D01*
X88495609Y-125089716D01*
X88493333Y-125125947D01*
X88483707Y-125134784D01*
X88474188Y-125129664D01*
X88425830Y-125086270D01*
X88311913Y-124981600D01*
X88141137Y-124823724D01*
X87922200Y-124620706D01*
X87663804Y-124380616D01*
X87374647Y-124111518D01*
X87074782Y-123832067D01*
X86765021Y-123544165D01*
X86477968Y-123279217D01*
X86222215Y-123045015D01*
X86006358Y-122849349D01*
X85838991Y-122700011D01*
X85728708Y-122604793D01*
X85684318Y-122571496D01*
X85631128Y-122594050D01*
X85499446Y-122660648D01*
X85299494Y-122765815D01*
X85041493Y-122904072D01*
X84735667Y-123069942D01*
X84392237Y-123257950D01*
X84029090Y-123458371D01*
X83657580Y-123664042D01*
X83312932Y-123854546D01*
X83005535Y-124024161D01*
X82745775Y-124167169D01*
X82544042Y-124277851D01*
X82410723Y-124350487D01*
X82356644Y-124379161D01*
X82339090Y-124355526D01*
X82368093Y-124252916D01*
X82419631Y-124128483D01*
X82472433Y-124012479D01*
X82561826Y-123818485D01*
X82681307Y-123560516D01*
X82824368Y-123252588D01*
X82984504Y-122908716D01*
X83155208Y-122542916D01*
X83219181Y-122406025D01*
X83384727Y-122048802D01*
X83534510Y-121719576D01*
X83663456Y-121429979D01*
X83766492Y-121191644D01*
X83838544Y-121016202D01*
X83874538Y-120915288D01*
X83877505Y-120896685D01*
X83837661Y-120848072D01*
X83731505Y-120738779D01*
X83567465Y-120576948D01*
X83353969Y-120370719D01*
X83099445Y-120128235D01*
X82812320Y-119857636D01*
X82501181Y-119567210D01*
X82191075Y-119277965D01*
X81906058Y-119009955D01*
X81654379Y-118771104D01*
X81444285Y-118569331D01*
X81284022Y-118412559D01*
X81181840Y-118308709D01*
X81145984Y-118265704D01*
X81145992Y-118265572D01*
X81195634Y-118262968D01*
X81335051Y-118272051D01*
X81553229Y-118291691D01*
X81839153Y-118320766D01*
X82181811Y-118358145D01*
X82570186Y-118402704D01*
X82993267Y-118453315D01*
X83054129Y-118460756D01*
X84957578Y-118694110D01*
X85754940Y-116975431D01*
X85935670Y-116587600D01*
X86103595Y-116230560D01*
X86253848Y-115914412D01*
X86381561Y-115649251D01*
X86481868Y-115445174D01*
X86549902Y-115312279D01*
X86580796Y-115260663D01*
X86581602Y-115260351D01*
X86597476Y-115309274D01*
G37*
X86597476Y-115309274D02*
X86629945Y-115447056D01*
X86676728Y-115662722D01*
X86735546Y-115945299D01*
X86804117Y-116283815D01*
X86880159Y-116667296D01*
X86961393Y-117084769D01*
X86969107Y-117124803D01*
X87327311Y-118985659D01*
X89234909Y-119219952D01*
X89718406Y-119280552D01*
X90142273Y-119336139D01*
X90499305Y-119385648D01*
X90782293Y-119428012D01*
X90984034Y-119462166D01*
X91097320Y-119487043D01*
X91119972Y-119498844D01*
X91071775Y-119532837D01*
X90944578Y-119609870D01*
X90748485Y-119724165D01*
X90493598Y-119869940D01*
X90190020Y-120041420D01*
X89847853Y-120232824D01*
X89485872Y-120433583D01*
X89115163Y-120639477D01*
X88772771Y-120831827D01*
X88468884Y-121004739D01*
X88213692Y-121152325D01*
X88017387Y-121268690D01*
X87890156Y-121347944D01*
X87842375Y-121383799D01*
X87843486Y-121447514D01*
X87862510Y-121597550D01*
X87897254Y-121820637D01*
X87945527Y-122103505D01*
X88005138Y-122432884D01*
X88073896Y-122795505D01*
X88084487Y-122850016D01*
X88190430Y-123394501D01*
X88278042Y-123847348D01*
X88348694Y-124216586D01*
X88403760Y-124510245D01*
X88444610Y-124736357D01*
X88472621Y-124902953D01*
X88489162Y-125018061D01*
X88495609Y-125089716D01*
X88493333Y-125125947D01*
X88483707Y-125134784D01*
X88474188Y-125129664D01*
X88425830Y-125086270D01*
X88311913Y-124981600D01*
X88141137Y-124823724D01*
X87922200Y-124620706D01*
X87663804Y-124380616D01*
X87374647Y-124111518D01*
X87074782Y-123832067D01*
X86765021Y-123544165D01*
X86477968Y-123279217D01*
X86222215Y-123045015D01*
X86006358Y-122849349D01*
X85838991Y-122700011D01*
X85728708Y-122604793D01*
X85684318Y-122571496D01*
X85631128Y-122594050D01*
X85499446Y-122660648D01*
X85299494Y-122765815D01*
X85041493Y-122904072D01*
X84735667Y-123069942D01*
X84392237Y-123257950D01*
X84029090Y-123458371D01*
X83657580Y-123664042D01*
X83312932Y-123854546D01*
X83005535Y-124024161D01*
X82745775Y-124167169D01*
X82544042Y-124277851D01*
X82410723Y-124350487D01*
X82356644Y-124379161D01*
X82339090Y-124355526D01*
X82368093Y-124252916D01*
X82419631Y-124128483D01*
X82472433Y-124012479D01*
X82561826Y-123818485D01*
X82681307Y-123560516D01*
X82824368Y-123252588D01*
X82984504Y-122908716D01*
X83155208Y-122542916D01*
X83219181Y-122406025D01*
X83384727Y-122048802D01*
X83534510Y-121719576D01*
X83663456Y-121429979D01*
X83766492Y-121191644D01*
X83838544Y-121016202D01*
X83874538Y-120915288D01*
X83877505Y-120896685D01*
X83837661Y-120848072D01*
X83731505Y-120738779D01*
X83567465Y-120576948D01*
X83353969Y-120370719D01*
X83099445Y-120128235D01*
X82812320Y-119857636D01*
X82501181Y-119567210D01*
X82191075Y-119277965D01*
X81906058Y-119009955D01*
X81654379Y-118771104D01*
X81444285Y-118569331D01*
X81284022Y-118412559D01*
X81181840Y-118308709D01*
X81145984Y-118265704D01*
X81145992Y-118265572D01*
X81195634Y-118262968D01*
X81335051Y-118272051D01*
X81553229Y-118291691D01*
X81839153Y-118320766D01*
X82181811Y-118358145D01*
X82570186Y-118402704D01*
X82993267Y-118453315D01*
X83054129Y-118460756D01*
X84957578Y-118694110D01*
X85754940Y-116975431D01*
X85935670Y-116587600D01*
X86103595Y-116230560D01*
X86253848Y-115914412D01*
X86381561Y-115649251D01*
X86481868Y-115445174D01*
X86549902Y-115312279D01*
X86580796Y-115260663D01*
X86581602Y-115260351D01*
X86597476Y-115309274D01*
%TD*%
D14*
%TO.C,C1*%
X53000000Y-164000000D03*
D15*
X53000000Y-166000000D03*
%TD*%
D14*
%TO.C,D1*%
X49190000Y-130000000D03*
D16*
X56810000Y-130000000D03*
%TD*%
D14*
%TO.C,D2*%
X49190000Y-136000000D03*
D16*
X56810000Y-136000000D03*
%TD*%
D14*
%TO.C,D3*%
X49190000Y-142000000D03*
D16*
X56810000Y-142000000D03*
%TD*%
D14*
%TO.C,D4*%
X49190000Y-148000000D03*
D16*
X56810000Y-148000000D03*
%TD*%
D17*
%TO.C,J1*%
X53000000Y-193000000D03*
%TD*%
%TO.C,J2*%
X70000000Y-193000000D03*
%TD*%
%TO.C,J3*%
X87000000Y-193000000D03*
%TD*%
D15*
%TO.C,R1*%
X61080000Y-175000000D03*
D16*
X50920000Y-175000000D03*
%TD*%
D15*
%TO.C,R2*%
X64920000Y-175000000D03*
D16*
X75080000Y-175000000D03*
%TD*%
D15*
%TO.C,R3*%
X51000000Y-180000000D03*
D16*
X61160000Y-180000000D03*
%TD*%
D15*
%TO.C,R4*%
X78000000Y-156000000D03*
D16*
X67840000Y-156000000D03*
%TD*%
D15*
%TO.C,R5*%
X87000000Y-143000000D03*
D16*
X87000000Y-132840000D03*
%TD*%
D15*
%TO.C,R6*%
X65000000Y-156000000D03*
D16*
X54840000Y-156000000D03*
%TD*%
D15*
%TO.C,R7*%
X89080000Y-175000000D03*
D16*
X78920000Y-175000000D03*
%TD*%
D15*
%TO.C,R8*%
X64920000Y-180000000D03*
D16*
X75080000Y-180000000D03*
%TD*%
D15*
%TO.C,R9*%
X78920000Y-180000000D03*
D16*
X89080000Y-180000000D03*
%TD*%
D18*
%TO.C,U1*%
X62375000Y-168800000D03*
D19*
X64915000Y-168800000D03*
X67455000Y-168800000D03*
X69995000Y-168800000D03*
X72535000Y-168800000D03*
X75075000Y-168800000D03*
X77615000Y-168800000D03*
X77615000Y-161180000D03*
X75075000Y-161180000D03*
X72535000Y-161180000D03*
X69995000Y-161180000D03*
X67455000Y-161180000D03*
X64915000Y-161180000D03*
X62375000Y-161180000D03*
%TD*%
D20*
%TO.C,U2*%
X85100000Y-162500000D03*
D21*
X88900000Y-162500000D03*
X84460000Y-147500000D03*
X89540000Y-147500000D03*
%TD*%
D14*
%TO.C,C2*%
X53000000Y-51000000D03*
D15*
X51000000Y-51000000D03*
%TD*%
D14*
%TO.C,C3*%
X57000000Y-46000000D03*
D15*
X59000000Y-46000000D03*
%TD*%
%TO.C,C4*%
X86000000Y-169000000D03*
X86000000Y-166500000D03*
%TD*%
%TO.C,R10*%
X65000000Y-55000000D03*
D16*
X75160000Y-55000000D03*
%TD*%
D15*
%TO.C,R11*%
X64920000Y-48000000D03*
D16*
X75080000Y-48000000D03*
%TD*%
D22*
%TO.C,REF\u002A\u002A*%
X90000000Y-28000000D03*
X90000000Y-222000000D03*
%TD*%
%TO.C,REF\u002A\u002A*%
X49900000Y-222000000D03*
X49900000Y-28000000D03*
%TD*%
D23*
%TO.C,RV1*%
X77500000Y-104100000D03*
D24*
X65000000Y-116000000D03*
X70000000Y-116000000D03*
X75000000Y-116000000D03*
%TD*%
D23*
%TO.C,RV2*%
X77500000Y-74100000D03*
D24*
X65000000Y-86000000D03*
X70000000Y-86000000D03*
X75000000Y-86000000D03*
%TD*%
D23*
%TO.C,RV3*%
X77500000Y-134100000D03*
D24*
X65000000Y-146000000D03*
X70000000Y-146000000D03*
X75000000Y-146000000D03*
%TD*%
D25*
%TO.C,J4*%
X86752500Y-50000000D03*
D26*
X84212500Y-50000000D03*
X86752500Y-52540000D03*
X84212500Y-52540000D03*
X86752500Y-55080000D03*
X84212500Y-55080000D03*
X86752500Y-57620000D03*
X84212500Y-57620000D03*
X86752500Y-60160000D03*
X84212500Y-60160000D03*
%TD*%
M02*
