%TF.GenerationSoftware,KiCad,Pcbnew,6.0.9-8da3e8f707~117~ubuntu22.04.1*%
%TF.CreationDate,2022-12-15T23:13:04+01:00*%
%TF.ProjectId,kosmo-sidechain,6b6f736d-6f2d-4736-9964-65636861696e,v1.0.0*%
%TF.SameCoordinates,Original*%
%TF.FileFunction,Legend,Bot*%
%TF.FilePolarity,Positive*%
%FSLAX46Y46*%
G04 Gerber Fmt 4.6, Leading zero omitted, Abs format (unit mm)*
G04 Created by KiCad (PCBNEW 6.0.9-8da3e8f707~117~ubuntu22.04.1) date 2022-12-15 23:13:04*
%MOMM*%
%LPD*%
G01*
G04 APERTURE LIST*
%ADD10C,0.150000*%
%ADD11C,0.250000*%
%ADD12C,0.100000*%
%ADD13C,0.120000*%
G04 APERTURE END LIST*
D10*
X74619047Y-220052380D02*
X74619047Y-220766666D01*
X74666666Y-220909523D01*
X74761904Y-221004761D01*
X74904761Y-221052380D01*
X75000000Y-221052380D01*
X73666666Y-221052380D02*
X74142857Y-221052380D01*
X74142857Y-220052380D01*
X72761904Y-220957142D02*
X72809523Y-221004761D01*
X72952380Y-221052380D01*
X73047619Y-221052380D01*
X73190476Y-221004761D01*
X73285714Y-220909523D01*
X73333333Y-220814285D01*
X73380952Y-220623809D01*
X73380952Y-220480952D01*
X73333333Y-220290476D01*
X73285714Y-220195238D01*
X73190476Y-220100000D01*
X73047619Y-220052380D01*
X72952380Y-220052380D01*
X72809523Y-220100000D01*
X72761904Y-220147619D01*
X72047619Y-220052380D02*
X72047619Y-220766666D01*
X72095238Y-220909523D01*
X72190476Y-221004761D01*
X72333333Y-221052380D01*
X72428571Y-221052380D01*
X71095238Y-221052380D02*
X71571428Y-221052380D01*
X71571428Y-220052380D01*
X70190476Y-220957142D02*
X70238095Y-221004761D01*
X70380952Y-221052380D01*
X70476190Y-221052380D01*
X70619047Y-221004761D01*
X70714285Y-220909523D01*
X70761904Y-220814285D01*
X70809523Y-220623809D01*
X70809523Y-220480952D01*
X70761904Y-220290476D01*
X70714285Y-220195238D01*
X70619047Y-220100000D01*
X70476190Y-220052380D01*
X70380952Y-220052380D01*
X70238095Y-220100000D01*
X70190476Y-220147619D01*
X69476190Y-220052380D02*
X69476190Y-220766666D01*
X69523809Y-220909523D01*
X69619047Y-221004761D01*
X69761904Y-221052380D01*
X69857142Y-221052380D01*
X68523809Y-221052380D02*
X69000000Y-221052380D01*
X69000000Y-220052380D01*
X67619047Y-220957142D02*
X67666666Y-221004761D01*
X67809523Y-221052380D01*
X67904761Y-221052380D01*
X68047619Y-221004761D01*
X68142857Y-220909523D01*
X68190476Y-220814285D01*
X68238095Y-220623809D01*
X68238095Y-220480952D01*
X68190476Y-220290476D01*
X68142857Y-220195238D01*
X68047619Y-220100000D01*
X67904761Y-220052380D01*
X67809523Y-220052380D01*
X67666666Y-220100000D01*
X67619047Y-220147619D01*
X66904761Y-220052380D02*
X66904761Y-220766666D01*
X66952380Y-220909523D01*
X67047619Y-221004761D01*
X67190476Y-221052380D01*
X67285714Y-221052380D01*
X65952380Y-221052380D02*
X66428571Y-221052380D01*
X66428571Y-220052380D01*
X65047619Y-220957142D02*
X65095238Y-221004761D01*
X65238095Y-221052380D01*
X65333333Y-221052380D01*
X65476190Y-221004761D01*
X65571428Y-220909523D01*
X65619047Y-220814285D01*
X65666666Y-220623809D01*
X65666666Y-220480952D01*
X65619047Y-220290476D01*
X65571428Y-220195238D01*
X65476190Y-220100000D01*
X65333333Y-220052380D01*
X65238095Y-220052380D01*
X65095238Y-220100000D01*
X65047619Y-220147619D01*
D11*
X52463571Y-80671428D02*
X50963571Y-80671428D01*
X50963571Y-81242857D01*
X51035000Y-81385714D01*
X51106428Y-81457142D01*
X51249285Y-81528571D01*
X51463571Y-81528571D01*
X51606428Y-81457142D01*
X51677857Y-81385714D01*
X51749285Y-81242857D01*
X51749285Y-80671428D01*
X52463571Y-82385714D02*
X52392142Y-82242857D01*
X52320714Y-82171428D01*
X52177857Y-82100000D01*
X51749285Y-82100000D01*
X51606428Y-82171428D01*
X51535000Y-82242857D01*
X51463571Y-82385714D01*
X51463571Y-82600000D01*
X51535000Y-82742857D01*
X51606428Y-82814285D01*
X51749285Y-82885714D01*
X52177857Y-82885714D01*
X52320714Y-82814285D01*
X52392142Y-82742857D01*
X52463571Y-82600000D01*
X52463571Y-82385714D01*
X52463571Y-83742857D02*
X52392142Y-83600000D01*
X52249285Y-83528571D01*
X50963571Y-83528571D01*
X51463571Y-84171428D02*
X52463571Y-84528571D01*
X51463571Y-84885714D02*
X52463571Y-84528571D01*
X52820714Y-84385714D01*
X52892142Y-84314285D01*
X52963571Y-84171428D01*
X52463571Y-85457142D02*
X50963571Y-85457142D01*
X51892142Y-85600000D02*
X52463571Y-86028571D01*
X51463571Y-86028571D02*
X52035000Y-85457142D01*
X52463571Y-86671428D02*
X51463571Y-86671428D01*
X50963571Y-86671428D02*
X51035000Y-86600000D01*
X51106428Y-86671428D01*
X51035000Y-86742857D01*
X50963571Y-86671428D01*
X51106428Y-86671428D01*
X51463571Y-87171428D02*
X51463571Y-87742857D01*
X50963571Y-87385714D02*
X52249285Y-87385714D01*
X52392142Y-87457142D01*
X52463571Y-87600000D01*
X52463571Y-87742857D01*
X52392142Y-89314285D02*
X52463571Y-89528571D01*
X52463571Y-89885714D01*
X52392142Y-90028571D01*
X52320714Y-90100000D01*
X52177857Y-90171428D01*
X52035000Y-90171428D01*
X51892142Y-90100000D01*
X51820714Y-90028571D01*
X51749285Y-89885714D01*
X51677857Y-89600000D01*
X51606428Y-89457142D01*
X51535000Y-89385714D01*
X51392142Y-89314285D01*
X51249285Y-89314285D01*
X51106428Y-89385714D01*
X51035000Y-89457142D01*
X50963571Y-89600000D01*
X50963571Y-89957142D01*
X51035000Y-90171428D01*
X52463571Y-90814285D02*
X51463571Y-90814285D01*
X50963571Y-90814285D02*
X51035000Y-90742857D01*
X51106428Y-90814285D01*
X51035000Y-90885714D01*
X50963571Y-90814285D01*
X51106428Y-90814285D01*
X52463571Y-92171428D02*
X50963571Y-92171428D01*
X52392142Y-92171428D02*
X52463571Y-92028571D01*
X52463571Y-91742857D01*
X52392142Y-91600000D01*
X52320714Y-91528571D01*
X52177857Y-91457142D01*
X51749285Y-91457142D01*
X51606428Y-91528571D01*
X51535000Y-91600000D01*
X51463571Y-91742857D01*
X51463571Y-92028571D01*
X51535000Y-92171428D01*
X52392142Y-93457142D02*
X52463571Y-93314285D01*
X52463571Y-93028571D01*
X52392142Y-92885714D01*
X52249285Y-92814285D01*
X51677857Y-92814285D01*
X51535000Y-92885714D01*
X51463571Y-93028571D01*
X51463571Y-93314285D01*
X51535000Y-93457142D01*
X51677857Y-93528571D01*
X51820714Y-93528571D01*
X51963571Y-92814285D01*
X52392142Y-94814285D02*
X52463571Y-94671428D01*
X52463571Y-94385714D01*
X52392142Y-94242857D01*
X52320714Y-94171428D01*
X52177857Y-94100000D01*
X51749285Y-94100000D01*
X51606428Y-94171428D01*
X51535000Y-94242857D01*
X51463571Y-94385714D01*
X51463571Y-94671428D01*
X51535000Y-94814285D01*
X52463571Y-95457142D02*
X50963571Y-95457142D01*
X52463571Y-96100000D02*
X51677857Y-96100000D01*
X51535000Y-96028571D01*
X51463571Y-95885714D01*
X51463571Y-95671428D01*
X51535000Y-95528571D01*
X51606428Y-95457142D01*
X52463571Y-97457142D02*
X51677857Y-97457142D01*
X51535000Y-97385714D01*
X51463571Y-97242857D01*
X51463571Y-96957142D01*
X51535000Y-96814285D01*
X52392142Y-97457142D02*
X52463571Y-97314285D01*
X52463571Y-96957142D01*
X52392142Y-96814285D01*
X52249285Y-96742857D01*
X52106428Y-96742857D01*
X51963571Y-96814285D01*
X51892142Y-96957142D01*
X51892142Y-97314285D01*
X51820714Y-97457142D01*
X52463571Y-98171428D02*
X51463571Y-98171428D01*
X50963571Y-98171428D02*
X51035000Y-98100000D01*
X51106428Y-98171428D01*
X51035000Y-98242857D01*
X50963571Y-98171428D01*
X51106428Y-98171428D01*
X51463571Y-98885714D02*
X52463571Y-98885714D01*
X51606428Y-98885714D02*
X51535000Y-98957142D01*
X51463571Y-99100000D01*
X51463571Y-99314285D01*
X51535000Y-99457142D01*
X51677857Y-99528571D01*
X52463571Y-99528571D01*
X51463571Y-101242857D02*
X52463571Y-101600000D01*
X51463571Y-101957142D01*
X52463571Y-103314285D02*
X52463571Y-102457142D01*
X52463571Y-102885714D02*
X50963571Y-102885714D01*
X51177857Y-102742857D01*
X51320714Y-102600000D01*
X51392142Y-102457142D01*
X52320714Y-103957142D02*
X52392142Y-104028571D01*
X52463571Y-103957142D01*
X52392142Y-103885714D01*
X52320714Y-103957142D01*
X52463571Y-103957142D01*
X50963571Y-104957142D02*
X50963571Y-105100000D01*
X51035000Y-105242857D01*
X51106428Y-105314285D01*
X51249285Y-105385714D01*
X51535000Y-105457142D01*
X51892142Y-105457142D01*
X52177857Y-105385714D01*
X52320714Y-105314285D01*
X52392142Y-105242857D01*
X52463571Y-105100000D01*
X52463571Y-104957142D01*
X52392142Y-104814285D01*
X52320714Y-104742857D01*
X52177857Y-104671428D01*
X51892142Y-104600000D01*
X51535000Y-104600000D01*
X51249285Y-104671428D01*
X51106428Y-104742857D01*
X51035000Y-104814285D01*
X50963571Y-104957142D01*
X52320714Y-106100000D02*
X52392142Y-106171428D01*
X52463571Y-106100000D01*
X52392142Y-106028571D01*
X52320714Y-106100000D01*
X52463571Y-106100000D01*
X50963571Y-107100000D02*
X50963571Y-107242857D01*
X51035000Y-107385714D01*
X51106428Y-107457142D01*
X51249285Y-107528571D01*
X51535000Y-107600000D01*
X51892142Y-107600000D01*
X52177857Y-107528571D01*
X52320714Y-107457142D01*
X52392142Y-107385714D01*
X52463571Y-107242857D01*
X52463571Y-107100000D01*
X52392142Y-106957142D01*
X52320714Y-106885714D01*
X52177857Y-106814285D01*
X51892142Y-106742857D01*
X51535000Y-106742857D01*
X51249285Y-106814285D01*
X51106428Y-106885714D01*
X51035000Y-106957142D01*
X50963571Y-107100000D01*
X53378571Y-84707142D02*
X54450000Y-84707142D01*
X54664285Y-84635714D01*
X54807142Y-84492857D01*
X54878571Y-84278571D01*
X54878571Y-84135714D01*
X54878571Y-86064285D02*
X54092857Y-86064285D01*
X53950000Y-85992857D01*
X53878571Y-85850000D01*
X53878571Y-85564285D01*
X53950000Y-85421428D01*
X54807142Y-86064285D02*
X54878571Y-85921428D01*
X54878571Y-85564285D01*
X54807142Y-85421428D01*
X54664285Y-85350000D01*
X54521428Y-85350000D01*
X54378571Y-85421428D01*
X54307142Y-85564285D01*
X54307142Y-85921428D01*
X54235714Y-86064285D01*
X53878571Y-86778571D02*
X54878571Y-86778571D01*
X54021428Y-86778571D02*
X53950000Y-86850000D01*
X53878571Y-86992857D01*
X53878571Y-87207142D01*
X53950000Y-87350000D01*
X54092857Y-87421428D01*
X54878571Y-87421428D01*
X54878571Y-89278571D02*
X53378571Y-89278571D01*
X54878571Y-90135714D02*
X54021428Y-89492857D01*
X53378571Y-90135714D02*
X54235714Y-89278571D01*
X53878571Y-90778571D02*
X54878571Y-90778571D01*
X54021428Y-90778571D02*
X53950000Y-90850000D01*
X53878571Y-90992857D01*
X53878571Y-91207142D01*
X53950000Y-91350000D01*
X54092857Y-91421428D01*
X54878571Y-91421428D01*
X54878571Y-92135714D02*
X53878571Y-92135714D01*
X53378571Y-92135714D02*
X53450000Y-92064285D01*
X53521428Y-92135714D01*
X53450000Y-92207142D01*
X53378571Y-92135714D01*
X53521428Y-92135714D01*
X53878571Y-92850000D02*
X55378571Y-92850000D01*
X53950000Y-92850000D02*
X53878571Y-92992857D01*
X53878571Y-93278571D01*
X53950000Y-93421428D01*
X54021428Y-93492857D01*
X54164285Y-93564285D01*
X54592857Y-93564285D01*
X54735714Y-93492857D01*
X54807142Y-93421428D01*
X54878571Y-93278571D01*
X54878571Y-92992857D01*
X54807142Y-92850000D01*
X53878571Y-94207142D02*
X55378571Y-94207142D01*
X53950000Y-94207142D02*
X53878571Y-94350000D01*
X53878571Y-94635714D01*
X53950000Y-94778571D01*
X54021428Y-94850000D01*
X54164285Y-94921428D01*
X54592857Y-94921428D01*
X54735714Y-94850000D01*
X54807142Y-94778571D01*
X54878571Y-94635714D01*
X54878571Y-94350000D01*
X54807142Y-94207142D01*
X54807142Y-96135714D02*
X54878571Y-95992857D01*
X54878571Y-95707142D01*
X54807142Y-95564285D01*
X54664285Y-95492857D01*
X54092857Y-95492857D01*
X53950000Y-95564285D01*
X53878571Y-95707142D01*
X53878571Y-95992857D01*
X53950000Y-96135714D01*
X54092857Y-96207142D01*
X54235714Y-96207142D01*
X54378571Y-95492857D01*
X54878571Y-96850000D02*
X53878571Y-96850000D01*
X54164285Y-96850000D02*
X54021428Y-96921428D01*
X53950000Y-96992857D01*
X53878571Y-97135714D01*
X53878571Y-97278571D01*
X53521428Y-98850000D02*
X53450000Y-98921428D01*
X53378571Y-99064285D01*
X53378571Y-99421428D01*
X53450000Y-99564285D01*
X53521428Y-99635714D01*
X53664285Y-99707142D01*
X53807142Y-99707142D01*
X54021428Y-99635714D01*
X54878571Y-98778571D01*
X54878571Y-99707142D01*
X53378571Y-100635714D02*
X53378571Y-100778571D01*
X53450000Y-100921428D01*
X53521428Y-100992857D01*
X53664285Y-101064285D01*
X53950000Y-101135714D01*
X54307142Y-101135714D01*
X54592857Y-101064285D01*
X54735714Y-100992857D01*
X54807142Y-100921428D01*
X54878571Y-100778571D01*
X54878571Y-100635714D01*
X54807142Y-100492857D01*
X54735714Y-100421428D01*
X54592857Y-100350000D01*
X54307142Y-100278571D01*
X53950000Y-100278571D01*
X53664285Y-100350000D01*
X53521428Y-100421428D01*
X53450000Y-100492857D01*
X53378571Y-100635714D01*
X53521428Y-101707142D02*
X53450000Y-101778571D01*
X53378571Y-101921428D01*
X53378571Y-102278571D01*
X53450000Y-102421428D01*
X53521428Y-102492857D01*
X53664285Y-102564285D01*
X53807142Y-102564285D01*
X54021428Y-102492857D01*
X54878571Y-101635714D01*
X54878571Y-102564285D01*
X53521428Y-103135714D02*
X53450000Y-103207142D01*
X53378571Y-103350000D01*
X53378571Y-103707142D01*
X53450000Y-103850000D01*
X53521428Y-103921428D01*
X53664285Y-103992857D01*
X53807142Y-103992857D01*
X54021428Y-103921428D01*
X54878571Y-103064285D01*
X54878571Y-103992857D01*
X56293571Y-84421428D02*
X57507857Y-84421428D01*
X57650714Y-84350000D01*
X57722142Y-84278571D01*
X57793571Y-84135714D01*
X57793571Y-83921428D01*
X57722142Y-83778571D01*
X57222142Y-84421428D02*
X57293571Y-84278571D01*
X57293571Y-83992857D01*
X57222142Y-83850000D01*
X57150714Y-83778571D01*
X57007857Y-83707142D01*
X56579285Y-83707142D01*
X56436428Y-83778571D01*
X56365000Y-83850000D01*
X56293571Y-83992857D01*
X56293571Y-84278571D01*
X56365000Y-84421428D01*
X57293571Y-85135714D02*
X56293571Y-85135714D01*
X55793571Y-85135714D02*
X55865000Y-85064285D01*
X55936428Y-85135714D01*
X55865000Y-85207142D01*
X55793571Y-85135714D01*
X55936428Y-85135714D01*
X56293571Y-85635714D02*
X56293571Y-86207142D01*
X55793571Y-85850000D02*
X57079285Y-85850000D01*
X57222142Y-85921428D01*
X57293571Y-86064285D01*
X57293571Y-86207142D01*
X57293571Y-86707142D02*
X55793571Y-86707142D01*
X57293571Y-87350000D02*
X56507857Y-87350000D01*
X56365000Y-87278571D01*
X56293571Y-87135714D01*
X56293571Y-86921428D01*
X56365000Y-86778571D01*
X56436428Y-86707142D01*
X56293571Y-88707142D02*
X57293571Y-88707142D01*
X56293571Y-88064285D02*
X57079285Y-88064285D01*
X57222142Y-88135714D01*
X57293571Y-88278571D01*
X57293571Y-88492857D01*
X57222142Y-88635714D01*
X57150714Y-88707142D01*
X57293571Y-89421428D02*
X55793571Y-89421428D01*
X56365000Y-89421428D02*
X56293571Y-89564285D01*
X56293571Y-89850000D01*
X56365000Y-89992857D01*
X56436428Y-90064285D01*
X56579285Y-90135714D01*
X57007857Y-90135714D01*
X57150714Y-90064285D01*
X57222142Y-89992857D01*
X57293571Y-89850000D01*
X57293571Y-89564285D01*
X57222142Y-89421428D01*
X57150714Y-90778571D02*
X57222142Y-90850000D01*
X57293571Y-90778571D01*
X57222142Y-90707142D01*
X57150714Y-90778571D01*
X57293571Y-90778571D01*
X57222142Y-92135714D02*
X57293571Y-91992857D01*
X57293571Y-91707142D01*
X57222142Y-91564285D01*
X57150714Y-91492857D01*
X57007857Y-91421428D01*
X56579285Y-91421428D01*
X56436428Y-91492857D01*
X56365000Y-91564285D01*
X56293571Y-91707142D01*
X56293571Y-91992857D01*
X56365000Y-92135714D01*
X57293571Y-92992857D02*
X57222142Y-92850000D01*
X57150714Y-92778571D01*
X57007857Y-92707142D01*
X56579285Y-92707142D01*
X56436428Y-92778571D01*
X56365000Y-92850000D01*
X56293571Y-92992857D01*
X56293571Y-93207142D01*
X56365000Y-93350000D01*
X56436428Y-93421428D01*
X56579285Y-93492857D01*
X57007857Y-93492857D01*
X57150714Y-93421428D01*
X57222142Y-93350000D01*
X57293571Y-93207142D01*
X57293571Y-92992857D01*
X57293571Y-94135714D02*
X56293571Y-94135714D01*
X56436428Y-94135714D02*
X56365000Y-94207142D01*
X56293571Y-94350000D01*
X56293571Y-94564285D01*
X56365000Y-94707142D01*
X56507857Y-94778571D01*
X57293571Y-94778571D01*
X56507857Y-94778571D02*
X56365000Y-94850000D01*
X56293571Y-94992857D01*
X56293571Y-95207142D01*
X56365000Y-95350000D01*
X56507857Y-95421428D01*
X57293571Y-95421428D01*
X55722142Y-97207142D02*
X57650714Y-95921428D01*
X56293571Y-97707142D02*
X57793571Y-97707142D01*
X56365000Y-97707142D02*
X56293571Y-97850000D01*
X56293571Y-98135714D01*
X56365000Y-98278571D01*
X56436428Y-98350000D01*
X56579285Y-98421428D01*
X57007857Y-98421428D01*
X57150714Y-98350000D01*
X57222142Y-98278571D01*
X57293571Y-98135714D01*
X57293571Y-97850000D01*
X57222142Y-97707142D01*
X57293571Y-99278571D02*
X57222142Y-99135714D01*
X57150714Y-99064285D01*
X57007857Y-98992857D01*
X56579285Y-98992857D01*
X56436428Y-99064285D01*
X56365000Y-99135714D01*
X56293571Y-99278571D01*
X56293571Y-99492857D01*
X56365000Y-99635714D01*
X56436428Y-99707142D01*
X56579285Y-99778571D01*
X57007857Y-99778571D01*
X57150714Y-99707142D01*
X57222142Y-99635714D01*
X57293571Y-99492857D01*
X57293571Y-99278571D01*
X57293571Y-100635714D02*
X57222142Y-100492857D01*
X57079285Y-100421428D01*
X55793571Y-100421428D01*
X56293571Y-101064285D02*
X57293571Y-101421428D01*
X56293571Y-101778571D02*
X57293571Y-101421428D01*
X57650714Y-101278571D01*
X57722142Y-101207142D01*
X57793571Y-101064285D01*
X57293571Y-102350000D02*
X55793571Y-102350000D01*
X56722142Y-102492857D02*
X57293571Y-102921428D01*
X56293571Y-102921428D02*
X56865000Y-102350000D01*
X57293571Y-103564285D02*
X56293571Y-103564285D01*
X55793571Y-103564285D02*
X55865000Y-103492857D01*
X55936428Y-103564285D01*
X55865000Y-103635714D01*
X55793571Y-103564285D01*
X55936428Y-103564285D01*
X56293571Y-104064285D02*
X56293571Y-104635714D01*
X55793571Y-104278571D02*
X57079285Y-104278571D01*
X57222142Y-104350000D01*
X57293571Y-104492857D01*
X57293571Y-104635714D01*
D10*
%TO.C,J1*%
X58633333Y-199252380D02*
X58633333Y-199966666D01*
X58680952Y-200109523D01*
X58776190Y-200204761D01*
X58919047Y-200252380D01*
X59014285Y-200252380D01*
X57633333Y-200252380D02*
X58204761Y-200252380D01*
X57919047Y-200252380D02*
X57919047Y-199252380D01*
X58014285Y-199395238D01*
X58109523Y-199490476D01*
X58204761Y-199538095D01*
%TO.C,J2*%
X75633333Y-199252380D02*
X75633333Y-199966666D01*
X75680952Y-200109523D01*
X75776190Y-200204761D01*
X75919047Y-200252380D01*
X76014285Y-200252380D01*
X75204761Y-199347619D02*
X75157142Y-199300000D01*
X75061904Y-199252380D01*
X74823809Y-199252380D01*
X74728571Y-199300000D01*
X74680952Y-199347619D01*
X74633333Y-199442857D01*
X74633333Y-199538095D01*
X74680952Y-199680952D01*
X75252380Y-200252380D01*
X74633333Y-200252380D01*
%TO.C,J3*%
X92633333Y-199252380D02*
X92633333Y-199966666D01*
X92680952Y-200109523D01*
X92776190Y-200204761D01*
X92919047Y-200252380D01*
X93014285Y-200252380D01*
X92252380Y-199252380D02*
X91633333Y-199252380D01*
X91966666Y-199633333D01*
X91823809Y-199633333D01*
X91728571Y-199680952D01*
X91680952Y-199728571D01*
X91633333Y-199823809D01*
X91633333Y-200061904D01*
X91680952Y-200157142D01*
X91728571Y-200204761D01*
X91823809Y-200252380D01*
X92109523Y-200252380D01*
X92204761Y-200204761D01*
X92252380Y-200157142D01*
%TO.C,RV1*%
X72714285Y-95352380D02*
X72714285Y-94352380D01*
X72380952Y-95066666D01*
X72047619Y-94352380D01*
X72047619Y-95352380D01*
X71571428Y-95352380D02*
X71571428Y-94685714D01*
X71571428Y-94352380D02*
X71619047Y-94400000D01*
X71571428Y-94447619D01*
X71523809Y-94400000D01*
X71571428Y-94352380D01*
X71571428Y-94447619D01*
X71190476Y-95352380D02*
X70666666Y-94685714D01*
X71190476Y-94685714D02*
X70666666Y-95352380D01*
X69000000Y-95352380D02*
X69571428Y-95352380D01*
X69285714Y-95352380D02*
X69285714Y-94352380D01*
X69380952Y-94495238D01*
X69476190Y-94590476D01*
X69571428Y-94638095D01*
X68380952Y-94352380D02*
X68285714Y-94352380D01*
X68190476Y-94400000D01*
X68142857Y-94447619D01*
X68095238Y-94542857D01*
X68047619Y-94733333D01*
X68047619Y-94971428D01*
X68095238Y-95161904D01*
X68142857Y-95257142D01*
X68190476Y-95304761D01*
X68285714Y-95352380D01*
X68380952Y-95352380D01*
X68476190Y-95304761D01*
X68523809Y-95257142D01*
X68571428Y-95161904D01*
X68619047Y-94971428D01*
X68619047Y-94733333D01*
X68571428Y-94542857D01*
X68523809Y-94447619D01*
X68476190Y-94400000D01*
X68380952Y-94352380D01*
X67619047Y-95352380D02*
X67619047Y-94352380D01*
X67523809Y-94971428D02*
X67238095Y-95352380D01*
X67238095Y-94685714D02*
X67619047Y-95066666D01*
%TO.C,RV2*%
X74285714Y-65066666D02*
X73809523Y-65066666D01*
X74380952Y-65352380D02*
X74047619Y-64352380D01*
X73714285Y-65352380D01*
X73380952Y-65352380D02*
X73380952Y-64685714D01*
X73380952Y-64780952D02*
X73333333Y-64733333D01*
X73238095Y-64685714D01*
X73095238Y-64685714D01*
X73000000Y-64733333D01*
X72952380Y-64828571D01*
X72952380Y-65352380D01*
X72952380Y-64828571D02*
X72904761Y-64733333D01*
X72809523Y-64685714D01*
X72666666Y-64685714D01*
X72571428Y-64733333D01*
X72523809Y-64828571D01*
X72523809Y-65352380D01*
X71904761Y-65352380D02*
X72000000Y-65304761D01*
X72047619Y-65257142D01*
X72095238Y-65161904D01*
X72095238Y-64876190D01*
X72047619Y-64780952D01*
X72000000Y-64733333D01*
X71904761Y-64685714D01*
X71761904Y-64685714D01*
X71666666Y-64733333D01*
X71619047Y-64780952D01*
X71571428Y-64876190D01*
X71571428Y-65161904D01*
X71619047Y-65257142D01*
X71666666Y-65304761D01*
X71761904Y-65352380D01*
X71904761Y-65352380D01*
X70714285Y-64685714D02*
X70714285Y-65352380D01*
X71142857Y-64685714D02*
X71142857Y-65209523D01*
X71095238Y-65304761D01*
X71000000Y-65352380D01*
X70857142Y-65352380D01*
X70761904Y-65304761D01*
X70714285Y-65257142D01*
X70238095Y-64685714D02*
X70238095Y-65352380D01*
X70238095Y-64780952D02*
X70190476Y-64733333D01*
X70095238Y-64685714D01*
X69952380Y-64685714D01*
X69857142Y-64733333D01*
X69809523Y-64828571D01*
X69809523Y-65352380D01*
X69476190Y-64685714D02*
X69095238Y-64685714D01*
X69333333Y-64352380D02*
X69333333Y-65209523D01*
X69285714Y-65304761D01*
X69190476Y-65352380D01*
X69095238Y-65352380D01*
X67476190Y-65352380D02*
X68047619Y-65352380D01*
X67761904Y-65352380D02*
X67761904Y-64352380D01*
X67857142Y-64495238D01*
X67952380Y-64590476D01*
X68047619Y-64638095D01*
X66857142Y-64352380D02*
X66761904Y-64352380D01*
X66666666Y-64400000D01*
X66619047Y-64447619D01*
X66571428Y-64542857D01*
X66523809Y-64733333D01*
X66523809Y-64971428D01*
X66571428Y-65161904D01*
X66619047Y-65257142D01*
X66666666Y-65304761D01*
X66761904Y-65352380D01*
X66857142Y-65352380D01*
X66952380Y-65304761D01*
X67000000Y-65257142D01*
X67047619Y-65161904D01*
X67095238Y-64971428D01*
X67095238Y-64733333D01*
X67047619Y-64542857D01*
X67000000Y-64447619D01*
X66952380Y-64400000D01*
X66857142Y-64352380D01*
X66095238Y-65352380D02*
X66095238Y-64352380D01*
X66000000Y-64971428D02*
X65714285Y-65352380D01*
X65714285Y-64685714D02*
X66095238Y-65066666D01*
%TO.C,RV3*%
X74166666Y-125352380D02*
X74166666Y-124352380D01*
X73928571Y-124352380D01*
X73785714Y-124400000D01*
X73690476Y-124495238D01*
X73642857Y-124590476D01*
X73595238Y-124780952D01*
X73595238Y-124923809D01*
X73642857Y-125114285D01*
X73690476Y-125209523D01*
X73785714Y-125304761D01*
X73928571Y-125352380D01*
X74166666Y-125352380D01*
X72785714Y-125304761D02*
X72880952Y-125352380D01*
X73071428Y-125352380D01*
X73166666Y-125304761D01*
X73214285Y-125209523D01*
X73214285Y-124828571D01*
X73166666Y-124733333D01*
X73071428Y-124685714D01*
X72880952Y-124685714D01*
X72785714Y-124733333D01*
X72738095Y-124828571D01*
X72738095Y-124923809D01*
X73214285Y-125019047D01*
X71880952Y-125304761D02*
X71976190Y-125352380D01*
X72166666Y-125352380D01*
X72261904Y-125304761D01*
X72309523Y-125257142D01*
X72357142Y-125161904D01*
X72357142Y-124876190D01*
X72309523Y-124780952D01*
X72261904Y-124733333D01*
X72166666Y-124685714D01*
X71976190Y-124685714D01*
X71880952Y-124733333D01*
X71023809Y-125352380D02*
X71023809Y-124828571D01*
X71071428Y-124733333D01*
X71166666Y-124685714D01*
X71357142Y-124685714D01*
X71452380Y-124733333D01*
X71023809Y-125304761D02*
X71119047Y-125352380D01*
X71357142Y-125352380D01*
X71452380Y-125304761D01*
X71500000Y-125209523D01*
X71500000Y-125114285D01*
X71452380Y-125019047D01*
X71357142Y-124971428D01*
X71119047Y-124971428D01*
X71023809Y-124923809D01*
X70642857Y-124685714D02*
X70404761Y-125352380D01*
X70166666Y-124685714D02*
X70404761Y-125352380D01*
X70500000Y-125590476D01*
X70547619Y-125638095D01*
X70642857Y-125685714D01*
X68500000Y-125352380D02*
X69071428Y-125352380D01*
X68785714Y-125352380D02*
X68785714Y-124352380D01*
X68880952Y-124495238D01*
X68976190Y-124590476D01*
X69071428Y-124638095D01*
X67880952Y-124352380D02*
X67785714Y-124352380D01*
X67690476Y-124400000D01*
X67642857Y-124447619D01*
X67595238Y-124542857D01*
X67547619Y-124733333D01*
X67547619Y-124971428D01*
X67595238Y-125161904D01*
X67642857Y-125257142D01*
X67690476Y-125304761D01*
X67785714Y-125352380D01*
X67880952Y-125352380D01*
X67976190Y-125304761D01*
X68023809Y-125257142D01*
X68071428Y-125161904D01*
X68119047Y-124971428D01*
X68119047Y-124733333D01*
X68071428Y-124542857D01*
X68023809Y-124447619D01*
X67976190Y-124400000D01*
X67880952Y-124352380D01*
X66928571Y-124352380D02*
X66833333Y-124352380D01*
X66738095Y-124400000D01*
X66690476Y-124447619D01*
X66642857Y-124542857D01*
X66595238Y-124733333D01*
X66595238Y-124971428D01*
X66642857Y-125161904D01*
X66690476Y-125257142D01*
X66738095Y-125304761D01*
X66833333Y-125352380D01*
X66928571Y-125352380D01*
X67023809Y-125304761D01*
X67071428Y-125257142D01*
X67119047Y-125161904D01*
X67166666Y-124971428D01*
X67166666Y-124733333D01*
X67119047Y-124542857D01*
X67071428Y-124447619D01*
X67023809Y-124400000D01*
X66928571Y-124352380D01*
X66166666Y-125352380D02*
X66166666Y-124352380D01*
X66071428Y-124971428D02*
X65785714Y-125352380D01*
X65785714Y-124685714D02*
X66166666Y-125066666D01*
%TO.C,J4*%
X85815833Y-43352380D02*
X85815833Y-44066666D01*
X85863452Y-44209523D01*
X85958690Y-44304761D01*
X86101547Y-44352380D01*
X86196785Y-44352380D01*
X84911071Y-43685714D02*
X84911071Y-44352380D01*
X85149166Y-43304761D02*
X85387261Y-44019047D01*
X84768214Y-44019047D01*
X87792023Y-66712380D02*
X87792023Y-65712380D01*
X87411071Y-65712380D01*
X87315833Y-65760000D01*
X87268214Y-65807619D01*
X87220595Y-65902857D01*
X87220595Y-66045714D01*
X87268214Y-66140952D01*
X87315833Y-66188571D01*
X87411071Y-66236190D01*
X87792023Y-66236190D01*
X86601547Y-65712380D02*
X86411071Y-65712380D01*
X86315833Y-65760000D01*
X86220595Y-65855238D01*
X86172976Y-66045714D01*
X86172976Y-66379047D01*
X86220595Y-66569523D01*
X86315833Y-66664761D01*
X86411071Y-66712380D01*
X86601547Y-66712380D01*
X86696785Y-66664761D01*
X86792023Y-66569523D01*
X86839642Y-66379047D01*
X86839642Y-66045714D01*
X86792023Y-65855238D01*
X86696785Y-65760000D01*
X86601547Y-65712380D01*
X85839642Y-65712380D02*
X85601547Y-66712380D01*
X85411071Y-65998095D01*
X85220595Y-66712380D01*
X84982500Y-65712380D01*
X84601547Y-66188571D02*
X84268214Y-66188571D01*
X84125357Y-66712380D02*
X84601547Y-66712380D01*
X84601547Y-65712380D01*
X84125357Y-65712380D01*
X83125357Y-66712380D02*
X83458690Y-66236190D01*
X83696785Y-66712380D02*
X83696785Y-65712380D01*
X83315833Y-65712380D01*
X83220595Y-65760000D01*
X83172976Y-65807619D01*
X83125357Y-65902857D01*
X83125357Y-66045714D01*
X83172976Y-66140952D01*
X83220595Y-66188571D01*
X83315833Y-66236190D01*
X83696785Y-66236190D01*
%TO.C,J1*%
X53100000Y-184300000D02*
X48200000Y-184300000D01*
X49500000Y-200500000D02*
X45500000Y-196500000D01*
X53300000Y-184300000D02*
X53300000Y-182300000D01*
X48200000Y-184300000D02*
X48200000Y-182300000D01*
X58200000Y-184300000D02*
X53300000Y-184300000D01*
G36*
X58200000Y-184100000D02*
G01*
X56000000Y-184100000D01*
X56000000Y-182300000D01*
X58200000Y-182300000D01*
X58200000Y-184100000D01*
G37*
D12*
X58200000Y-184100000D02*
X56000000Y-184100000D01*
X56000000Y-182300000D01*
X58200000Y-182300000D01*
X58200000Y-184100000D01*
G36*
X53100000Y-184100000D02*
G01*
X50900000Y-184100000D01*
X50900000Y-182300000D01*
X53100000Y-182300000D01*
X53100000Y-184100000D01*
G37*
X53100000Y-184100000D02*
X50900000Y-184100000D01*
X50900000Y-182300000D01*
X53100000Y-182300000D01*
X53100000Y-184100000D01*
D10*
%TO.C,J2*%
X70300000Y-184300000D02*
X70300000Y-182300000D01*
X70100000Y-184300000D02*
X65200000Y-184300000D01*
X66500000Y-200500000D02*
X62500000Y-196500000D01*
X65200000Y-184300000D02*
X65200000Y-182300000D01*
X75200000Y-184300000D02*
X70300000Y-184300000D01*
G36*
X75200000Y-184100000D02*
G01*
X73000000Y-184100000D01*
X73000000Y-182300000D01*
X75200000Y-182300000D01*
X75200000Y-184100000D01*
G37*
D12*
X75200000Y-184100000D02*
X73000000Y-184100000D01*
X73000000Y-182300000D01*
X75200000Y-182300000D01*
X75200000Y-184100000D01*
G36*
X70100000Y-184100000D02*
G01*
X67900000Y-184100000D01*
X67900000Y-182300000D01*
X70100000Y-182300000D01*
X70100000Y-184100000D01*
G37*
X70100000Y-184100000D02*
X67900000Y-184100000D01*
X67900000Y-182300000D01*
X70100000Y-182300000D01*
X70100000Y-184100000D01*
D10*
%TO.C,J3*%
X83500000Y-200500000D02*
X79500000Y-196500000D01*
X82200000Y-184300000D02*
X82200000Y-182300000D01*
X87100000Y-184300000D02*
X82200000Y-184300000D01*
X92200000Y-184300000D02*
X87300000Y-184300000D01*
X87300000Y-184300000D02*
X87300000Y-182300000D01*
G36*
X92200000Y-184100000D02*
G01*
X90000000Y-184100000D01*
X90000000Y-182300000D01*
X92200000Y-182300000D01*
X92200000Y-184100000D01*
G37*
D12*
X92200000Y-184100000D02*
X90000000Y-184100000D01*
X90000000Y-182300000D01*
X92200000Y-182300000D01*
X92200000Y-184100000D01*
G36*
X87100000Y-184100000D02*
G01*
X84900000Y-184100000D01*
X84900000Y-182300000D01*
X87100000Y-182300000D01*
X87100000Y-184100000D01*
G37*
X87100000Y-184100000D02*
X84900000Y-184100000D01*
X84900000Y-182300000D01*
X87100000Y-182300000D01*
X87100000Y-184100000D01*
D13*
%TO.C,J4*%
X80922500Y-44790000D02*
X80922500Y-65370000D01*
X90042500Y-53030000D02*
X88732500Y-53030000D01*
X80922500Y-65370000D02*
X90042500Y-65370000D01*
X82232500Y-64070000D02*
X88732500Y-64070000D01*
X90042500Y-65370000D02*
X90042500Y-44790000D01*
X88732500Y-57130000D02*
X90042500Y-57130000D01*
X91432500Y-50500000D02*
X90432500Y-50000000D01*
X88732500Y-57130000D02*
X88732500Y-57130000D01*
X90042500Y-44790000D02*
X80922500Y-44790000D01*
X91432500Y-49500000D02*
X91432500Y-50500000D01*
X88732500Y-53030000D02*
X88732500Y-46090000D01*
X90432500Y-50000000D02*
X91432500Y-49500000D01*
X88732500Y-46090000D02*
X82232500Y-46090000D01*
X82232500Y-46090000D02*
X82232500Y-64070000D01*
X88732500Y-64070000D02*
X88732500Y-57130000D01*
%TD*%
M02*
